<ttFont>
    <TTGlyph name=".notdef" xMin="106" yMin="0" xMax="494" yMax="700">
      <contour>
        <pt x="106" y="700" on="1"/>
        <pt x="494" y="700" on="1"/>
        <pt x="494" y="0" on="1"/>
        <pt x="106" y="0" on="1"/>
      </contour>
      <contour>
        <pt x="426" y="68" on="1"/>
        <pt x="426" y="632" on="1"/>
        <pt x="174" y="632" on="1"/>
        <pt x="174" y="68" on="1"/>
      </contour>
    </TTGlyph>
    <TTGlyph name="A" xMin="-28" yMin="-10" xMax="616" yMax="700">
      <contour>
        <pt x="-28" y="37" on="1"/>
        <pt x="356" y="700" on="1"/>
        <pt x="463" y="700" on="1"/>
        <pt x="616" y="11" on="1"/>
        <pt x="525" y="-10" on="1"/>
        <pt x="483" y="190" on="1"/>
        <pt x="159" y="190" on="1"/>
        <pt x="48" y="-8" on="1"/>
      </contour>
      <contour>
        <pt x="204" y="270" on="1"/>
        <pt x="466" y="270" on="1"/>
        <pt x="395" y="607" on="1"/>
      </contour>
    </TTGlyph>
    <TTGlyph name="AE" xMin="-38" yMin="-9" xMax="910" yMax="700">
      <contour>
        <pt x="-38" y="42" on="1"/>
        <pt x="445" y="700" on="1"/>
        <pt x="910" y="700" on="1"/>
        <pt x="896" y="618" on="1"/>
        <pt x="586" y="618" on="1"/>
        <pt x="548" y="405" on="1"/>
        <pt x="813" y="405" on="1"/>
        <pt x="799" y="325" on="1"/>
        <pt x="534" y="325" on="1"/>
        <pt x="491" y="82" on="1"/>
        <pt x="801" y="82" on="1"/>
        <pt x="787" y="0" on="1"/>
        <pt x="385" y="0" on="1"/>
        <pt x="418" y="190" on="1"/>
        <pt x="179" y="190" on="1"/>
        <pt x="34" y="-9" on="1"/>
      </contour>
      <contour>
        <pt x="237" y="270" on="1"/>
        <pt x="432" y="270" on="1"/>
        <pt x="494" y="623" on="1"/>
      </contour>
    </TTGlyph>
    <TTGlyph name="Aacute" xMin="-28" yMin="-10" xMax="616" yMax="920">
      <component glyphName="A" x="0" y="0" flags="0x204"/>
      <component glyphName="acute.cap" x="280" y="180" flags="0x4"/>
    </TTGlyph>
    <TTGlyph name="Acircumflex" xMin="-28" yMin="-10" xMax="616" yMax="900">
      <component glyphName="A" x="0" y="0" flags="0x204"/>
      <component glyphName="circumflex.cap" x="201" y="170" flags="0x4"/>
    </TTGlyph>
    <TTGlyph name="Adieresis" xMin="-28" yMin="-10" xMax="616" yMax="880">
      <component glyphName="A" x="0" y="0" flags="0x204"/>
      <component glyphName="dieresis.cap" x="241" y="183" flags="0x4"/>
    </TTGlyph>
    <TTGlyph name="Agrave" xMin="-28" yMin="-10" xMax="616" yMax="920">
      <component glyphName="A" x="0" y="0" flags="0x204"/>
      <component glyphName="grave.cap" x="280" y="180" flags="0x4"/>
    </TTGlyph>
    <TTGlyph name="Aring" xMin="-28" yMin="-10" xMax="616" yMax="878">
      <contour>
        <pt x="-28" y="37" on="1"/>
        <pt x="333" y="661" on="1"/>
        <pt x="295" y="689" on="0"/>
        <pt x="295" y="742" on="1"/>
        <pt x="295" y="771" on="0"/>
        <pt x="315" y="821" on="0"/>
        <pt x="351" y="857" on="0"/>
        <pt x="402" y="878" on="0"/>
        <pt x="434" y="878" on="1"/>
        <pt x="484" y="878" on="0"/>
        <pt x="548" y="822" on="0"/>
        <pt x="548" y="774" on="1"/>
        <pt x="548" y="732" on="0"/>
        <pt x="508" y="668" on="0"/>
        <pt x="473" y="651" on="1"/>
        <pt x="616" y="11" on="1"/>
        <pt x="525" y="-10" on="1"/>
        <pt x="483" y="190" on="1"/>
        <pt x="159" y="190" on="1"/>
        <pt x="48" y="-8" on="1"/>
      </contour>
      <contour>
        <pt x="204" y="270" on="1"/>
        <pt x="466" y="270" on="1"/>
        <pt x="395" y="607" on="1"/>
      </contour>
      <contour>
        <pt x="415" y="700" on="1"/>
        <pt x="440" y="700" on="0"/>
        <pt x="470" y="738" on="0"/>
        <pt x="470" y="765" on="1"/>
        <pt x="470" y="788" on="0"/>
        <pt x="448" y="816" on="0"/>
        <pt x="428" y="816" on="1"/>
        <pt x="403" y="816" on="0"/>
        <pt x="373" y="778" on="0"/>
        <pt x="373" y="751" on="1"/>
        <pt x="373" y="729" on="0"/>
        <pt x="393" y="702" on="0"/>
        <pt x="411" y="700" on="1"/>
      </contour>
    </TTGlyph>
    <TTGlyph name="Atilde" xMin="-28" yMin="-10" xMax="616" yMax="872">
      <component glyphName="A" x="0" y="0" flags="0x204"/>
      <component glyphName="tilde.cap" x="215" y="180" flags="0x4"/>
    </TTGlyph>
    <TTGlyph name="B" xMin="42" yMin="-12" xMax="585" yMax="712">
      <contour>
        <pt x="160" y="692" on="1"/>
        <pt x="206" y="701" on="0"/>
        <pt x="292" y="712" on="0"/>
        <pt x="347" y="712" on="1"/>
        <pt x="407" y="712" on="0"/>
        <pt x="497" y="683" on="0"/>
        <pt x="556" y="635" on="0"/>
        <pt x="585" y="572" on="0"/>
        <pt x="585" y="539" on="1"/>
        <pt x="585" y="470" on="0"/>
        <pt x="510" y="386" on="0"/>
        <pt x="435" y="364" on="1"/>
        <pt x="463" y="353" on="0"/>
        <pt x="510" y="324" on="0"/>
        <pt x="544" y="284" on="0"/>
        <pt x="563" y="234" on="0"/>
        <pt x="563" y="203" on="1"/>
        <pt x="563" y="149" on="0"/>
        <pt x="513" y="68" on="0"/>
        <pt x="427" y="14" on="0"/>
        <pt x="315" y="-12" on="0"/>
        <pt x="254" y="-12" on="1"/>
        <pt x="182" y="-12" on="0"/>
        <pt x="77" y="9" on="0"/>
        <pt x="42" y="20" on="1"/>
      </contour>
      <contour>
        <pt x="190" y="324" on="1"/>
        <pt x="148" y="81" on="1"/>
        <pt x="201" y="67" on="0"/>
        <pt x="261" y="67" on="1"/>
        <pt x="360" y="67" on="0"/>
        <pt x="466" y="142" on="0"/>
        <pt x="466" y="200" on="1"/>
        <pt x="466" y="225" on="0"/>
        <pt x="445" y="270" on="0"/>
        <pt x="399" y="304" on="0"/>
        <pt x="328" y="324" on="0"/>
        <pt x="277" y="324" on="1"/>
      </contour>
      <contour>
        <pt x="343" y="637" on="1"/>
        <pt x="312" y="637" on="0"/>
        <pt x="264" y="633" on="0"/>
        <pt x="244" y="629" on="1"/>
        <pt x="203" y="398" on="1"/>
        <pt x="301" y="398" on="1"/>
        <pt x="349" y="398" on="0"/>
        <pt x="421" y="419" on="0"/>
        <pt x="469" y="454" on="0"/>
        <pt x="492" y="500" on="0"/>
        <pt x="492" y="526" on="1"/>
        <pt x="492" y="573" on="0"/>
        <pt x="417" y="637" on="0"/>
      </contour>
    </TTGlyph>
    <TTGlyph name="C" xMin="47" yMin="-12" xMax="593" yMax="712">
      <contour>
        <pt x="406" y="629" on="1"/>
        <pt x="351" y="629" on="0"/>
        <pt x="256" y="579" on="0"/>
        <pt x="185" y="489" on="0"/>
        <pt x="145" y="366" on="0"/>
        <pt x="145" y="293" on="1"/>
        <pt x="145" y="239" on="0"/>
        <pt x="173" y="156" on="0"/>
        <pt x="223" y="100" on="0"/>
        <pt x="292" y="71" on="0"/>
        <pt x="333" y="71" on="1"/>
        <pt x="380" y="71" on="0"/>
        <pt x="453" y="97" on="0"/>
        <pt x="488" y="115" on="1"/>
        <pt x="504" y="29" on="1"/>
        <pt x="467" y="12" on="0"/>
        <pt x="377" y="-12" on="0"/>
        <pt x="320" y="-12" on="1"/>
        <pt x="258" y="-12" on="0"/>
        <pt x="158" y="28" on="0"/>
        <pt x="86" y="104" on="0"/>
        <pt x="47" y="215" on="0"/>
        <pt x="47" y="286" on="1"/>
        <pt x="47" y="376" on="0"/>
        <pt x="101" y="532" on="0"/>
        <pt x="198" y="646" on="0"/>
        <pt x="333" y="712" on="0"/>
        <pt x="414" y="712" on="1"/>
        <pt x="474" y="712" on="0"/>
        <pt x="563" y="680" on="0"/>
        <pt x="593" y="663" on="1"/>
        <pt x="550" y="585" on="1"/>
        <pt x="520" y="604" on="0"/>
        <pt x="454" y="629" on="0"/>
      </contour>
    </TTGlyph>
    <TTGlyph name="Ccedilla" xMin="47" yMin="-244" xMax="593" yMax="712">
      <contour>
        <pt x="399" y="-140" on="1"/>
        <pt x="399" y="-166" on="0"/>
        <pt x="376" y="-204" on="0"/>
        <pt x="337" y="-231" on="0"/>
        <pt x="284" y="-244" on="0"/>
        <pt x="254" y="-244" on="1"/>
        <pt x="219" y="-244" on="0"/>
        <pt x="168" y="-232" on="0"/>
        <pt x="147" y="-221" on="1"/>
        <pt x="182" y="-158" on="1"/>
        <pt x="198" y="-167" on="0"/>
        <pt x="232" y="-178" on="0"/>
        <pt x="254" y="-178" on="1"/>
        <pt x="284" y="-178" on="0"/>
        <pt x="317" y="-158" on="0"/>
        <pt x="317" y="-139" on="1"/>
        <pt x="317" y="-121" on="0"/>
        <pt x="270" y="-95" on="0"/>
        <pt x="210" y="-95" on="1"/>
        <pt x="258" y="-6" on="1"/>
        <pt x="161" y="11" on="0"/>
        <pt x="47" y="162" on="0"/>
        <pt x="47" y="286" on="1"/>
        <pt x="47" y="376" on="0"/>
        <pt x="101" y="532" on="0"/>
        <pt x="198" y="646" on="0"/>
        <pt x="333" y="712" on="0"/>
        <pt x="414" y="712" on="1"/>
        <pt x="474" y="712" on="0"/>
        <pt x="563" y="680" on="0"/>
        <pt x="593" y="663" on="1"/>
        <pt x="550" y="585" on="1"/>
        <pt x="520" y="604" on="0"/>
        <pt x="454" y="629" on="0"/>
        <pt x="406" y="629" on="1"/>
        <pt x="351" y="629" on="0"/>
        <pt x="256" y="579" on="0"/>
        <pt x="185" y="489" on="0"/>
        <pt x="145" y="366" on="0"/>
        <pt x="145" y="293" on="1"/>
        <pt x="145" y="239" on="0"/>
        <pt x="173" y="156" on="0"/>
        <pt x="223" y="100" on="0"/>
        <pt x="292" y="71" on="0"/>
        <pt x="333" y="71" on="1"/>
        <pt x="380" y="71" on="0"/>
        <pt x="453" y="97" on="0"/>
        <pt x="488" y="115" on="1"/>
        <pt x="504" y="29" on="1"/>
        <pt x="469" y="12" on="0"/>
        <pt x="383" y="-10" on="0"/>
        <pt x="329" y="-12" on="1"/>
        <pt x="305" y="-59" on="1"/>
        <pt x="347" y="-59" on="0"/>
        <pt x="399" y="-104" on="0"/>
      </contour>
    </TTGlyph>
    <TTGlyph name="D" xMin="42" yMin="-12" xMax="641" yMax="712">
      <contour>
        <pt x="159" y="692" on="1"/>
        <pt x="200" y="701" on="0"/>
        <pt x="282" y="712" on="0"/>
        <pt x="342" y="712" on="1"/>
        <pt x="421" y="712" on="0"/>
        <pt x="535" y="661" on="0"/>
        <pt x="607" y="575" on="0"/>
        <pt x="641" y="464" on="0"/>
        <pt x="641" y="403" on="1"/>
        <pt x="641" y="313" on="0"/>
        <pt x="586" y="160" on="0"/>
        <pt x="484" y="50" on="0"/>
        <pt x="338" y="-12" on="0"/>
        <pt x="247" y="-12" on="1"/>
        <pt x="183" y="-12" on="0"/>
        <pt x="83" y="5" on="0"/>
        <pt x="42" y="20" on="1"/>
      </contour>
      <contour>
        <pt x="334" y="632" on="1"/>
        <pt x="308" y="632" on="0"/>
        <pt x="262" y="627" on="0"/>
        <pt x="242" y="622" on="1"/>
        <pt x="148" y="83" on="1"/>
        <pt x="171" y="77" on="0"/>
        <pt x="223" y="70" on="0"/>
        <pt x="253" y="70" on="1"/>
        <pt x="318" y="70" on="0"/>
        <pt x="425" y="117" on="0"/>
        <pt x="501" y="203" on="0"/>
        <pt x="543" y="323" on="0"/>
        <pt x="543" y="395" on="1"/>
        <pt x="543" y="442" on="0"/>
        <pt x="518" y="528" on="0"/>
        <pt x="467" y="593" on="0"/>
        <pt x="388" y="632" on="0"/>
      </contour>
    </TTGlyph>
    <TTGlyph name="E" xMin="42" yMin="0" xMax="580" yMax="700">
      <contour>
        <pt x="165" y="700" on="1"/>
        <pt x="580" y="700" on="1"/>
        <pt x="566" y="618" on="1"/>
        <pt x="245" y="618" on="1"/>
        <pt x="208" y="405" on="1"/>
        <pt x="483" y="405" on="1"/>
        <pt x="469" y="325" on="1"/>
        <pt x="194" y="325" on="1"/>
        <pt x="151" y="82" on="1"/>
        <pt x="471" y="82" on="1"/>
        <pt x="457" y="0" on="1"/>
        <pt x="42" y="0" on="1"/>
      </contour>
    </TTGlyph>
    <TTGlyph name="Eacute" xMin="42" yMin="0" xMax="580" yMax="920">
      <component glyphName="E" x="0" y="0" flags="0x204"/>
      <component glyphName="acute.cap" x="248" y="180" flags="0x4"/>
    </TTGlyph>
    <TTGlyph name="Ecircumflex" xMin="42" yMin="0" xMax="580" yMax="900">
      <component glyphName="E" x="0" y="0" flags="0x204"/>
      <component glyphName="circumflex.cap" x="162" y="170" flags="0x4"/>
    </TTGlyph>
    <TTGlyph name="Edieresis" xMin="42" yMin="0" xMax="580" yMax="880">
      <component glyphName="E" x="0" y="0" flags="0x204"/>
      <component glyphName="dieresis.cap" x="198" y="183" flags="0x4"/>
    </TTGlyph>
    <TTGlyph name="Egrave" xMin="42" yMin="0" xMax="580" yMax="920">
      <component glyphName="E" x="0" y="0" flags="0x204"/>
      <component glyphName="grave.cap" x="226" y="180" flags="0x4"/>
    </TTGlyph>
    <TTGlyph name="Eth" xMin="12" yMin="-12" xMax="661" yMax="712">
      <contour>
        <pt x="26" y="384" on="1"/>
        <pt x="125" y="384" on="1"/>
        <pt x="179" y="692" on="1"/>
        <pt x="220" y="701" on="0"/>
        <pt x="302" y="712" on="0"/>
        <pt x="362" y="712" on="1"/>
        <pt x="441" y="712" on="0"/>
        <pt x="555" y="661" on="0"/>
        <pt x="627" y="575" on="0"/>
        <pt x="661" y="464" on="0"/>
        <pt x="661" y="403" on="1"/>
        <pt x="661" y="313" on="0"/>
        <pt x="606" y="160" on="0"/>
        <pt x="504" y="50" on="0"/>
        <pt x="358" y="-12" on="0"/>
        <pt x="267" y="-12" on="1"/>
        <pt x="203" y="-12" on="0"/>
        <pt x="103" y="5" on="0"/>
        <pt x="62" y="20" on="1"/>
        <pt x="111" y="304" on="1"/>
        <pt x="12" y="304" on="1"/>
      </contour>
      <contour>
        <pt x="354" y="632" on="1"/>
        <pt x="328" y="632" on="0"/>
        <pt x="282" y="627" on="0"/>
        <pt x="262" y="622" on="1"/>
        <pt x="220" y="384" on="1"/>
        <pt x="369" y="384" on="1"/>
        <pt x="354" y="304" on="1"/>
        <pt x="206" y="304" on="1"/>
        <pt x="168" y="83" on="1"/>
        <pt x="191" y="77" on="0"/>
        <pt x="243" y="70" on="0"/>
        <pt x="273" y="70" on="1"/>
        <pt x="338" y="70" on="0"/>
        <pt x="445" y="117" on="0"/>
        <pt x="521" y="203" on="0"/>
        <pt x="563" y="323" on="0"/>
        <pt x="563" y="395" on="1"/>
        <pt x="563" y="442" on="0"/>
        <pt x="538" y="528" on="0"/>
        <pt x="487" y="593" on="0"/>
        <pt x="408" y="632" on="0"/>
      </contour>
    </TTGlyph>
    <TTGlyph name="Euro" xMin="25" yMin="-12" xMax="643" yMax="712">
      <contour>
        <pt x="214" y="235" on="1"/>
        <pt x="225" y="154" on="0"/>
        <pt x="315" y="66" on="0"/>
        <pt x="381" y="66" on="1"/>
        <pt x="429" y="66" on="0"/>
        <pt x="493" y="90" on="0"/>
        <pt x="525" y="107" on="1"/>
        <pt x="543" y="33" on="1"/>
        <pt x="514" y="18" on="0"/>
        <pt x="431" y="-12" on="0"/>
        <pt x="369" y="-12" on="1"/>
        <pt x="318" y="-12" on="0"/>
        <pt x="231" y="23" on="0"/>
        <pt x="167" y="88" on="0"/>
        <pt x="126" y="179" on="0"/>
        <pt x="121" y="235" on="1"/>
        <pt x="25" y="235" on="1"/>
        <pt x="38" y="308" on="1"/>
        <pt x="121" y="308" on="1"/>
        <pt x="122" y="324" on="0"/>
        <pt x="126" y="358" on="0"/>
        <pt x="129" y="375" on="1"/>
        <pt x="50" y="375" on="1"/>
        <pt x="63" y="448" on="1"/>
        <pt x="146" y="448" on="1"/>
        <pt x="163" y="503" on="0"/>
        <pt x="221" y="599" on="0"/>
        <pt x="303" y="671" on="0"/>
        <pt x="409" y="712" on="0"/>
        <pt x="474" y="712" on="1"/>
        <pt x="528" y="712" on="0"/>
        <pt x="609" y="686" on="0"/>
        <pt x="643" y="667" on="1"/>
        <pt x="606" y="591" on="1"/>
        <pt x="579" y="611" on="0"/>
        <pt x="510" y="634" on="0"/>
        <pt x="470" y="634" on="1"/>
        <pt x="425" y="634" on="0"/>
        <pt x="352" y="605" on="0"/>
        <pt x="294" y="554" on="0"/>
        <pt x="251" y="487" on="0"/>
        <pt x="238" y="448" on="1"/>
        <pt x="501" y="448" on="1"/>
        <pt x="488" y="375" on="1"/>
        <pt x="221" y="375" on="1"/>
        <pt x="218" y="358" on="0"/>
        <pt x="214" y="325" on="0"/>
        <pt x="213" y="308" on="1"/>
        <pt x="456" y="308" on="1"/>
        <pt x="443" y="235" on="1"/>
      </contour>
    </TTGlyph>
    <TTGlyph name="F" xMin="42" yMin="0" xMax="575" yMax="700">
      <contour>
        <pt x="165" y="700" on="1"/>
        <pt x="575" y="700" on="1"/>
        <pt x="561" y="618" on="1"/>
        <pt x="245" y="618" on="1"/>
        <pt x="208" y="404" on="1"/>
        <pt x="470" y="404" on="1"/>
        <pt x="456" y="326" on="1"/>
        <pt x="194" y="326" on="1"/>
        <pt x="137" y="0" on="1"/>
        <pt x="42" y="0" on="1"/>
      </contour>
    </TTGlyph>
    <TTGlyph name="G" xMin="47" yMin="-12" xMax="630" yMax="712">
      <contour>
        <pt x="410" y="629" on="1"/>
        <pt x="353" y="629" on="0"/>
        <pt x="256" y="578" on="0"/>
        <pt x="185" y="487" on="0"/>
        <pt x="145" y="359" on="0"/>
        <pt x="145" y="283" on="1"/>
        <pt x="145" y="236" on="0"/>
        <pt x="168" y="158" on="0"/>
        <pt x="211" y="102" on="0"/>
        <pt x="274" y="71" on="0"/>
        <pt x="314" y="71" on="1"/>
        <pt x="348" y="71" on="0"/>
        <pt x="410" y="98" on="0"/>
        <pt x="460" y="145" on="0"/>
        <pt x="494" y="209" on="0"/>
        <pt x="501" y="247" on="1"/>
        <pt x="510" y="296" on="1"/>
        <pt x="364" y="296" on="1"/>
        <pt x="377" y="371" on="1"/>
        <pt x="612" y="371" on="1"/>
        <pt x="573" y="146" on="1"/>
        <pt x="572" y="141" on="0"/>
        <pt x="571" y="128" on="0"/>
        <pt x="571" y="121" on="1"/>
        <pt x="571" y="94" on="0"/>
        <pt x="602" y="70" on="0"/>
        <pt x="630" y="70" on="1"/>
        <pt x="597" y="-5" on="1"/>
        <pt x="487" y="-5" on="0"/>
        <pt x="487" y="102" on="1"/>
        <pt x="456" y="54" on="0"/>
        <pt x="358" y="-12" on="0"/>
        <pt x="288" y="-12" on="1"/>
        <pt x="236" y="-12" on="0"/>
        <pt x="148" y="26" on="0"/>
        <pt x="83" y="99" on="0"/>
        <pt x="47" y="204" on="0"/>
        <pt x="47" y="270" on="1"/>
        <pt x="47" y="365" on="0"/>
        <pt x="101" y="527" on="0"/>
        <pt x="198" y="645" on="0"/>
        <pt x="334" y="712" on="0"/>
        <pt x="415" y="712" on="1"/>
        <pt x="479" y="712" on="0"/>
        <pt x="576" y="677" on="0"/>
        <pt x="618" y="650" on="1"/>
        <pt x="568" y="574" on="1"/>
        <pt x="532" y="599" on="0"/>
        <pt x="459" y="629" on="0"/>
      </contour>
    </TTGlyph>
    <TTGlyph name="H" xMin="42" yMin="0" xMax="689" yMax="700">
      <contour>
        <pt x="527" y="319" on="1"/>
        <pt x="193" y="319" on="1"/>
        <pt x="137" y="0" on="1"/>
        <pt x="42" y="0" on="1"/>
        <pt x="165" y="700" on="1"/>
        <pt x="260" y="700" on="1"/>
        <pt x="207" y="401" on="1"/>
        <pt x="541" y="401" on="1"/>
        <pt x="594" y="700" on="1"/>
        <pt x="689" y="700" on="1"/>
        <pt x="566" y="0" on="1"/>
        <pt x="471" y="0" on="1"/>
      </contour>
    </TTGlyph>
    <TTGlyph name="I" xMin="42" yMin="0" xMax="260" yMax="700">
      <contour>
        <pt x="42" y="0" on="1"/>
        <pt x="165" y="700" on="1"/>
        <pt x="260" y="700" on="1"/>
        <pt x="137" y="0" on="1"/>
      </contour>
    </TTGlyph>
    <TTGlyph name="IJ" xMin="42" yMin="-12" xMax="681" yMax="700">
      <component glyphName="I" x="0" y="0" flags="0x4"/>
      <component glyphName="J" x="272" y="0" flags="0x4"/>
    </TTGlyph>
    <TTGlyph name="Iacute" xMin="42" yMin="0" xMax="349" yMax="920">
      <component glyphName="I" x="0" y="0" flags="0x204"/>
      <component glyphName="acute.cap" x="80" y="180" flags="0x4"/>
    </TTGlyph>
    <TTGlyph name="Icircumflex" xMin="42" yMin="0" xMax="413" yMax="900">
      <component glyphName="I" x="0" y="0" flags="0x204"/>
      <component glyphName="circumflex.cap" x="5" y="170" flags="0x4"/>
    </TTGlyph>
    <TTGlyph name="Idieresis" xMin="42" yMin="0" xMax="383" yMax="880">
      <component glyphName="I" x="0" y="0" flags="0x204"/>
      <component glyphName="dieresis.cap" x="43" y="183" flags="0x4"/>
    </TTGlyph>
    <TTGlyph name="Igrave" xMin="42" yMin="0" xMax="351" yMax="920">
      <component glyphName="I" x="0" y="0" flags="0x204"/>
      <component glyphName="grave.cap" x="82" y="180" flags="0x4"/>
    </TTGlyph>
    <TTGlyph name="Itilde" xMin="42" yMin="0" xMax="394" yMax="872">
      <component glyphName="I" x="0" y="0" flags="0x204"/>
      <component glyphName="tilde.cap" x="23" y="180" flags="0x4"/>
    </TTGlyph>
    <TTGlyph name="J" xMin="-48" yMin="-12" xMax="409" yMax="700">
      <contour>
        <pt x="111" y="-12" on="1"/>
        <pt x="60" y="-12" on="0"/>
        <pt x="-19" y="27" on="0"/>
        <pt x="-48" y="59" on="1"/>
        <pt x="10" y="129" on="1"/>
        <pt x="30" y="104" on="0"/>
        <pt x="81" y="70" on="0"/>
        <pt x="115" y="70" on="1"/>
        <pt x="151" y="70" on="0"/>
        <pt x="210" y="125" on="0"/>
        <pt x="223" y="194" on="1"/>
        <pt x="314" y="700" on="1"/>
        <pt x="409" y="700" on="1"/>
        <pt x="318" y="190" on="1"/>
        <pt x="306" y="124" on="0"/>
        <pt x="257" y="44" on="0"/>
        <pt x="199" y="1" on="0"/>
        <pt x="136" y="-12" on="0"/>
      </contour>
    </TTGlyph>
    <TTGlyph name="Jcircumflex" xMin="-48" yMin="-12" xMax="560" yMax="900">
      <component glyphName="J" x="0" y="0" flags="0x204"/>
      <component glyphName="circumflex.cap" x="152" y="170" flags="0x4"/>
    </TTGlyph>
    <TTGlyph name="K" xMin="42" yMin="-7" xMax="595" yMax="700">
      <contour>
        <pt x="443" y="157" on="1"/>
        <pt x="464" y="131" on="0"/>
        <pt x="495" y="99" on="0"/>
        <pt x="523" y="81" on="0"/>
        <pt x="550" y="74" on="0"/>
        <pt x="567" y="74" on="1"/>
        <pt x="532" y="-7" on="1"/>
        <pt x="488" y="-7" on="0"/>
        <pt x="425" y="29" on="0"/>
        <pt x="390" y="73" on="1"/>
        <pt x="194" y="323" on="1"/>
        <pt x="137" y="0" on="1"/>
        <pt x="42" y="0" on="1"/>
        <pt x="165" y="700" on="1"/>
        <pt x="260" y="700" on="1"/>
        <pt x="205" y="389" on="1"/>
        <pt x="537" y="698" on="1"/>
        <pt x="595" y="634" on="1"/>
        <pt x="285" y="356" on="1"/>
      </contour>
    </TTGlyph>
    <TTGlyph name="L" xMin="42" yMin="0" xMax="473" yMax="700">
      <contour>
        <pt x="165" y="700" on="1"/>
        <pt x="260" y="700" on="1"/>
        <pt x="152" y="85" on="1"/>
        <pt x="473" y="85" on="1"/>
        <pt x="458" y="0" on="1"/>
        <pt x="42" y="0" on="1"/>
      </contour>
    </TTGlyph>
    <TTGlyph name="Ldotaccent" xMin="42" yMin="0" xMax="473" yMax="700">
      <component glyphName="L" x="0" y="0" flags="0x204"/>
      <component glyphName="dotaccentcmb" x="238" y="-312" flags="0x4"/>
    </TTGlyph>
    <TTGlyph name="Lslash" xMin="2" yMin="0" xMax="484" yMax="700">
      <contour>
        <pt x="102" y="282" on="1"/>
        <pt x="29" y="255" on="1"/>
        <pt x="2" y="323" on="1"/>
        <pt x="117" y="365" on="1"/>
        <pt x="176" y="700" on="1"/>
        <pt x="271" y="700" on="1"/>
        <pt x="219" y="404" on="1"/>
        <pt x="426" y="482" on="1"/>
        <pt x="454" y="413" on="1"/>
        <pt x="204" y="320" on="1"/>
        <pt x="163" y="85" on="1"/>
        <pt x="484" y="85" on="1"/>
        <pt x="469" y="0" on="1"/>
        <pt x="53" y="0" on="1"/>
      </contour>
    </TTGlyph>
    <TTGlyph name="M" xMin="42" yMin="0" xMax="819" yMax="700">
      <contour>
        <pt x="704" y="585" on="1"/>
        <pt x="445" y="158" on="1"/>
        <pt x="352" y="158" on="1"/>
        <pt x="235" y="589" on="1"/>
        <pt x="132" y="0" on="1"/>
        <pt x="42" y="0" on="1"/>
        <pt x="165" y="700" on="1"/>
        <pt x="294" y="700" on="1"/>
        <pt x="412" y="254" on="1"/>
        <pt x="676" y="700" on="1"/>
        <pt x="819" y="700" on="1"/>
        <pt x="696" y="0" on="1"/>
        <pt x="601" y="0" on="1"/>
      </contour>
    </TTGlyph>
    <TTGlyph name="N" xMin="42" yMin="0" xMax="690" yMax="700">
      <contour>
        <pt x="234" y="584" on="1"/>
        <pt x="132" y="0" on="1"/>
        <pt x="42" y="0" on="1"/>
        <pt x="165" y="700" on="1"/>
        <pt x="291" y="700" on="1"/>
        <pt x="496" y="112" on="1"/>
        <pt x="600" y="700" on="1"/>
        <pt x="690" y="700" on="1"/>
        <pt x="567" y="0" on="1"/>
        <pt x="443" y="0" on="1"/>
      </contour>
    </TTGlyph>
    <TTGlyph name="Nacute" xMin="42" yMin="0" xMax="690" yMax="920">
      <component glyphName="N" x="0" y="0" flags="0x204"/>
      <component glyphName="acute.cap" x="314" y="180" flags="0x4"/>
    </TTGlyph>
    <TTGlyph name="Ntilde" xMin="42" yMin="0" xMax="690" yMax="872">
      <component glyphName="N" x="0" y="0" flags="0x204"/>
      <component glyphName="tilde.cap" x="240" y="180" flags="0x4"/>
    </TTGlyph>
    <TTGlyph name="O" xMin="47" yMin="-12" xMax="716" yMax="712">
      <contour>
        <pt x="416" y="630" on="1"/>
        <pt x="352" y="630" on="0"/>
        <pt x="251" y="575" on="0"/>
        <pt x="181" y="483" on="0"/>
        <pt x="144" y="364" on="0"/>
        <pt x="144" y="301" on="1"/>
        <pt x="144" y="253" on="0"/>
        <pt x="170" y="169" on="0"/>
        <pt x="221" y="106" on="0"/>
        <pt x="297" y="70" on="0"/>
        <pt x="347" y="70" on="1"/>
        <pt x="411" y="70" on="0"/>
        <pt x="512" y="125" on="0"/>
        <pt x="582" y="217" on="0"/>
        <pt x="619" y="336" on="0"/>
        <pt x="619" y="399" on="1"/>
        <pt x="619" y="447" on="0"/>
        <pt x="593" y="531" on="0"/>
        <pt x="542" y="594" on="0"/>
        <pt x="466" y="630" on="0"/>
      </contour>
      <contour>
        <pt x="339" y="-12" on="1"/>
        <pt x="268" y="-12" on="0"/>
        <pt x="160" y="36" on="0"/>
        <pt x="85" y="118" on="0"/>
        <pt x="47" y="230" on="0"/>
        <pt x="47" y="295" on="1"/>
        <pt x="47" y="375" on="0"/>
        <pt x="98" y="525" on="0"/>
        <pt x="194" y="642" on="0"/>
        <pt x="334" y="712" on="0"/>
        <pt x="424" y="712" on="1"/>
        <pt x="494" y="712" on="0"/>
        <pt x="603" y="664" on="0"/>
        <pt x="678" y="582" on="0"/>
        <pt x="716" y="469" on="0"/>
        <pt x="716" y="405" on="1"/>
        <pt x="716" y="325" on="0"/>
        <pt x="665" y="175" on="0"/>
        <pt x="569" y="58" on="0"/>
        <pt x="429" y="-12" on="0"/>
      </contour>
    </TTGlyph>
    <TTGlyph name="OE" xMin="47" yMin="-12" xMax="930" yMax="712">
      <contour>
        <pt x="424" y="712" on="1"/>
        <pt x="452" y="712" on="0"/>
        <pt x="503" y="705" on="0"/>
        <pt x="527" y="700" on="1"/>
        <pt x="930" y="700" on="1"/>
        <pt x="916" y="618" on="1"/>
        <pt x="606" y="618" on="1"/>
        <pt x="568" y="405" on="1"/>
        <pt x="833" y="405" on="1"/>
        <pt x="819" y="325" on="1"/>
        <pt x="554" y="325" on="1"/>
        <pt x="511" y="82" on="1"/>
        <pt x="821" y="82" on="1"/>
        <pt x="807" y="0" on="1"/>
        <pt x="418" y="0" on="1"/>
        <pt x="397" y="-5" on="0"/>
        <pt x="350" y="-12" on="0"/>
        <pt x="325" y="-12" on="1"/>
        <pt x="260" y="-12" on="0"/>
        <pt x="157" y="35" on="0"/>
        <pt x="85" y="118" on="0"/>
        <pt x="47" y="230" on="0"/>
        <pt x="47" y="295" on="1"/>
        <pt x="47" y="375" on="0"/>
        <pt x="98" y="525" on="0"/>
        <pt x="194" y="642" on="0"/>
        <pt x="334" y="712" on="0"/>
      </contour>
      <contour>
        <pt x="347" y="70" on="1"/>
        <pt x="367" y="70" on="0"/>
        <pt x="401" y="73" on="0"/>
        <pt x="418" y="78" on="1"/>
        <pt x="513" y="616" on="1"/>
        <pt x="493" y="623" on="0"/>
        <pt x="446" y="630" on="0"/>
        <pt x="416" y="630" on="1"/>
        <pt x="352" y="630" on="0"/>
        <pt x="251" y="575" on="0"/>
        <pt x="181" y="483" on="0"/>
        <pt x="144" y="364" on="0"/>
        <pt x="144" y="301" on="1"/>
        <pt x="144" y="253" on="0"/>
        <pt x="170" y="169" on="0"/>
        <pt x="221" y="106" on="0"/>
        <pt x="297" y="70" on="0"/>
      </contour>
    </TTGlyph>
    <TTGlyph name="Oacute" xMin="47" yMin="-12" xMax="716" yMax="920">
      <component glyphName="O" x="0" y="0" flags="0x204"/>
      <component glyphName="acute.cap" x="291" y="180" flags="0x4"/>
    </TTGlyph>
    <TTGlyph name="Ocircumflex" xMin="47" yMin="-12" xMax="716" yMax="900">
      <component glyphName="O" x="0" y="0" flags="0x204"/>
      <component glyphName="circumflex.cap" x="204" y="170" flags="0x4"/>
    </TTGlyph>
    <TTGlyph name="Odieresis" xMin="47" yMin="-12" xMax="716" yMax="880">
      <component glyphName="O" x="0" y="0" flags="0x204"/>
      <component glyphName="dieresis.cap" x="247" y="183" flags="0x4"/>
    </TTGlyph>
    <TTGlyph name="Ograve" xMin="47" yMin="-12" xMax="716" yMax="920">
      <component glyphName="O" x="0" y="0" flags="0x204"/>
      <component glyphName="grave.cap" x="265" y="180" flags="0x4"/>
    </TTGlyph>
    <TTGlyph name="Oslash" xMin="47" yMin="-118" xMax="716" yMax="809">
      <contour>
        <pt x="339" y="-12" on="1"/>
        <pt x="302" y="-12" on="0"/>
        <pt x="237" y="2" on="0"/>
        <pt x="209" y="14" on="1"/>
        <pt x="131" y="-118" on="1"/>
        <pt x="53" y="-73" on="1"/>
        <pt x="144" y="55" on="1"/>
        <pt x="96" y="97" on="0"/>
        <pt x="47" y="221" on="0"/>
        <pt x="47" y="295" on="1"/>
        <pt x="47" y="375" on="0"/>
        <pt x="98" y="525" on="0"/>
        <pt x="194" y="642" on="0"/>
        <pt x="334" y="712" on="0"/>
        <pt x="424" y="712" on="1"/>
        <pt x="462" y="712" on="0"/>
        <pt x="527" y="698" on="0"/>
        <pt x="555" y="685" on="1"/>
        <pt x="629" y="809" on="1"/>
        <pt x="707" y="764" on="1"/>
        <pt x="621" y="642" on="1"/>
        <pt x="668" y="600" on="0"/>
        <pt x="716" y="477" on="0"/>
        <pt x="716" y="405" on="1"/>
        <pt x="716" y="325" on="0"/>
        <pt x="665" y="175" on="0"/>
        <pt x="569" y="58" on="0"/>
        <pt x="429" y="-12" on="0"/>
      </contour>
      <contour>
        <pt x="416" y="630" on="1"/>
        <pt x="352" y="630" on="0"/>
        <pt x="251" y="575" on="0"/>
        <pt x="181" y="483" on="0"/>
        <pt x="144" y="364" on="0"/>
        <pt x="144" y="301" on="1"/>
        <pt x="144" y="252" on="0"/>
        <pt x="171" y="168" on="0"/>
        <pt x="197" y="136" on="1"/>
        <pt x="507" y="610" on="1"/>
        <pt x="467" y="630" on="0"/>
      </contour>
      <contour>
        <pt x="619" y="399" on="1"/>
        <pt x="619" y="447" on="0"/>
        <pt x="594" y="530" on="0"/>
        <pt x="568" y="562" on="1"/>
        <pt x="258" y="88" on="1"/>
        <pt x="295" y="70" on="0"/>
        <pt x="347" y="70" on="1"/>
        <pt x="411" y="70" on="0"/>
        <pt x="512" y="125" on="0"/>
        <pt x="582" y="217" on="0"/>
        <pt x="619" y="336" on="0"/>
      </contour>
    </TTGlyph>
    <TTGlyph name="Otilde" xMin="47" yMin="-12" xMax="716" yMax="872">
      <component glyphName="O" x="0" y="0" flags="0x204"/>
      <component glyphName="tilde.cap" x="228" y="180" flags="0x4"/>
    </TTGlyph>
    <TTGlyph name="P" xMin="42" yMin="0" xMax="583" yMax="708">
      <contour>
        <pt x="163" y="690" on="1"/>
        <pt x="201" y="698" on="0"/>
        <pt x="287" y="708" on="0"/>
        <pt x="341" y="708" on="1"/>
        <pt x="402" y="708" on="0"/>
        <pt x="493" y="674" on="0"/>
        <pt x="553" y="618" on="0"/>
        <pt x="583" y="545" on="0"/>
        <pt x="583" y="505" on="1"/>
        <pt x="583" y="443" on="0"/>
        <pt x="536" y="350" on="0"/>
        <pt x="454" y="287" on="0"/>
        <pt x="341" y="255" on="0"/>
        <pt x="274" y="255" on="1"/>
        <pt x="250" y="255" on="0"/>
        <pt x="203" y="260" on="0"/>
        <pt x="183" y="265" on="1"/>
        <pt x="137" y="0" on="1"/>
        <pt x="42" y="0" on="1"/>
      </contour>
      <contour>
        <pt x="331" y="629" on="1"/>
        <pt x="304" y="629" on="0"/>
        <pt x="263" y="625" on="0"/>
        <pt x="246" y="622" on="1"/>
        <pt x="197" y="345" on="1"/>
        <pt x="217" y="339" on="0"/>
        <pt x="264" y="334" on="0"/>
        <pt x="287" y="334" on="1"/>
        <pt x="341" y="334" on="0"/>
        <pt x="417" y="358" on="0"/>
        <pt x="467" y="400" on="0"/>
        <pt x="490" y="459" on="0"/>
        <pt x="490" y="494" on="1"/>
        <pt x="490" y="554" on="0"/>
        <pt x="407" y="629" on="0"/>
      </contour>
    </TTGlyph>
    <TTGlyph name="Q" xMin="47" yMin="-12" xMax="714" yMax="712">
      <contour>
        <pt x="334" y="-12" on="1"/>
        <pt x="264" y="-12" on="0"/>
        <pt x="157" y="36" on="0"/>
        <pt x="84" y="119" on="0"/>
        <pt x="47" y="231" on="0"/>
        <pt x="47" y="295" on="1"/>
        <pt x="47" y="375" on="0"/>
        <pt x="96" y="525" on="0"/>
        <pt x="191" y="642" on="0"/>
        <pt x="329" y="712" on="0"/>
        <pt x="419" y="712" on="1"/>
        <pt x="489" y="712" on="0"/>
        <pt x="596" y="664" on="0"/>
        <pt x="669" y="581" on="0"/>
        <pt x="706" y="469" on="0"/>
        <pt x="706" y="405" on="1"/>
        <pt x="706" y="312" on="0"/>
        <pt x="649" y="174" on="0"/>
        <pt x="603" y="118" on="1"/>
        <pt x="636" y="92" on="0"/>
        <pt x="688" y="69" on="0"/>
        <pt x="714" y="69" on="1"/>
        <pt x="680" y="-12" on="1"/>
        <pt x="664" y="-12" on="0"/>
        <pt x="637" y="-6" on="0"/>
        <pt x="607" y="11" on="0"/>
        <pt x="570" y="41" on="0"/>
        <pt x="545" y="65" on="1"/>
        <pt x="498" y="26" on="0"/>
        <pt x="397" y="-12" on="0"/>
      </contour>
      <contour>
        <pt x="471" y="245" on="1"/>
        <pt x="541" y="170" on="1"/>
        <pt x="574" y="215" on="0"/>
        <pt x="609" y="335" on="0"/>
        <pt x="609" y="399" on="1"/>
        <pt x="609" y="447" on="0"/>
        <pt x="584" y="531" on="0"/>
        <pt x="534" y="594" on="0"/>
        <pt x="460" y="630" on="0"/>
        <pt x="411" y="630" on="1"/>
        <pt x="347" y="630" on="0"/>
        <pt x="247" y="575" on="0"/>
        <pt x="179" y="483" on="0"/>
        <pt x="144" y="364" on="0"/>
        <pt x="144" y="301" on="1"/>
        <pt x="144" y="254" on="0"/>
        <pt x="169" y="170" on="0"/>
        <pt x="218" y="107" on="0"/>
        <pt x="292" y="70" on="0"/>
        <pt x="342" y="70" on="1"/>
        <pt x="387" y="70" on="0"/>
        <pt x="456" y="95" on="0"/>
        <pt x="488" y="118" on="1"/>
        <pt x="415" y="187" on="1"/>
      </contour>
    </TTGlyph>
    <TTGlyph name="R" xMin="42" yMin="-7" xMax="584" yMax="708">
      <contour>
        <pt x="164" y="690" on="1"/>
        <pt x="209" y="698" on="0"/>
        <pt x="288" y="708" on="0"/>
        <pt x="341" y="708" on="1"/>
        <pt x="398" y="708" on="0"/>
        <pt x="485" y="680" on="0"/>
        <pt x="545" y="632" on="0"/>
        <pt x="575" y="567" on="0"/>
        <pt x="575" y="530" on="1"/>
        <pt x="575" y="485" on="0"/>
        <pt x="544" y="417" on="0"/>
        <pt x="489" y="369" on="0"/>
        <pt x="411" y="340" on="0"/>
        <pt x="364" y="333" on="1"/>
        <pt x="405" y="314" on="0"/>
        <pt x="451" y="262" on="0"/>
        <pt x="477" y="205" on="0"/>
        <pt x="493" y="148" on="0"/>
        <pt x="515" y="103" on="0"/>
        <pt x="551" y="75" on="0"/>
        <pt x="584" y="75" on="1"/>
        <pt x="549" y="-7" on="1"/>
        <pt x="497" y="-7" on="0"/>
        <pt x="441" y="39" on="0"/>
        <pt x="406" y="109" on="0"/>
        <pt x="379" y="189" on="0"/>
        <pt x="334" y="259" on="0"/>
        <pt x="258" y="305" on="0"/>
        <pt x="191" y="305" on="1"/>
        <pt x="137" y="0" on="1"/>
        <pt x="42" y="0" on="1"/>
      </contour>
      <contour>
        <pt x="335" y="629" on="1"/>
        <pt x="309" y="629" on="0"/>
        <pt x="266" y="625" on="0"/>
        <pt x="247" y="621" on="1"/>
        <pt x="205" y="385" on="1"/>
        <pt x="288" y="385" on="1"/>
        <pt x="376" y="385" on="0"/>
        <pt x="481" y="457" on="0"/>
        <pt x="481" y="518" on="1"/>
        <pt x="481" y="567" on="0"/>
        <pt x="404" y="629" on="0"/>
      </contour>
    </TTGlyph>
    <TTGlyph name="Racute" xMin="42" yMin="-7" xMax="584" yMax="920">
      <component glyphName="R" x="0" y="0" flags="0x204"/>
      <component glyphName="acute.cap" x="243" y="180" flags="0x4"/>
    </TTGlyph>
    <TTGlyph name="Rcaron" xMin="42" yMin="-7" xMax="584" yMax="907">
      <component glyphName="R" x="0" y="0" flags="0x204"/>
      <component glyphName="caron.cap" x="155" y="180" flags="0x4"/>
    </TTGlyph>
    <TTGlyph name="Rcommaaccent" xMin="42" yMin="-224" xMax="584" yMax="708">
      <component glyphName="R" x="0" y="0" flags="0x204"/>
      <component glyphName="commaaccent" x="105" y="18" flags="0x4"/>
    </TTGlyph>
    <TTGlyph name="S" xMin="2" yMin="-12" xMax="547" yMax="712">
      <contour>
        <pt x="386" y="177" on="1"/>
        <pt x="386" y="198" on="0"/>
        <pt x="374" y="233" on="0"/>
        <pt x="342" y="269" on="0"/>
        <pt x="289" y="308" on="0"/>
        <pt x="247" y="331" on="1"/>
        <pt x="208" y="353" on="0"/>
        <pt x="154" y="395" on="0"/>
        <pt x="119" y="441" on="0"/>
        <pt x="104" y="495" on="0"/>
        <pt x="104" y="528" on="1"/>
        <pt x="104" y="570" on="0"/>
        <pt x="138" y="638" on="0"/>
        <pt x="200" y="686" on="0"/>
        <pt x="286" y="712" on="0"/>
        <pt x="338" y="712" on="1"/>
        <pt x="401" y="712" on="0"/>
        <pt x="502" y="681" on="0"/>
        <pt x="547" y="655" on="1"/>
        <pt x="498" y="577" on="1"/>
        <pt x="462" y="600" on="0"/>
        <pt x="383" y="630" on="0"/>
        <pt x="330" y="630" on="1"/>
        <pt x="270" y="630" on="0"/>
        <pt x="199" y="579" on="0"/>
        <pt x="199" y="538" on="1"/>
        <pt x="199" y="519" on="0"/>
        <pt x="211" y="487" on="0"/>
        <pt x="238" y="457" on="0"/>
        <pt x="284" y="425" on="0"/>
        <pt x="319" y="407" on="1"/>
        <pt x="368" y="381" on="0"/>
        <pt x="432" y="330" on="0"/>
        <pt x="469" y="278" on="0"/>
        <pt x="483" y="220" on="0"/>
        <pt x="483" y="186" on="1"/>
        <pt x="483" y="140" on="0"/>
        <pt x="447" y="66" on="0"/>
        <pt x="381" y="15" on="0"/>
        <pt x="289" y="-12" on="0"/>
        <pt x="234" y="-12" on="1"/>
        <pt x="162" y="-12" on="0"/>
        <pt x="46" y="27" on="0"/>
        <pt x="2" y="62" on="1"/>
        <pt x="64" y="139" on="1"/>
        <pt x="98" y="108" on="0"/>
        <pt x="189" y="71" on="0"/>
        <pt x="244" y="71" on="1"/>
        <pt x="309" y="71" on="0"/>
        <pt x="386" y="128" on="0"/>
      </contour>
    </TTGlyph>
    <TTGlyph name="T" xMin="77" yMin="0" xMax="617" yMax="700">
      <contour>
        <pt x="92" y="700" on="1"/>
        <pt x="617" y="700" on="1"/>
        <pt x="602" y="616" on="1"/>
        <pt x="387" y="616" on="1"/>
        <pt x="279" y="0" on="1"/>
        <pt x="184" y="0" on="1"/>
        <pt x="292" y="616" on="1"/>
        <pt x="77" y="616" on="1"/>
      </contour>
    </TTGlyph>
    <TTGlyph name="Thorn" xMin="42" yMin="0" xMax="562" yMax="700">
      <contour>
        <pt x="321" y="585" on="1"/>
        <pt x="382" y="585" on="0"/>
        <pt x="473" y="551" on="0"/>
        <pt x="533" y="495" on="0"/>
        <pt x="562" y="422" on="0"/>
        <pt x="562" y="382" on="1"/>
        <pt x="562" y="320" on="0"/>
        <pt x="515" y="227" on="0"/>
        <pt x="433" y="164" on="0"/>
        <pt x="320" y="132" on="0"/>
        <pt x="253" y="132" on="1"/>
        <pt x="229" y="132" on="0"/>
        <pt x="182" y="137" on="0"/>
        <pt x="162" y="142" on="1"/>
        <pt x="137" y="0" on="1"/>
        <pt x="42" y="0" on="1"/>
        <pt x="165" y="700" on="1"/>
        <pt x="260" y="700" on="1"/>
        <pt x="239" y="580" on="1"/>
        <pt x="258" y="582" on="0"/>
        <pt x="298" y="585" on="0"/>
      </contour>
      <contour>
        <pt x="313" y="506" on="1"/>
        <pt x="284" y="506" on="0"/>
        <pt x="242" y="502" on="0"/>
        <pt x="224" y="498" on="1"/>
        <pt x="176" y="222" on="1"/>
        <pt x="195" y="216" on="0"/>
        <pt x="242" y="211" on="0"/>
        <pt x="266" y="211" on="1"/>
        <pt x="320" y="211" on="0"/>
        <pt x="396" y="235" on="0"/>
        <pt x="446" y="277" on="0"/>
        <pt x="469" y="336" on="0"/>
        <pt x="469" y="371" on="1"/>
        <pt x="469" y="431" on="0"/>
        <pt x="389" y="506" on="0"/>
      </contour>
    </TTGlyph>
    <TTGlyph name="U" xMin="62" yMin="-12" xMax="659" yMax="700">
      <contour>
        <pt x="585" y="-5" on="1"/>
        <pt x="529" y="-5" on="0"/>
        <pt x="472" y="47" on="0"/>
        <pt x="472" y="104" on="1"/>
        <pt x="472" y="126" on="1"/>
        <pt x="431" y="63" on="0"/>
        <pt x="323" y="-12" on="0"/>
        <pt x="249" y="-12" on="1"/>
        <pt x="211" y="-12" on="0"/>
        <pt x="143" y="13" on="0"/>
        <pt x="92" y="62" on="0"/>
        <pt x="62" y="134" on="0"/>
        <pt x="62" y="181" on="1"/>
        <pt x="62" y="204" on="0"/>
        <pt x="66" y="243" on="0"/>
        <pt x="70" y="267" on="1"/>
        <pt x="144" y="700" on="1"/>
        <pt x="239" y="700" on="1"/>
        <pt x="162" y="246" on="1"/>
        <pt x="159" y="228" on="0"/>
        <pt x="157" y="203" on="0"/>
        <pt x="157" y="188" on="1"/>
        <pt x="157" y="134" on="0"/>
        <pt x="221" y="71" on="0"/>
        <pt x="276" y="71" on="1"/>
        <pt x="310" y="71" on="0"/>
        <pt x="380" y="103" on="0"/>
        <pt x="440" y="164" on="0"/>
        <pt x="485" y="254" on="0"/>
        <pt x="495" y="312" on="1"/>
        <pt x="564" y="700" on="1"/>
        <pt x="659" y="700" on="1"/>
        <pt x="561" y="146" on="1"/>
        <pt x="560" y="141" on="0"/>
        <pt x="559" y="128" on="0"/>
        <pt x="559" y="121" on="1"/>
        <pt x="559" y="94" on="0"/>
        <pt x="590" y="70" on="0"/>
        <pt x="618" y="70" on="1"/>
      </contour>
    </TTGlyph>
    <TTGlyph name="Uacute" xMin="62" yMin="-12" xMax="659" yMax="920">
      <component glyphName="U" x="0" y="0" flags="0x204"/>
      <component glyphName="acute.cap" x="280" y="180" flags="0x4"/>
    </TTGlyph>
    <TTGlyph name="Ucircumflex" xMin="62" yMin="-12" xMax="659" yMax="900">
      <component glyphName="U" x="0" y="0" flags="0x204"/>
      <component glyphName="circumflex.cap" x="189" y="170" flags="0x4"/>
    </TTGlyph>
    <TTGlyph name="Udieresis" xMin="62" yMin="-12" xMax="659" yMax="880">
      <component glyphName="U" x="0" y="0" flags="0x204"/>
      <component glyphName="dieresis.cap" x="229" y="183" flags="0x4"/>
    </TTGlyph>
    <TTGlyph name="Ugrave" xMin="62" yMin="-12" xMax="659" yMax="920">
      <component glyphName="U" x="0" y="0" flags="0x204"/>
      <component glyphName="grave.cap" x="246" y="180" flags="0x4"/>
    </TTGlyph>
    <TTGlyph name="V" xMin="67" yMin="0" xMax="685" yMax="711">
      <contour>
        <pt x="67" y="691" on="1"/>
        <pt x="162" y="711" on="1"/>
        <pt x="283" y="104" on="1"/>
        <pt x="601" y="708" on="1"/>
        <pt x="685" y="662" on="1"/>
        <pt x="322" y="0" on="1"/>
        <pt x="213" y="0" on="1"/>
      </contour>
    </TTGlyph>
    <TTGlyph name="W" xMin="82" yMin="0" xMax="1004" yMax="707">
      <contour>
        <pt x="82" y="697" on="1"/>
        <pt x="180" y="707" on="1"/>
        <pt x="234" y="101" on="1"/>
        <pt x="478" y="627" on="1"/>
        <pt x="597" y="627" on="1"/>
        <pt x="653" y="101" on="1"/>
        <pt x="920" y="704" on="1"/>
        <pt x="1004" y="665" on="1"/>
        <pt x="696" y="0" on="1"/>
        <pt x="578" y="0" on="1"/>
        <pt x="521" y="526" on="1"/>
        <pt x="276" y="0" on="1"/>
        <pt x="158" y="0" on="1"/>
      </contour>
    </TTGlyph>
    <TTGlyph name="X" xMin="-8" yMin="-10" xMax="644" yMax="709">
      <contour>
        <pt x="269" y="362" on="1"/>
        <pt x="91" y="658" on="1"/>
        <pt x="176" y="709" on="1"/>
        <pt x="334" y="425" on="1"/>
        <pt x="574" y="706" on="1"/>
        <pt x="644" y="643" on="1"/>
        <pt x="381" y="353" on="1"/>
        <pt x="575" y="41" on="1"/>
        <pt x="490" y="-10" on="1"/>
        <pt x="316" y="288" on="1"/>
        <pt x="62" y="-7" on="1"/>
        <pt x="-8" y="56" on="1"/>
      </contour>
    </TTGlyph>
    <TTGlyph name="Y" xMin="-8" yMin="-12" xMax="630" yMax="708">
      <contour>
        <pt x="131" y="70" on="1"/>
        <pt x="191" y="70" on="0"/>
        <pt x="234" y="146" on="1"/>
        <pt x="277" y="224" on="1"/>
        <pt x="145" y="577" on="1"/>
        <pt x="135" y="604" on="0"/>
        <pt x="100" y="626" on="0"/>
        <pt x="70" y="626" on="1"/>
        <pt x="110" y="705" on="1"/>
        <pt x="164" y="705" on="0"/>
        <pt x="218" y="662" on="0"/>
        <pt x="235" y="613" on="1"/>
        <pt x="336" y="318" on="1"/>
        <pt x="551" y="708" on="1"/>
        <pt x="630" y="665" on="1"/>
        <pt x="329" y="140" on="1"/>
        <pt x="306" y="100" on="0"/>
        <pt x="262" y="42" on="0"/>
        <pt x="213" y="5" on="0"/>
        <pt x="158" y="-12" on="0"/>
        <pt x="124" y="-12" on="1"/>
        <pt x="85" y="-12" on="0"/>
        <pt x="15" y="18" on="0"/>
        <pt x="-8" y="43" on="1"/>
        <pt x="50" y="111" on="1"/>
        <pt x="66" y="93" on="0"/>
        <pt x="106" y="70" on="0"/>
      </contour>
    </TTGlyph>
    <TTGlyph name="Yacute" xMin="-44" yMin="-12" xMax="594" yMax="920">
      <component glyphName="Y" x="-36" y="0" flags="0x204"/>
      <component glyphName="acute.cap" x="239" y="180" flags="0x4"/>
    </TTGlyph>
    <TTGlyph name="Z" xMin="-8" yMin="0" xMax="576" yMax="700">
      <contour>
        <pt x="5" y="74" on="1"/>
        <pt x="444" y="618" on="1"/>
        <pt x="103" y="618" on="1"/>
        <pt x="117" y="700" on="1"/>
        <pt x="576" y="700" on="1"/>
        <pt x="564" y="628" on="1"/>
        <pt x="122" y="84" on="1"/>
        <pt x="502" y="84" on="1"/>
        <pt x="487" y="0" on="1"/>
        <pt x="-8" y="0" on="1"/>
      </contour>
    </TTGlyph>
    <TTGlyph name="a" xMin="37" yMin="-12" xMax="545" yMax="532">
      <contour>
        <pt x="37" y="205" on="1"/>
        <pt x="37" y="277" on="0"/>
        <pt x="86" y="398" on="0"/>
        <pt x="174" y="484" on="0"/>
        <pt x="296" y="532" on="0"/>
        <pt x="368" y="532" on="1"/>
        <pt x="427" y="532" on="0"/>
        <pt x="516" y="508" on="0"/>
        <pt x="545" y="496" on="1"/>
        <pt x="482" y="141" on="1"/>
        <pt x="481" y="136" on="0"/>
        <pt x="480" y="123" on="0"/>
        <pt x="480" y="116" on="1"/>
        <pt x="480" y="88" on="0"/>
        <pt x="512" y="65" on="0"/>
        <pt x="538" y="65" on="1"/>
        <pt x="507" y="-5" on="1"/>
        <pt x="453" y="-5" on="0"/>
        <pt x="396" y="47" on="0"/>
        <pt x="396" y="104" on="1"/>
        <pt x="368" y="56" on="0"/>
        <pt x="283" y="-12" on="0"/>
        <pt x="226" y="-12" on="1"/>
        <pt x="189" y="-12" on="0"/>
        <pt x="121" y="18" on="0"/>
        <pt x="68" y="74" on="0"/>
        <pt x="37" y="155" on="0"/>
      </contour>
      <contour>
        <pt x="446" y="443" on="1"/>
        <pt x="427" y="449" on="0"/>
        <pt x="386" y="456" on="0"/>
        <pt x="357" y="456" on="1"/>
        <pt x="305" y="456" on="0"/>
        <pt x="221" y="420" on="0"/>
        <pt x="161" y="356" on="0"/>
        <pt x="129" y="268" on="0"/>
        <pt x="129" y="216" on="1"/>
        <pt x="129" y="180" on="0"/>
        <pt x="150" y="125" on="0"/>
        <pt x="184" y="87" on="0"/>
        <pt x="227" y="68" on="0"/>
        <pt x="250" y="68" on="1"/>
        <pt x="280" y="68" on="0"/>
        <pt x="335" y="100" on="0"/>
        <pt x="379" y="159" on="0"/>
        <pt x="411" y="240" on="0"/>
        <pt x="419" y="288" on="1"/>
      </contour>
    </TTGlyph>
    <TTGlyph name="aacute" xMin="37" yMin="-12" xMax="545" yMax="760">
      <component glyphName="a" x="0" y="0" flags="0x204"/>
      <component glyphName="acute" x="248" y="0" flags="0x4"/>
    </TTGlyph>
    <TTGlyph name="acircumflex" xMin="37" yMin="-12" xMax="564" yMax="740">
      <component glyphName="a" x="0" y="0" flags="0x204"/>
      <component glyphName="circumflex" x="156" y="0" flags="0x4"/>
    </TTGlyph>
    <TTGlyph name="acute" xMin="40" yMin="575" xMax="269" yMax="760">
      <contour>
        <pt x="40" y="630" on="1"/>
        <pt x="217" y="760" on="1"/>
        <pt x="269" y="684" on="1"/>
        <pt x="76" y="575" on="1"/>
      </contour>
    </TTGlyph>
    <TTGlyph name="acute.cap" xMin="40" yMin="554" xMax="269" yMax="740">
      <contour>
        <pt x="40" y="610" on="1"/>
        <pt x="217" y="740" on="1"/>
        <pt x="269" y="664" on="1"/>
        <pt x="76" y="554" on="1"/>
      </contour>
    </TTGlyph>
    <TTGlyph name="adieresis" xMin="37" yMin="-12" xMax="545" yMax="727">
      <component glyphName="a" x="0" y="0" flags="0x204"/>
      <component glyphName="dieresis" x="199" y="0" flags="0x4"/>
    </TTGlyph>
    <TTGlyph name="ae" xMin="12" yMin="-12" xMax="863" yMax="532">
      <contour>
        <pt x="276" y="532" on="1"/>
        <pt x="345" y="532" on="0"/>
        <pt x="441" y="474" on="0"/>
        <pt x="465" y="417" on="1"/>
        <pt x="505" y="477" on="0"/>
        <pt x="612" y="532" on="0"/>
        <pt x="681" y="532" on="1"/>
        <pt x="724" y="532" on="0"/>
        <pt x="791" y="506" on="0"/>
        <pt x="838" y="464" on="0"/>
        <pt x="863" y="408" on="0"/>
        <pt x="863" y="378" on="1"/>
        <pt x="863" y="322" on="0"/>
        <pt x="810" y="252" on="0"/>
        <pt x="730" y="211" on="0"/>
        <pt x="634" y="196" on="0"/>
        <pt x="591" y="196" on="1"/>
        <pt x="564" y="196" on="0"/>
        <pt x="511" y="201" on="0"/>
        <pt x="491" y="204" on="1"/>
        <pt x="499" y="138" on="0"/>
        <pt x="576" y="68" on="0"/>
        <pt x="638" y="68" on="1"/>
        <pt x="688" y="68" on="0"/>
        <pt x="766" y="94" on="0"/>
        <pt x="793" y="107" on="1"/>
        <pt x="801" y="27" on="1"/>
        <pt x="771" y="13" on="0"/>
        <pt x="680" y="-12" on="0"/>
        <pt x="623" y="-12" on="1"/>
        <pt x="554" y="-12" on="0"/>
        <pt x="453" y="49" on="0"/>
        <pt x="425" y="109" on="1"/>
        <pt x="383" y="52" on="0"/>
        <pt x="271" y="-12" on="0"/>
        <pt x="193" y="-12" on="1"/>
        <pt x="152" y="-12" on="0"/>
        <pt x="85" y="11" on="0"/>
        <pt x="38" y="51" on="0"/>
        <pt x="12" y="105" on="0"/>
        <pt x="12" y="136" on="1"/>
        <pt x="12" y="179" on="0"/>
        <pt x="48" y="248" on="0"/>
        <pt x="111" y="296" on="0"/>
        <pt x="196" y="321" on="0"/>
        <pt x="246" y="321" on="1"/>
        <pt x="289" y="321" on="0"/>
        <pt x="368" y="310" on="0"/>
        <pt x="403" y="302" on="1"/>
        <pt x="403" y="309" on="1"/>
        <pt x="403" y="375" on="0"/>
        <pt x="326" y="454" on="0"/>
        <pt x="261" y="454" on="1"/>
        <pt x="223" y="454" on="0"/>
        <pt x="158" y="435" on="0"/>
        <pt x="129" y="421" on="1"/>
        <pt x="119" y="497" on="1"/>
        <pt x="154" y="513" on="0"/>
        <pt x="228" y="532" on="0"/>
      </contour>
      <contour>
        <pt x="673" y="456" on="1"/>
        <pt x="638" y="456" on="0"/>
        <pt x="577" y="429" on="0"/>
        <pt x="530" y="381" on="0"/>
        <pt x="499" y="315" on="0"/>
        <pt x="493" y="276" on="1"/>
        <pt x="516" y="271" on="0"/>
        <pt x="562" y="267" on="0"/>
        <pt x="591" y="267" on="1"/>
        <pt x="676" y="267" on="0"/>
        <pt x="773" y="314" on="0"/>
        <pt x="773" y="371" on="1"/>
        <pt x="773" y="406" on="0"/>
        <pt x="718" y="456" on="0"/>
      </contour>
      <contour>
        <pt x="204" y="68" on="1"/>
        <pt x="241" y="68" on="0"/>
        <pt x="302" y="94" on="0"/>
        <pt x="350" y="138" on="0"/>
        <pt x="383" y="197" on="0"/>
        <pt x="392" y="230" on="1"/>
        <pt x="357" y="240" on="0"/>
        <pt x="289" y="248" on="0"/>
        <pt x="249" y="248" on="1"/>
        <pt x="219" y="248" on="0"/>
        <pt x="167" y="235" on="0"/>
        <pt x="127" y="210" on="0"/>
        <pt x="104" y="171" on="0"/>
        <pt x="104" y="145" on="1"/>
        <pt x="104" y="112" on="0"/>
        <pt x="159" y="68" on="0"/>
      </contour>
    </TTGlyph>
    <TTGlyph name="agrave" xMin="37" yMin="-12" xMax="545" yMax="760">
      <component glyphName="a" x="0" y="0" flags="0x204"/>
      <component glyphName="grave" x="247" y="0" flags="0x4"/>
    </TTGlyph>
    <TTGlyph name="ampersand" xMin="60" yMin="-12" xMax="751" yMax="712">
      <contour>
        <pt x="607" y="327" on="1"/>
        <pt x="598" y="242" on="0"/>
        <pt x="542" y="115" on="0"/>
        <pt x="456" y="30" on="0"/>
        <pt x="344" y="-12" on="0"/>
        <pt x="279" y="-12" on="1"/>
        <pt x="233" y="-12" on="0"/>
        <pt x="153" y="15" on="0"/>
        <pt x="94" y="62" on="0"/>
        <pt x="60" y="127" on="0"/>
        <pt x="60" y="166" on="1"/>
        <pt x="60" y="237" on="0"/>
        <pt x="145" y="345" on="0"/>
        <pt x="235" y="375" on="1"/>
        <pt x="184" y="406" on="0"/>
        <pt x="139" y="477" on="0"/>
        <pt x="139" y="526" on="1"/>
        <pt x="139" y="568" on="0"/>
        <pt x="174" y="637" on="0"/>
        <pt x="235" y="686" on="0"/>
        <pt x="316" y="712" on="0"/>
        <pt x="362" y="712" on="1"/>
        <pt x="422" y="712" on="0"/>
        <pt x="512" y="679" on="0"/>
        <pt x="550" y="653" on="1"/>
        <pt x="500" y="580" on="1"/>
        <pt x="474" y="600" on="0"/>
        <pt x="405" y="632" on="0"/>
        <pt x="362" y="632" on="1"/>
        <pt x="335" y="632" on="0"/>
        <pt x="287" y="616" on="0"/>
        <pt x="250" y="587" on="0"/>
        <pt x="229" y="544" on="0"/>
        <pt x="229" y="517" on="1"/>
        <pt x="229" y="494" on="0"/>
        <pt x="251" y="452" on="0"/>
        <pt x="290" y="419" on="0"/>
        <pt x="346" y="400" on="0"/>
        <pt x="379" y="400" on="1"/>
        <pt x="637" y="400" on="1"/>
        <pt x="671" y="400" on="0"/>
        <pt x="711" y="417" on="0"/>
        <pt x="726" y="434" on="1"/>
        <pt x="751" y="370" on="1"/>
        <pt x="736" y="347" on="0"/>
        <pt x="683" y="327" on="0"/>
        <pt x="645" y="327" on="1"/>
      </contour>
      <contour>
        <pt x="297" y="70" on="1"/>
        <pt x="345" y="70" on="0"/>
        <pt x="426" y="106" on="0"/>
        <pt x="486" y="172" on="0"/>
        <pt x="525" y="267" on="0"/>
        <pt x="533" y="327" on="1"/>
        <pt x="365" y="327" on="1"/>
        <pt x="316" y="327" on="0"/>
        <pt x="238" y="305" on="0"/>
        <pt x="184" y="266" on="0"/>
        <pt x="155" y="215" on="0"/>
        <pt x="155" y="185" on="1"/>
        <pt x="155" y="159" on="0"/>
        <pt x="177" y="117" on="0"/>
        <pt x="216" y="87" on="0"/>
        <pt x="267" y="70" on="0"/>
      </contour>
    </TTGlyph>
    <TTGlyph name="aring" xMin="37" yMin="-12" xMax="545" yMax="822">
      <component glyphName="a" x="0" y="0" flags="0x204"/>
      <component glyphName="ring" x="234" y="0" flags="0x4"/>
    </TTGlyph>
    <TTGlyph name="asciicircum" xMin="124" yMin="510" xMax="536" yMax="740">
      <contour>
        <pt x="473" y="510" on="1"/>
        <pt x="352" y="656" on="1"/>
        <pt x="173" y="510" on="1"/>
        <pt x="124" y="572" on="1"/>
        <pt x="340" y="740" on="1"/>
        <pt x="382" y="740" on="1"/>
        <pt x="536" y="568" on="1"/>
      </contour>
    </TTGlyph>
    <TTGlyph name="asciitilde" xMin="76" yMin="253" xMax="524" yMax="390">
      <contour>
        <pt x="524" y="322" on="1"/>
        <pt x="515" y="313" on="0"/>
        <pt x="486" y="290" on="0"/>
        <pt x="450" y="268" on="0"/>
        <pt x="407" y="253" on="0"/>
        <pt x="384" y="253" on="1"/>
        <pt x="357" y="253" on="0"/>
        <pt x="311" y="271" on="0"/>
        <pt x="269" y="292" on="0"/>
        <pt x="227" y="310" on="0"/>
        <pt x="204" y="310" on="1"/>
        <pt x="174" y="310" on="0"/>
        <pt x="121" y="279" on="0"/>
        <pt x="100" y="262" on="1"/>
        <pt x="76" y="328" on="1"/>
        <pt x="102" y="350" on="0"/>
        <pt x="167" y="390" on="0"/>
        <pt x="205" y="390" on="1"/>
        <pt x="232" y="390" on="0"/>
        <pt x="277" y="372" on="0"/>
        <pt x="320" y="351" on="0"/>
        <pt x="362" y="333" on="0"/>
        <pt x="385" y="333" on="1"/>
        <pt x="404" y="333" on="0"/>
        <pt x="438" y="345" on="0"/>
        <pt x="466" y="362" on="0"/>
        <pt x="490" y="381" on="0"/>
        <pt x="499" y="388" on="1"/>
      </contour>
    </TTGlyph>
    <TTGlyph name="asterisk" xMin="101" yMin="418" xMax="438" yMax="740">
      <contour>
        <pt x="239" y="617" on="1"/>
        <pt x="230" y="740" on="1"/>
        <pt x="310" y="740" on="1"/>
        <pt x="301" y="619" on="1"/>
        <pt x="415" y="663" on="1"/>
        <pt x="438" y="588" on="1"/>
        <pt x="322" y="559" on="1"/>
        <pt x="399" y="465" on="1"/>
        <pt x="335" y="419" on="1"/>
        <pt x="271" y="522" on="1"/>
        <pt x="205" y="418" on="1"/>
        <pt x="142" y="465" on="1"/>
        <pt x="218" y="557" on="1"/>
        <pt x="101" y="587" on="1"/>
        <pt x="125" y="663" on="1"/>
      </contour>
    </TTGlyph>
    <TTGlyph name="at" xMin="72" yMin="-232" xMax="979" yMax="712">
      <contour>
        <pt x="724" y="52" on="1"/>
        <pt x="752" y="52" on="0"/>
        <pt x="811" y="93" on="0"/>
        <pt x="857" y="168" on="0"/>
        <pt x="887" y="273" on="0"/>
        <pt x="887" y="336" on="1"/>
        <pt x="887" y="400" on="0"/>
        <pt x="843" y="508" on="0"/>
        <pt x="763" y="587" on="0"/>
        <pt x="652" y="632" on="0"/>
        <pt x="585" y="632" on="1"/>
        <pt x="493" y="632" on="0"/>
        <pt x="338" y="559" on="0"/>
        <pt x="226" y="434" on="0"/>
        <pt x="164" y="266" on="0"/>
        <pt x="164" y="171" on="1"/>
        <pt x="164" y="96" on="0"/>
        <pt x="212" y="-24" on="0"/>
        <pt x="297" y="-108" on="0"/>
        <pt x="413" y="-152" on="0"/>
        <pt x="481" y="-152" on="1"/>
        <pt x="556" y="-152" on="0"/>
        <pt x="677" y="-115" on="0"/>
        <pt x="731" y="-90" on="1"/>
        <pt x="747" y="-168" on="1"/>
        <pt x="696" y="-193" on="0"/>
        <pt x="558" y="-232" on="0"/>
        <pt x="470" y="-232" on="1"/>
        <pt x="384" y="-232" on="0"/>
        <pt x="238" y="-179" on="0"/>
        <pt x="132" y="-77" on="0"/>
        <pt x="72" y="71" on="0"/>
        <pt x="72" y="166" on="1"/>
        <pt x="72" y="288" on="0"/>
        <pt x="150" y="489" on="0"/>
        <pt x="288" y="633" on="0"/>
        <pt x="478" y="712" on="0"/>
        <pt x="589" y="712" on="1"/>
        <pt x="680" y="712" on="0"/>
        <pt x="825" y="655" on="0"/>
        <pt x="925" y="556" on="0"/>
        <pt x="979" y="424" on="0"/>
        <pt x="979" y="348" on="1"/>
        <pt x="979" y="270" on="0"/>
        <pt x="936" y="138" on="0"/>
        <pt x="863" y="42" on="0"/>
        <pt x="766" y="-12" on="0"/>
        <pt x="712" y="-12" on="1"/>
        <pt x="658" y="-12" on="0"/>
        <pt x="603" y="42" on="0"/>
        <pt x="603" y="93" on="1"/>
        <pt x="603" y="102" on="1"/>
        <pt x="580" y="60" on="0"/>
        <pt x="502" y="0" on="0"/>
        <pt x="454" y="0" on="1"/>
        <pt x="424" y="0" on="0"/>
        <pt x="366" y="22" on="0"/>
        <pt x="320" y="68" on="0"/>
        <pt x="292" y="138" on="0"/>
        <pt x="292" y="186" on="1"/>
        <pt x="292" y="251" on="0"/>
        <pt x="335" y="359" on="0"/>
        <pt x="412" y="437" on="0"/>
        <pt x="519" y="480" on="0"/>
        <pt x="584" y="480" on="1"/>
        <pt x="636" y="480" on="0"/>
        <pt x="713" y="459" on="0"/>
        <pt x="738" y="448" on="1"/>
        <pt x="679" y="116" on="1"/>
        <pt x="678" y="111" on="0"/>
        <pt x="677" y="100" on="0"/>
        <pt x="677" y="95" on="1"/>
        <pt x="677" y="74" on="0"/>
        <pt x="702" y="52" on="0"/>
      </contour>
      <contour>
        <pt x="478" y="70" on="1"/>
        <pt x="501" y="70" on="0"/>
        <pt x="546" y="94" on="0"/>
        <pt x="584" y="136" on="0"/>
        <pt x="613" y="196" on="0"/>
        <pt x="619" y="232" on="1"/>
        <pt x="650" y="403" on="1"/>
        <pt x="636" y="408" on="0"/>
        <pt x="603" y="412" on="0"/>
        <pt x="577" y="412" on="1"/>
        <pt x="532" y="412" on="0"/>
        <pt x="457" y="381" on="0"/>
        <pt x="403" y="325" on="0"/>
        <pt x="373" y="246" on="0"/>
        <pt x="373" y="197" on="1"/>
        <pt x="373" y="136" on="0"/>
        <pt x="436" y="70" on="0"/>
      </contour>
    </TTGlyph>
    <TTGlyph name="atilde" xMin="37" yMin="-12" xMax="549" yMax="722">
      <component glyphName="a" x="0" y="0" flags="0x204"/>
      <component glyphName="tilde" x="178" y="0" flags="0x4"/>
    </TTGlyph>
    <TTGlyph name="b" xMin="37" yMin="-12" xMax="541" yMax="740">
      <contour>
        <pt x="541" y="340" on="1"/>
        <pt x="541" y="265" on="0"/>
        <pt x="488" y="137" on="0"/>
        <pt x="394" y="42" on="0"/>
        <pt x="264" y="-12" on="0"/>
        <pt x="187" y="-12" on="1"/>
        <pt x="140" y="-12" on="0"/>
        <pt x="63" y="5" on="0"/>
        <pt x="37" y="18" on="1"/>
        <pt x="164" y="740" on="1"/>
        <pt x="254" y="740" on="1"/>
        <pt x="197" y="415" on="1"/>
        <pt x="226" y="469" on="0"/>
        <pt x="317" y="532" on="0"/>
        <pt x="374" y="532" on="1"/>
        <pt x="410" y="532" on="0"/>
        <pt x="471" y="504" on="0"/>
        <pt x="516" y="453" on="0"/>
        <pt x="541" y="383" on="0"/>
      </contour>
      <contour>
        <pt x="351" y="454" on="1"/>
        <pt x="324" y="454" on="0"/>
        <pt x="266" y="427" on="0"/>
        <pt x="214" y="364" on="0"/>
        <pt x="170" y="262" on="0"/>
        <pt x="157" y="187" on="1"/>
        <pt x="137" y="76" on="1"/>
        <pt x="153" y="72" on="0"/>
        <pt x="188" y="68" on="0"/>
        <pt x="208" y="68" on="1"/>
        <pt x="259" y="68" on="0"/>
        <pt x="348" y="108" on="0"/>
        <pt x="412" y="178" on="0"/>
        <pt x="449" y="273" on="0"/>
        <pt x="449" y="328" on="1"/>
        <pt x="449" y="386" on="0"/>
        <pt x="395" y="454" on="0"/>
      </contour>
    </TTGlyph>
    <TTGlyph name="backslash" xMin="138" yMin="-71" xMax="351" yMax="773">
      <contour>
        <pt x="278" y="-71" on="1"/>
        <pt x="138" y="761" on="1"/>
        <pt x="211" y="773" on="1"/>
        <pt x="351" y="-59" on="1"/>
      </contour>
    </TTGlyph>
    <TTGlyph name="bar" xMin="45" yMin="-100" xMax="275" yMax="770">
      <contour>
        <pt x="45" y="-100" on="1"/>
        <pt x="197" y="770" on="1"/>
        <pt x="275" y="770" on="1"/>
        <pt x="123" y="-100" on="1"/>
      </contour>
    </TTGlyph>
    <TTGlyph name="braceleft" xMin="90" yMin="-118" xMax="458" yMax="758">
      <contour>
        <pt x="164" y="320" on="1"/>
        <pt x="208" y="308" on="0"/>
        <pt x="252" y="256" on="0"/>
        <pt x="252" y="208" on="1"/>
        <pt x="252" y="166" on="0"/>
        <pt x="235" y="85" on="0"/>
        <pt x="235" y="39" on="1"/>
        <pt x="235" y="-9" on="0"/>
        <pt x="273" y="-50" on="0"/>
        <pt x="314" y="-61" on="1"/>
        <pt x="304" y="-118" on="1"/>
        <pt x="235" y="-107" on="0"/>
        <pt x="151" y="-37" on="0"/>
        <pt x="151" y="37" on="1"/>
        <pt x="151" y="80" on="0"/>
        <pt x="164" y="157" on="0"/>
        <pt x="164" y="202" on="1"/>
        <pt x="164" y="244" on="0"/>
        <pt x="129" y="282" on="0"/>
        <pt x="90" y="288" on="1"/>
        <pt x="101" y="352" on="1"/>
        <pt x="126" y="358" on="0"/>
        <pt x="165" y="376" on="0"/>
        <pt x="194" y="412" on="0"/>
        <pt x="217" y="472" on="0"/>
        <pt x="226" y="522" on="1"/>
        <pt x="238" y="584" on="0"/>
        <pt x="273" y="668" on="0"/>
        <pt x="327" y="722" on="0"/>
        <pt x="404" y="751" on="0"/>
        <pt x="458" y="758" on="1"/>
        <pt x="448" y="701" on="1"/>
        <pt x="420" y="694" on="0"/>
        <pt x="378" y="672" on="0"/>
        <pt x="346" y="633" on="0"/>
        <pt x="324" y="572" on="0"/>
        <pt x="317" y="526" on="1"/>
        <pt x="308" y="469" on="0"/>
        <pt x="283" y="397" on="0"/>
        <pt x="248" y="353" on="0"/>
        <pt x="198" y="329" on="0"/>
      </contour>
    </TTGlyph>
    <TTGlyph name="braceright" xMin="6" yMin="-118" xMax="374" yMax="758">
      <contour>
        <pt x="363" y="288" on="1"/>
        <pt x="337" y="282" on="0"/>
        <pt x="299" y="264" on="0"/>
        <pt x="269" y="228" on="0"/>
        <pt x="246" y="167" on="0"/>
        <pt x="237" y="118" on="1"/>
        <pt x="225" y="56" on="0"/>
        <pt x="190" y="-28" on="0"/>
        <pt x="136" y="-82" on="0"/>
        <pt x="60" y="-111" on="0"/>
        <pt x="6" y="-118" on="1"/>
        <pt x="16" y="-61" on="1"/>
        <pt x="44" y="-54" on="0"/>
        <pt x="86" y="-32" on="0"/>
        <pt x="117" y="7" on="0"/>
        <pt x="139" y="67" on="0"/>
        <pt x="147" y="114" on="1"/>
        <pt x="156" y="171" on="0"/>
        <pt x="181" y="243" on="0"/>
        <pt x="216" y="287" on="0"/>
        <pt x="265" y="311" on="0"/>
        <pt x="300" y="320" on="1"/>
        <pt x="256" y="332" on="0"/>
        <pt x="212" y="384" on="0"/>
        <pt x="212" y="432" on="1"/>
        <pt x="212" y="474" on="0"/>
        <pt x="229" y="555" on="0"/>
        <pt x="229" y="601" on="1"/>
        <pt x="229" y="649" on="0"/>
        <pt x="191" y="690" on="0"/>
        <pt x="150" y="701" on="1"/>
        <pt x="160" y="758" on="1"/>
        <pt x="229" y="747" on="0"/>
        <pt x="313" y="677" on="0"/>
        <pt x="313" y="603" on="1"/>
        <pt x="313" y="560" on="0"/>
        <pt x="300" y="483" on="0"/>
        <pt x="300" y="438" on="1"/>
        <pt x="300" y="396" on="0"/>
        <pt x="335" y="358" on="0"/>
        <pt x="374" y="352" on="1"/>
      </contour>
    </TTGlyph>
    <TTGlyph name="bracketleft" xMin="34" yMin="-100" xMax="357" yMax="740">
      <contour>
        <pt x="34" y="-100" on="1"/>
        <pt x="183" y="740" on="1"/>
        <pt x="357" y="740" on="1"/>
        <pt x="343" y="665" on="1"/>
        <pt x="249" y="665" on="1"/>
        <pt x="126" y="-25" on="1"/>
        <pt x="222" y="-25" on="1"/>
        <pt x="208" y="-100" on="1"/>
      </contour>
    </TTGlyph>
    <TTGlyph name="bracketright" xMin="-57" yMin="-100" xMax="265" yMax="740">
      <contour>
        <pt x="116" y="-100" on="1"/>
        <pt x="-57" y="-100" on="1"/>
        <pt x="-43" y="-25" on="1"/>
        <pt x="49" y="-25" on="1"/>
        <pt x="171" y="665" on="1"/>
        <pt x="77" y="665" on="1"/>
        <pt x="91" y="740" on="1"/>
        <pt x="265" y="740" on="1"/>
      </contour>
    </TTGlyph>
    <TTGlyph name="brokenbar" xMin="45" yMin="-100" xMax="275" yMax="770">
      <contour>
        <pt x="107" y="257" on="1"/>
        <pt x="185" y="257" on="1"/>
        <pt x="123" y="-100" on="1"/>
        <pt x="45" y="-100" on="1"/>
      </contour>
      <contour>
        <pt x="197" y="770" on="1"/>
        <pt x="275" y="770" on="1"/>
        <pt x="214" y="422" on="1"/>
        <pt x="136" y="422" on="1"/>
      </contour>
    </TTGlyph>
    <TTGlyph name="bullet" xMin="100" yMin="218" xMax="380" yMax="492">
      <contour>
        <pt x="228" y="218" on="1"/>
        <pt x="199" y="218" on="0"/>
        <pt x="151" y="237" on="0"/>
        <pt x="118" y="270" on="0"/>
        <pt x="100" y="313" on="0"/>
        <pt x="100" y="336" on="1"/>
        <pt x="100" y="375" on="0"/>
        <pt x="125" y="433" on="0"/>
        <pt x="167" y="472" on="0"/>
        <pt x="222" y="492" on="0"/>
        <pt x="252" y="492" on="1"/>
        <pt x="281" y="492" on="0"/>
        <pt x="329" y="473" on="0"/>
        <pt x="362" y="440" on="0"/>
        <pt x="380" y="398" on="0"/>
        <pt x="380" y="374" on="1"/>
        <pt x="380" y="335" on="0"/>
        <pt x="355" y="277" on="0"/>
        <pt x="313" y="238" on="0"/>
        <pt x="258" y="218" on="0"/>
      </contour>
    </TTGlyph>
    <TTGlyph name="c" xMin="37" yMin="-12" xMax="468" yMax="532">
      <contour>
        <pt x="431" y="415" on="1"/>
        <pt x="405" y="431" on="0"/>
        <pt x="348" y="452" on="0"/>
        <pt x="313" y="452" on="1"/>
        <pt x="271" y="452" on="0"/>
        <pt x="203" y="418" on="0"/>
        <pt x="155" y="359" on="0"/>
        <pt x="129" y="279" on="0"/>
        <pt x="129" y="233" on="1"/>
        <pt x="129" y="157" on="0"/>
        <pt x="205" y="68" on="0"/>
        <pt x="271" y="68" on="1"/>
        <pt x="309" y="68" on="0"/>
        <pt x="367" y="86" on="0"/>
        <pt x="391" y="98" on="1"/>
        <pt x="402" y="19" on="1"/>
        <pt x="377" y="8" on="0"/>
        <pt x="306" y="-12" on="0"/>
        <pt x="256" y="-12" on="1"/>
        <pt x="207" y="-12" on="0"/>
        <pt x="127" y="21" on="0"/>
        <pt x="69" y="83" on="0"/>
        <pt x="37" y="168" on="0"/>
        <pt x="37" y="221" on="1"/>
        <pt x="37" y="284" on="0"/>
        <pt x="76" y="396" on="0"/>
        <pt x="150" y="482" on="0"/>
        <pt x="254" y="532" on="0"/>
        <pt x="320" y="532" on="1"/>
        <pt x="367" y="532" on="0"/>
        <pt x="439" y="509" on="0"/>
        <pt x="468" y="492" on="1"/>
      </contour>
    </TTGlyph>
    <TTGlyph name="caron" xMin="50" yMin="587" xMax="406" yMax="756">
      <contour>
        <pt x="50" y="681" on="1"/>
        <pt x="95" y="756" on="1"/>
        <pt x="219" y="650" on="1"/>
        <pt x="362" y="755" on="1"/>
        <pt x="406" y="681" on="1"/>
        <pt x="244" y="587" on="1"/>
        <pt x="180" y="587" on="1"/>
      </contour>
    </TTGlyph>
    <TTGlyph name="caron.cap" xMin="50" yMin="569" xMax="406" yMax="727">
      <contour>
        <pt x="50" y="656" on="1"/>
        <pt x="95" y="727" on="1"/>
        <pt x="218" y="632" on="1"/>
        <pt x="362" y="727" on="1"/>
        <pt x="406" y="656" on="1"/>
        <pt x="244" y="569" on="1"/>
        <pt x="180" y="569" on="1"/>
      </contour>
    </TTGlyph>
    <TTGlyph name="ccedilla" xMin="37" yMin="-244" xMax="468" yMax="532">
      <contour>
        <pt x="338" y="-140" on="1"/>
        <pt x="338" y="-166" on="0"/>
        <pt x="315" y="-204" on="0"/>
        <pt x="276" y="-231" on="0"/>
        <pt x="223" y="-244" on="0"/>
        <pt x="193" y="-244" on="1"/>
        <pt x="158" y="-244" on="0"/>
        <pt x="107" y="-232" on="0"/>
        <pt x="86" y="-221" on="1"/>
        <pt x="121" y="-158" on="1"/>
        <pt x="137" y="-167" on="0"/>
        <pt x="171" y="-178" on="0"/>
        <pt x="193" y="-178" on="1"/>
        <pt x="223" y="-178" on="0"/>
        <pt x="256" y="-158" on="0"/>
        <pt x="256" y="-139" on="1"/>
        <pt x="256" y="-121" on="0"/>
        <pt x="209" y="-95" on="0"/>
        <pt x="149" y="-95" on="1"/>
        <pt x="198" y="-5" on="1"/>
        <pt x="124" y="12" on="0"/>
        <pt x="37" y="132" on="0"/>
        <pt x="37" y="221" on="1"/>
        <pt x="37" y="284" on="0"/>
        <pt x="76" y="396" on="0"/>
        <pt x="150" y="482" on="0"/>
        <pt x="254" y="532" on="0"/>
        <pt x="320" y="532" on="1"/>
        <pt x="367" y="532" on="0"/>
        <pt x="439" y="509" on="0"/>
        <pt x="468" y="492" on="1"/>
        <pt x="431" y="415" on="1"/>
        <pt x="405" y="431" on="0"/>
        <pt x="348" y="452" on="0"/>
        <pt x="313" y="452" on="1"/>
        <pt x="271" y="452" on="0"/>
        <pt x="203" y="418" on="0"/>
        <pt x="155" y="359" on="0"/>
        <pt x="129" y="279" on="0"/>
        <pt x="129" y="233" on="1"/>
        <pt x="129" y="157" on="0"/>
        <pt x="205" y="68" on="0"/>
        <pt x="271" y="68" on="1"/>
        <pt x="309" y="68" on="0"/>
        <pt x="367" y="86" on="0"/>
        <pt x="391" y="98" on="1"/>
        <pt x="402" y="19" on="1"/>
        <pt x="379" y="8" on="0"/>
        <pt x="313" y="-10" on="0"/>
        <pt x="268" y="-12" on="1"/>
        <pt x="244" y="-59" on="1"/>
        <pt x="286" y="-59" on="0"/>
        <pt x="338" y="-104" on="0"/>
      </contour>
    </TTGlyph>
    <TTGlyph name="cedilla" xMin="30" yMin="-244" xMax="282" yMax="0">
      <contour>
        <pt x="282" y="-140" on="1"/>
        <pt x="282" y="-166" on="0"/>
        <pt x="259" y="-204" on="0"/>
        <pt x="220" y="-231" on="0"/>
        <pt x="167" y="-244" on="0"/>
        <pt x="137" y="-244" on="1"/>
        <pt x="102" y="-244" on="0"/>
        <pt x="51" y="-232" on="0"/>
        <pt x="30" y="-221" on="1"/>
        <pt x="65" y="-158" on="1"/>
        <pt x="81" y="-167" on="0"/>
        <pt x="115" y="-178" on="0"/>
        <pt x="137" y="-178" on="1"/>
        <pt x="167" y="-178" on="0"/>
        <pt x="200" y="-158" on="0"/>
        <pt x="200" y="-139" on="1"/>
        <pt x="200" y="-121" on="0"/>
        <pt x="153" y="-95" on="0"/>
        <pt x="93" y="-95" on="1"/>
        <pt x="145" y="0" on="1"/>
        <pt x="219" y="0" on="1"/>
        <pt x="188" y="-59" on="1"/>
        <pt x="230" y="-59" on="0"/>
        <pt x="282" y="-104" on="0"/>
      </contour>
    </TTGlyph>
    <TTGlyph name="cent" xMin="35" yMin="-95" xMax="466" yMax="666">
      <contour>
        <pt x="429" y="444" on="1"/>
        <pt x="403" y="460" on="0"/>
        <pt x="346" y="481" on="0"/>
        <pt x="311" y="481" on="1"/>
        <pt x="269" y="481" on="0"/>
        <pt x="201" y="447" on="0"/>
        <pt x="153" y="388" on="0"/>
        <pt x="127" y="308" on="0"/>
        <pt x="127" y="262" on="1"/>
        <pt x="127" y="186" on="0"/>
        <pt x="203" y="97" on="0"/>
        <pt x="269" y="97" on="1"/>
        <pt x="307" y="97" on="0"/>
        <pt x="365" y="115" on="0"/>
        <pt x="389" y="127" on="1"/>
        <pt x="400" y="48" on="1"/>
        <pt x="377" y="36" on="0"/>
        <pt x="310" y="19" on="0"/>
        <pt x="266" y="17" on="1"/>
        <pt x="255" y="-95" on="1"/>
        <pt x="167" y="-95" on="1"/>
        <pt x="197" y="23" on="1"/>
        <pt x="123" y="41" on="0"/>
        <pt x="35" y="160" on="0"/>
        <pt x="35" y="250" on="1"/>
        <pt x="35" y="309" on="0"/>
        <pt x="70" y="417" on="0"/>
        <pt x="136" y="501" on="0"/>
        <pt x="231" y="554" on="0"/>
        <pt x="290" y="560" on="1"/>
        <pt x="301" y="666" on="1"/>
        <pt x="389" y="666" on="1"/>
        <pt x="362" y="558" on="1"/>
        <pt x="393" y="553" on="0"/>
        <pt x="444" y="534" on="0"/>
        <pt x="466" y="521" on="1"/>
      </contour>
    </TTGlyph>
    <TTGlyph name="circumflex" xMin="50" yMin="572" xMax="408" yMax="740">
      <contour>
        <pt x="84" y="572" on="1"/>
        <pt x="50" y="646" on="1"/>
        <pt x="212" y="740" on="1"/>
        <pt x="276" y="740" on="1"/>
        <pt x="408" y="633" on="1"/>
        <pt x="352" y="572" on="1"/>
        <pt x="237" y="677" on="1"/>
      </contour>
    </TTGlyph>
    <TTGlyph name="circumflex.cap" xMin="50" yMin="572" xMax="408" yMax="730">
      <contour>
        <pt x="84" y="572" on="1"/>
        <pt x="50" y="647" on="1"/>
        <pt x="212" y="730" on="1"/>
        <pt x="276" y="730" on="1"/>
        <pt x="408" y="634" on="1"/>
        <pt x="352" y="572" on="1"/>
        <pt x="234" y="667" on="1"/>
      </contour>
    </TTGlyph>
    <TTGlyph name="colon" xMin="51" yMin="-12" xMax="260" yMax="532">
      <component glyphName="period" x="-6" y="0" flags="0x204"/>
      <component glyphName="period" x="67" y="410" flags="0x4"/>
    </TTGlyph>
    <TTGlyph name="comma" xMin="-35" yMin="-160" xMax="193" yMax="90">
      <contour>
        <pt x="193" y="65" on="1"/>
        <pt x="171" y="-12" on="0"/>
        <pt x="78" y="-125" on="0"/>
        <pt x="12" y="-160" on="1"/>
        <pt x="-35" y="-132" on="1"/>
        <pt x="14" y="-81" on="0"/>
        <pt x="81" y="23" on="0"/>
        <pt x="107" y="90" on="1"/>
      </contour>
    </TTGlyph>
    <TTGlyph name="commaaccent" xMin="40" yMin="-242" xMax="234" yMax="-30">
      <contour>
        <pt x="234" y="-51" on="1"/>
        <pt x="215" y="-117" on="0"/>
        <pt x="136" y="-212" on="0"/>
        <pt x="80" y="-242" on="1"/>
        <pt x="40" y="-218" on="1"/>
        <pt x="82" y="-175" on="0"/>
        <pt x="139" y="-87" on="0"/>
        <pt x="161" y="-30" on="1"/>
      </contour>
    </TTGlyph>
    <TTGlyph name="copyright" xMin="32" yMin="-12" xMax="733" yMax="712">
      <contour>
        <pt x="422" y="501" on="1"/>
        <pt x="392" y="501" on="0"/>
        <pt x="341" y="474" on="0"/>
        <pt x="304" y="426" on="0"/>
        <pt x="282" y="359" on="0"/>
        <pt x="282" y="319" on="1"/>
        <pt x="282" y="262" on="0"/>
        <pt x="337" y="203" on="0"/>
        <pt x="380" y="203" on="1"/>
        <pt x="404" y="203" on="0"/>
        <pt x="453" y="220" on="0"/>
        <pt x="480" y="236" on="1"/>
        <pt x="494" y="157" on="1"/>
        <pt x="468" y="143" on="0"/>
        <pt x="406" y="126" on="0"/>
        <pt x="371" y="126" on="1"/>
        <pt x="291" y="126" on="0"/>
        <pt x="196" y="223" on="0"/>
        <pt x="196" y="314" on="1"/>
        <pt x="196" y="370" on="0"/>
        <pt x="230" y="466" on="0"/>
        <pt x="290" y="537" on="0"/>
        <pt x="374" y="578" on="0"/>
        <pt x="425" y="578" on="1"/>
        <pt x="462" y="578" on="0"/>
        <pt x="522" y="557" on="0"/>
        <pt x="548" y="540" on="1"/>
        <pt x="511" y="470" on="1"/>
        <pt x="494" y="482" on="0"/>
        <pt x="450" y="501" on="0"/>
      </contour>
      <contour>
        <pt x="357" y="51" on="1"/>
        <pt x="426" y="51" on="0"/>
        <pt x="538" y="103" on="0"/>
        <pt x="617" y="196" on="0"/>
        <pt x="659" y="324" on="0"/>
        <pt x="659" y="399" on="1"/>
        <pt x="659" y="453" on="0"/>
        <pt x="625" y="545" on="0"/>
        <pt x="561" y="612" on="0"/>
        <pt x="470" y="649" on="0"/>
        <pt x="413" y="649" on="1"/>
        <pt x="342" y="649" on="0"/>
        <pt x="229" y="597" on="0"/>
        <pt x="149" y="504" on="0"/>
        <pt x="106" y="377" on="0"/>
        <pt x="106" y="301" on="1"/>
        <pt x="106" y="246" on="0"/>
        <pt x="140" y="154" on="0"/>
        <pt x="205" y="88" on="0"/>
        <pt x="298" y="51" on="0"/>
      </contour>
      <contour>
        <pt x="349" y="-12" on="1"/>
        <pt x="274" y="-12" on="0"/>
        <pt x="156" y="34" on="0"/>
        <pt x="75" y="116" on="0"/>
        <pt x="32" y="231" on="0"/>
        <pt x="32" y="300" on="1"/>
        <pt x="32" y="384" on="0"/>
        <pt x="84" y="534" on="0"/>
        <pt x="182" y="647" on="0"/>
        <pt x="325" y="712" on="0"/>
        <pt x="416" y="712" on="1"/>
        <pt x="492" y="712" on="0"/>
        <pt x="610" y="666" on="0"/>
        <pt x="691" y="583" on="0"/>
        <pt x="733" y="469" on="0"/>
        <pt x="733" y="400" on="1"/>
        <pt x="733" y="316" on="0"/>
        <pt x="682" y="167" on="0"/>
        <pt x="584" y="54" on="0"/>
        <pt x="441" y="-12" on="0"/>
      </contour>
    </TTGlyph>
    <TTGlyph name="currency" xMin="61" yMin="90" xMax="538" yMax="586">
      <contour>
        <pt x="326" y="532" on="1"/>
        <pt x="348" y="532" on="0"/>
        <pt x="389" y="521" on="0"/>
        <pt x="408" y="512" on="1"/>
        <pt x="477" y="586" on="1"/>
        <pt x="538" y="531" on="1"/>
        <pt x="466" y="463" on="1"/>
        <pt x="482" y="442" on="0"/>
        <pt x="500" y="389" on="0"/>
        <pt x="500" y="360" on="1"/>
        <pt x="500" y="314" on="0"/>
        <pt x="467" y="237" on="0"/>
        <pt x="438" y="208" on="1"/>
        <pt x="486" y="140" on="1"/>
        <pt x="417" y="90" on="1"/>
        <pt x="374" y="163" on="1"/>
        <pt x="330" y="144" on="0"/>
        <pt x="283" y="144" on="1"/>
        <pt x="233" y="144" on="0"/>
        <pt x="193" y="167" on="1"/>
        <pt x="122" y="90" on="1"/>
        <pt x="61" y="145" on="1"/>
        <pt x="137" y="217" on="1"/>
        <pt x="106" y="260" on="0"/>
        <pt x="106" y="316" on="1"/>
        <pt x="106" y="362" on="0"/>
        <pt x="139" y="439" on="0"/>
        <pt x="168" y="468" on="1"/>
        <pt x="121" y="536" on="1"/>
        <pt x="190" y="586" on="1"/>
        <pt x="232" y="512" on="1"/>
        <pt x="277" y="532" on="0"/>
      </contour>
      <contour>
        <pt x="315" y="460" on="1"/>
        <pt x="285" y="460" on="0"/>
        <pt x="239" y="438" on="0"/>
        <pt x="206" y="400" on="0"/>
        <pt x="189" y="350" on="0"/>
        <pt x="189" y="323" on="1"/>
        <pt x="189" y="276" on="0"/>
        <pt x="248" y="216" on="0"/>
        <pt x="293" y="216" on="1"/>
        <pt x="323" y="216" on="0"/>
        <pt x="369" y="238" on="0"/>
        <pt x="400" y="276" on="0"/>
        <pt x="417" y="326" on="0"/>
        <pt x="417" y="353" on="1"/>
        <pt x="417" y="400" on="0"/>
        <pt x="360" y="460" on="0"/>
      </contour>
    </TTGlyph>
    <TTGlyph name="d" xMin="42" yMin="-12" xMax="600" yMax="740">
      <contour>
        <pt x="519" y="-5" on="1"/>
        <pt x="465" y="-5" on="0"/>
        <pt x="408" y="48" on="0"/>
        <pt x="408" y="105" on="1"/>
        <pt x="379" y="57" on="0"/>
        <pt x="291" y="-12" on="0"/>
        <pt x="233" y="-12" on="1"/>
        <pt x="195" y="-12" on="0"/>
        <pt x="126" y="18" on="0"/>
        <pt x="73" y="74" on="0"/>
        <pt x="42" y="155" on="0"/>
        <pt x="42" y="205" on="1"/>
        <pt x="42" y="281" on="0"/>
        <pt x="89" y="403" on="0"/>
        <pt x="164" y="487" on="0"/>
        <pt x="258" y="532" on="0"/>
        <pt x="306" y="532" on="1"/>
        <pt x="360" y="532" on="0"/>
        <pt x="436" y="480" on="0"/>
        <pt x="457" y="442" on="1"/>
        <pt x="510" y="740" on="1"/>
        <pt x="600" y="740" on="1"/>
        <pt x="494" y="141" on="1"/>
        <pt x="493" y="136" on="0"/>
        <pt x="492" y="123" on="0"/>
        <pt x="492" y="116" on="1"/>
        <pt x="492" y="88" on="0"/>
        <pt x="524" y="65" on="0"/>
        <pt x="550" y="65" on="1"/>
      </contour>
      <contour>
        <pt x="257" y="68" on="1"/>
        <pt x="285" y="68" on="0"/>
        <pt x="339" y="95" on="0"/>
        <pt x="384" y="146" on="0"/>
        <pt x="417" y="218" on="0"/>
        <pt x="425" y="262" on="1"/>
        <pt x="443" y="365" on="1"/>
        <pt x="423" y="407" on="0"/>
        <pt x="355" y="454" on="0"/>
        <pt x="314" y="454" on="1"/>
        <pt x="279" y="454" on="0"/>
        <pt x="214" y="422" on="0"/>
        <pt x="164" y="361" on="0"/>
        <pt x="134" y="273" on="0"/>
        <pt x="134" y="218" on="1"/>
        <pt x="134" y="181" on="0"/>
        <pt x="155" y="125" on="0"/>
        <pt x="189" y="87" on="0"/>
        <pt x="233" y="68" on="0"/>
      </contour>
    </TTGlyph>
    <TTGlyph name="degree" xMin="74" yMin="458" xMax="366" yMax="740">
      <contour>
        <pt x="208" y="458" on="1"/>
        <pt x="178" y="458" on="0"/>
        <pt x="128" y="478" on="0"/>
        <pt x="93" y="512" on="0"/>
        <pt x="74" y="558" on="0"/>
        <pt x="74" y="584" on="1"/>
        <pt x="74" y="620" on="0"/>
        <pt x="100" y="677" on="0"/>
        <pt x="143" y="718" on="0"/>
        <pt x="200" y="740" on="0"/>
        <pt x="232" y="740" on="1"/>
        <pt x="262" y="740" on="0"/>
        <pt x="312" y="720" on="0"/>
        <pt x="347" y="686" on="0"/>
        <pt x="366" y="640" on="0"/>
        <pt x="366" y="614" on="1"/>
        <pt x="366" y="578" on="0"/>
        <pt x="340" y="521" on="0"/>
        <pt x="297" y="480" on="0"/>
        <pt x="239" y="458" on="0"/>
      </contour>
      <contour>
        <pt x="215" y="532" on="1"/>
        <pt x="242" y="532" on="0"/>
        <pt x="286" y="572" on="0"/>
        <pt x="286" y="607" on="1"/>
        <pt x="286" y="630" on="0"/>
        <pt x="253" y="666" on="0"/>
        <pt x="224" y="666" on="1"/>
        <pt x="197" y="666" on="0"/>
        <pt x="154" y="626" on="0"/>
        <pt x="154" y="591" on="1"/>
        <pt x="154" y="568" on="0"/>
        <pt x="186" y="532" on="0"/>
      </contour>
    </TTGlyph>
    <TTGlyph name="dieresis" xMin="40" yMin="607" xMax="340" yMax="727">
      <contour>
        <pt x="94" y="607" on="1"/>
        <pt x="68" y="607" on="0"/>
        <pt x="40" y="639" on="0"/>
        <pt x="40" y="659" on="1"/>
        <pt x="40" y="689" on="0"/>
        <pt x="78" y="727" on="0"/>
        <pt x="107" y="727" on="1"/>
        <pt x="133" y="727" on="0"/>
        <pt x="161" y="695" on="0"/>
        <pt x="161" y="675" on="1"/>
        <pt x="161" y="645" on="0"/>
        <pt x="123" y="607" on="0"/>
      </contour>
      <contour>
        <pt x="273" y="607" on="1"/>
        <pt x="247" y="607" on="0"/>
        <pt x="219" y="639" on="0"/>
        <pt x="219" y="659" on="1"/>
        <pt x="219" y="689" on="0"/>
        <pt x="257" y="727" on="0"/>
        <pt x="286" y="727" on="1"/>
        <pt x="312" y="727" on="0"/>
        <pt x="340" y="695" on="0"/>
        <pt x="340" y="675" on="1"/>
        <pt x="340" y="645" on="0"/>
        <pt x="302" y="607" on="0"/>
      </contour>
    </TTGlyph>
    <TTGlyph name="dieresis.cap" xMin="40" yMin="577" xMax="340" yMax="697">
      <contour>
        <pt x="94" y="577" on="1"/>
        <pt x="68" y="577" on="0"/>
        <pt x="40" y="609" on="0"/>
        <pt x="40" y="629" on="1"/>
        <pt x="40" y="659" on="0"/>
        <pt x="78" y="697" on="0"/>
        <pt x="107" y="697" on="1"/>
        <pt x="133" y="697" on="0"/>
        <pt x="161" y="665" on="0"/>
        <pt x="161" y="645" on="1"/>
        <pt x="161" y="615" on="0"/>
        <pt x="123" y="577" on="0"/>
      </contour>
      <contour>
        <pt x="273" y="577" on="1"/>
        <pt x="247" y="577" on="0"/>
        <pt x="219" y="609" on="0"/>
        <pt x="219" y="629" on="1"/>
        <pt x="219" y="659" on="0"/>
        <pt x="257" y="697" on="0"/>
        <pt x="286" y="697" on="1"/>
        <pt x="312" y="697" on="0"/>
        <pt x="340" y="665" on="0"/>
        <pt x="340" y="645" on="1"/>
        <pt x="340" y="615" on="0"/>
        <pt x="302" y="577" on="0"/>
      </contour>
    </TTGlyph>
    <TTGlyph name="divide" xMin="127" yMin="71" xMax="482" yMax="615">
      <contour>
        <pt x="127" y="302" on="1"/>
        <pt x="142" y="384" on="1"/>
        <pt x="482" y="384" on="1"/>
        <pt x="467" y="302" on="1"/>
      </contour>
      <contour>
        <pt x="260" y="71" on="1"/>
        <pt x="231" y="71" on="0"/>
        <pt x="198" y="105" on="0"/>
        <pt x="198" y="128" on="1"/>
        <pt x="198" y="165" on="0"/>
        <pt x="243" y="205" on="0"/>
        <pt x="272" y="205" on="1"/>
        <pt x="301" y="205" on="0"/>
        <pt x="334" y="171" on="0"/>
        <pt x="334" y="148" on="1"/>
        <pt x="334" y="111" on="0"/>
        <pt x="289" y="71" on="0"/>
      </contour>
      <contour>
        <pt x="334" y="481" on="1"/>
        <pt x="305" y="481" on="0"/>
        <pt x="272" y="515" on="0"/>
        <pt x="272" y="538" on="1"/>
        <pt x="272" y="575" on="0"/>
        <pt x="317" y="615" on="0"/>
        <pt x="346" y="615" on="1"/>
        <pt x="375" y="615" on="0"/>
        <pt x="408" y="581" on="0"/>
        <pt x="408" y="558" on="1"/>
        <pt x="408" y="521" on="0"/>
        <pt x="363" y="481" on="0"/>
      </contour>
    </TTGlyph>
    <TTGlyph name="dollar" xMin="58" yMin="-95" xMax="552" yMax="795">
      <contour>
        <pt x="418" y="679" on="1"/>
        <pt x="456" y="673" on="0"/>
        <pt x="522" y="648" on="0"/>
        <pt x="552" y="631" on="1"/>
        <pt x="506" y="559" on="1"/>
        <pt x="473" y="579" on="0"/>
        <pt x="403" y="608" on="0"/>
        <pt x="355" y="608" on="1"/>
        <pt x="300" y="608" on="0"/>
        <pt x="231" y="561" on="0"/>
        <pt x="231" y="523" on="1"/>
        <pt x="231" y="491" on="0"/>
        <pt x="280" y="436" on="0"/>
        <pt x="344" y="402" on="1"/>
        <pt x="388" y="378" on="0"/>
        <pt x="447" y="332" on="0"/>
        <pt x="483" y="284" on="0"/>
        <pt x="498" y="231" on="0"/>
        <pt x="498" y="200" on="1"/>
        <pt x="498" y="159" on="0"/>
        <pt x="469" y="95" on="0"/>
        <pt x="416" y="49" on="0"/>
        <pt x="343" y="22" on="0"/>
        <pt x="299" y="18" on="1"/>
        <pt x="288" y="-95" on="1"/>
        <pt x="200" y="-95" on="1"/>
        <pt x="229" y="18" on="1"/>
        <pt x="176" y="23" on="0"/>
        <pt x="93" y="57" on="0"/>
        <pt x="58" y="86" on="1"/>
        <pt x="115" y="157" on="1"/>
        <pt x="147" y="128" on="0"/>
        <pt x="225" y="93" on="0"/>
        <pt x="276" y="93" on="1"/>
        <pt x="336" y="93" on="0"/>
        <pt x="407" y="146" on="0"/>
        <pt x="407" y="191" on="1"/>
        <pt x="407" y="210" on="0"/>
        <pt x="396" y="242" on="0"/>
        <pt x="366" y="275" on="0"/>
        <pt x="316" y="311" on="0"/>
        <pt x="277" y="333" on="1"/>
        <pt x="241" y="354" on="0"/>
        <pt x="190" y="392" on="0"/>
        <pt x="159" y="434" on="0"/>
        <pt x="144" y="483" on="0"/>
        <pt x="144" y="513" on="1"/>
        <pt x="144" y="549" on="0"/>
        <pt x="174" y="610" on="0"/>
        <pt x="228" y="654" on="0"/>
        <pt x="303" y="680" on="0"/>
        <pt x="348" y="682" on="1"/>
        <pt x="359" y="795" on="1"/>
        <pt x="447" y="795" on="1"/>
      </contour>
    </TTGlyph>
    <TTGlyph name="dotaccentcmb" xMin="40" yMin="609" xMax="167" yMax="735">
      <contour>
        <pt x="97" y="609" on="1"/>
        <pt x="69" y="609" on="0"/>
        <pt x="40" y="642" on="0"/>
        <pt x="40" y="664" on="1"/>
        <pt x="40" y="696" on="0"/>
        <pt x="80" y="735" on="0"/>
        <pt x="110" y="735" on="1"/>
        <pt x="138" y="735" on="0"/>
        <pt x="167" y="702" on="0"/>
        <pt x="167" y="680" on="1"/>
        <pt x="167" y="648" on="0"/>
        <pt x="127" y="609" on="0"/>
      </contour>
    </TTGlyph>
    <TTGlyph name="dotaccentcmb.cap" xMin="40" yMin="574" xMax="167" yMax="700">
      <contour>
        <pt x="97" y="574" on="1"/>
        <pt x="69" y="574" on="0"/>
        <pt x="40" y="607" on="0"/>
        <pt x="40" y="629" on="1"/>
        <pt x="40" y="661" on="0"/>
        <pt x="80" y="700" on="0"/>
        <pt x="110" y="700" on="1"/>
        <pt x="138" y="700" on="0"/>
        <pt x="167" y="667" on="0"/>
        <pt x="167" y="645" on="1"/>
        <pt x="167" y="613" on="0"/>
        <pt x="127" y="574" on="0"/>
      </contour>
    </TTGlyph>
    <TTGlyph name="dotlessi" xMin="37" yMin="0" xMax="218" yMax="520">
      <contour>
        <pt x="127" y="0" on="1"/>
        <pt x="37" y="0" on="1"/>
        <pt x="128" y="520" on="1"/>
        <pt x="218" y="520" on="1"/>
      </contour>
    </TTGlyph>
    <TTGlyph name="dotlessj" xMin="-153" yMin="-232" xMax="226" yMax="520">
      <contour>
        <pt x="136" y="520" on="1"/>
        <pt x="226" y="520" on="1"/>
        <pt x="122" y="-72" on="1"/>
        <pt x="114" y="-116" on="0"/>
        <pt x="84" y="-177" on="0"/>
        <pt x="41" y="-215" on="0"/>
        <pt x="-13" y="-232" on="0"/>
        <pt x="-44" y="-232" on="1"/>
        <pt x="-77" y="-232" on="0"/>
        <pt x="-132" y="-214" on="0"/>
        <pt x="-153" y="-198" on="1"/>
        <pt x="-117" y="-124" on="1"/>
        <pt x="-103" y="-138" on="0"/>
        <pt x="-66" y="-154" on="0"/>
        <pt x="-43" y="-154" on="1"/>
        <pt x="-16" y="-154" on="0"/>
        <pt x="23" y="-116" on="0"/>
        <pt x="31" y="-74" on="1"/>
      </contour>
    </TTGlyph>
    <TTGlyph name="e" xMin="37" yMin="-12" xMax="501" yMax="532">
      <contour>
        <pt x="261" y="-12" on="1"/>
        <pt x="211" y="-12" on="0"/>
        <pt x="129" y="21" on="0"/>
        <pt x="70" y="82" on="0"/>
        <pt x="37" y="170" on="0"/>
        <pt x="37" y="225" on="1"/>
        <pt x="37" y="287" on="0"/>
        <pt x="77" y="399" on="0"/>
        <pt x="150" y="483" on="0"/>
        <pt x="254" y="532" on="0"/>
        <pt x="318" y="532" on="1"/>
        <pt x="361" y="532" on="0"/>
        <pt x="429" y="506" on="0"/>
        <pt x="476" y="464" on="0"/>
        <pt x="501" y="408" on="0"/>
        <pt x="501" y="378" on="1"/>
        <pt x="501" y="322" on="0"/>
        <pt x="448" y="252" on="0"/>
        <pt x="368" y="211" on="0"/>
        <pt x="272" y="196" on="0"/>
        <pt x="229" y="196" on="1"/>
        <pt x="202" y="196" on="0"/>
        <pt x="149" y="201" on="0"/>
        <pt x="129" y="204" on="1"/>
        <pt x="137" y="138" on="0"/>
        <pt x="214" y="68" on="0"/>
        <pt x="276" y="68" on="1"/>
        <pt x="326" y="68" on="0"/>
        <pt x="404" y="94" on="0"/>
        <pt x="431" y="107" on="1"/>
        <pt x="439" y="27" on="1"/>
        <pt x="409" y="13" on="0"/>
        <pt x="318" y="-12" on="0"/>
      </contour>
      <contour>
        <pt x="311" y="456" on="1"/>
        <pt x="276" y="456" on="0"/>
        <pt x="215" y="429" on="0"/>
        <pt x="168" y="381" on="0"/>
        <pt x="137" y="315" on="0"/>
        <pt x="131" y="276" on="1"/>
        <pt x="154" y="271" on="0"/>
        <pt x="200" y="267" on="0"/>
        <pt x="229" y="267" on="1"/>
        <pt x="314" y="267" on="0"/>
        <pt x="411" y="314" on="0"/>
        <pt x="411" y="371" on="1"/>
        <pt x="411" y="406" on="0"/>
        <pt x="356" y="456" on="0"/>
      </contour>
    </TTGlyph>
    <TTGlyph name="eacute" xMin="37" yMin="-12" xMax="501" yMax="760">
      <component glyphName="e" x="0" y="0" flags="0x204"/>
      <component glyphName="acute" x="186" y="0" flags="0x4"/>
    </TTGlyph>
    <TTGlyph name="ecircumflex" xMin="37" yMin="-12" xMax="501" yMax="740">
      <component glyphName="e" x="0" y="0" flags="0x204"/>
      <component glyphName="circumflex" x="93" y="0" flags="0x4"/>
    </TTGlyph>
    <TTGlyph name="edieresis" xMin="37" yMin="-12" xMax="501" yMax="727">
      <component glyphName="e" x="0" y="0" flags="0x204"/>
      <component glyphName="dieresis" x="151" y="0" flags="0x4"/>
    </TTGlyph>
    <TTGlyph name="egrave" xMin="37" yMin="-12" xMax="501" yMax="760">
      <component glyphName="e" x="0" y="0" flags="0x204"/>
      <component glyphName="grave" x="191" y="0" flags="0x4"/>
    </TTGlyph>
    <TTGlyph name="eight" xMin="41" yMin="-12" xMax="558" yMax="712">
      <contour>
        <pt x="234" y="384" on="1"/>
        <pt x="186" y="414" on="0"/>
        <pt x="139" y="483" on="0"/>
        <pt x="139" y="531" on="1"/>
        <pt x="139" y="570" on="0"/>
        <pt x="174" y="636" on="0"/>
        <pt x="233" y="685" on="0"/>
        <pt x="313" y="712" on="0"/>
        <pt x="358" y="712" on="1"/>
        <pt x="404" y="712" on="0"/>
        <pt x="478" y="685" on="0"/>
        <pt x="530" y="639" on="0"/>
        <pt x="558" y="580" on="0"/>
        <pt x="558" y="549" on="1"/>
        <pt x="558" y="483" on="0"/>
        <pt x="479" y="402" on="0"/>
        <pt x="403" y="374" on="1"/>
        <pt x="471" y="342" on="0"/>
        <pt x="536" y="260" on="0"/>
        <pt x="536" y="201" on="1"/>
        <pt x="536" y="152" on="0"/>
        <pt x="495" y="73" on="0"/>
        <pt x="423" y="18" on="0"/>
        <pt x="326" y="-12" on="0"/>
        <pt x="270" y="-12" on="1"/>
        <pt x="221" y="-12" on="0"/>
        <pt x="137" y="15" on="0"/>
        <pt x="76" y="63" on="0"/>
        <pt x="41" y="129" on="0"/>
        <pt x="41" y="169" on="1"/>
        <pt x="41" y="248" on="0"/>
        <pt x="137" y="352" on="0"/>
      </contour>
      <contour>
        <pt x="280" y="68" on="1"/>
        <pt x="311" y="68" on="0"/>
        <pt x="370" y="86" on="0"/>
        <pt x="414" y="119" on="0"/>
        <pt x="441" y="167" on="0"/>
        <pt x="441" y="197" on="1"/>
        <pt x="441" y="241" on="0"/>
        <pt x="371" y="315" on="0"/>
        <pt x="306" y="339" on="1"/>
        <pt x="273" y="332" on="0"/>
        <pt x="212" y="306" on="0"/>
        <pt x="165" y="267" on="0"/>
        <pt x="136" y="215" on="0"/>
        <pt x="136" y="183" on="1"/>
        <pt x="136" y="159" on="0"/>
        <pt x="158" y="117" on="0"/>
        <pt x="196" y="86" on="0"/>
        <pt x="249" y="68" on="0"/>
      </contour>
      <contour>
        <pt x="353" y="638" on="1"/>
        <pt x="330" y="638" on="0"/>
        <pt x="285" y="625" on="0"/>
        <pt x="250" y="598" on="0"/>
        <pt x="229" y="558" on="0"/>
        <pt x="229" y="532" on="1"/>
        <pt x="229" y="494" on="0"/>
        <pt x="290" y="433" on="0"/>
        <pt x="335" y="411" on="1"/>
        <pt x="362" y="419" on="0"/>
        <pt x="411" y="444" on="0"/>
        <pt x="447" y="477" on="0"/>
        <pt x="468" y="516" on="0"/>
        <pt x="468" y="538" on="1"/>
        <pt x="468" y="558" on="0"/>
        <pt x="451" y="595" on="0"/>
        <pt x="421" y="622" on="0"/>
        <pt x="379" y="638" on="0"/>
      </contour>
    </TTGlyph>
    <TTGlyph name="emdash" xMin="77" yMin="302" xMax="692" yMax="384">
      <contour>
        <pt x="77" y="302" on="1"/>
        <pt x="92" y="384" on="1"/>
        <pt x="692" y="384" on="1"/>
        <pt x="677" y="302" on="1"/>
      </contour>
    </TTGlyph>
    <TTGlyph name="endash" xMin="72" yMin="302" xMax="547" yMax="384">
      <contour>
        <pt x="72" y="302" on="1"/>
        <pt x="87" y="384" on="1"/>
        <pt x="547" y="384" on="1"/>
        <pt x="532" y="302" on="1"/>
      </contour>
    </TTGlyph>
    <TTGlyph name="equal" xMin="85" yMin="213" xMax="525" yMax="474">
      <contour>
        <pt x="116" y="395" on="1"/>
        <pt x="130" y="474" on="1"/>
        <pt x="525" y="474" on="1"/>
        <pt x="511" y="395" on="1"/>
      </contour>
      <contour>
        <pt x="85" y="213" on="1"/>
        <pt x="99" y="292" on="1"/>
        <pt x="494" y="292" on="1"/>
        <pt x="480" y="213" on="1"/>
      </contour>
    </TTGlyph>
    <TTGlyph name="eth" xMin="27" yMin="-12" xMax="513" yMax="758">
      <contour>
        <pt x="228" y="546" on="1"/>
        <pt x="299" y="612" on="1"/>
        <pt x="279" y="621" on="0"/>
        <pt x="235" y="631" on="0"/>
        <pt x="210" y="631" on="1"/>
        <pt x="184" y="631" on="0"/>
        <pt x="166" y="628" on="1"/>
        <pt x="180" y="710" on="1"/>
        <pt x="188" y="711" on="0"/>
        <pt x="204" y="712" on="0"/>
        <pt x="212" y="712" on="1"/>
        <pt x="256" y="712" on="0"/>
        <pt x="326" y="694" on="0"/>
        <pt x="360" y="674" on="1"/>
        <pt x="432" y="758" on="1"/>
        <pt x="489" y="710" on="1"/>
        <pt x="412" y="636" on="1"/>
        <pt x="513" y="542" on="0"/>
        <pt x="513" y="367" on="1"/>
        <pt x="513" y="284" on="0"/>
        <pt x="471" y="145" on="0"/>
        <pt x="396" y="44" on="0"/>
        <pt x="294" y="-12" on="0"/>
        <pt x="234" y="-12" on="1"/>
        <pt x="191" y="-12" on="0"/>
        <pt x="115" y="16" on="0"/>
        <pt x="59" y="69" on="0"/>
        <pt x="27" y="143" on="0"/>
        <pt x="27" y="188" on="1"/>
        <pt x="27" y="241" on="0"/>
        <pt x="64" y="331" on="0"/>
        <pt x="126" y="396" on="0"/>
        <pt x="208" y="433" on="0"/>
        <pt x="254" y="433" on="1"/>
        <pt x="311" y="433" on="0"/>
        <pt x="397" y="381" on="0"/>
        <pt x="420" y="339" on="1"/>
        <pt x="421" y="350" on="0"/>
        <pt x="422" y="373" on="0"/>
        <pt x="422" y="387" on="1"/>
        <pt x="422" y="446" on="0"/>
        <pt x="385" y="543" on="0"/>
        <pt x="351" y="575" on="1"/>
        <pt x="284" y="498" on="1"/>
      </contour>
      <contour>
        <pt x="266" y="358" on="1"/>
        <pt x="233" y="358" on="0"/>
        <pt x="178" y="334" on="0"/>
        <pt x="139" y="291" on="0"/>
        <pt x="118" y="232" on="0"/>
        <pt x="118" y="198" on="1"/>
        <pt x="118" y="169" on="0"/>
        <pt x="137" y="121" on="0"/>
        <pt x="169" y="87" on="0"/>
        <pt x="213" y="68" on="0"/>
        <pt x="239" y="68" on="1"/>
        <pt x="298" y="68" on="0"/>
        <pt x="390" y="165" on="0"/>
        <pt x="410" y="266" on="1"/>
        <pt x="386" y="306" on="0"/>
        <pt x="313" y="358" on="0"/>
      </contour>
    </TTGlyph>
    <TTGlyph name="exclam" xMin="52" yMin="-12" xMax="287" yMax="729">
      <contour>
        <pt x="187" y="729" on="1"/>
        <pt x="287" y="729" on="1"/>
        <pt x="243" y="480" on="1"/>
        <pt x="182" y="207" on="1"/>
        <pt x="108" y="207" on="1"/>
        <pt x="143" y="480" on="1"/>
      </contour>
      <contour>
        <pt x="114" y="-12" on="1"/>
        <pt x="85" y="-12" on="0"/>
        <pt x="52" y="22" on="0"/>
        <pt x="52" y="45" on="1"/>
        <pt x="52" y="82" on="0"/>
        <pt x="97" y="122" on="0"/>
        <pt x="126" y="122" on="1"/>
        <pt x="155" y="122" on="0"/>
        <pt x="188" y="88" on="0"/>
        <pt x="188" y="65" on="1"/>
        <pt x="188" y="28" on="0"/>
        <pt x="143" y="-12" on="0"/>
      </contour>
    </TTGlyph>
    <TTGlyph name="exclamdown" xMin="27" yMin="-220" xMax="265" yMax="532">
      <contour>
        <pt x="127" y="-220" on="1"/>
        <pt x="27" y="-220" on="1"/>
        <pt x="74" y="41" on="1"/>
        <pt x="135" y="314" on="1"/>
        <pt x="209" y="314" on="1"/>
        <pt x="174" y="41" on="1"/>
      </contour>
      <contour>
        <pt x="191" y="398" on="1"/>
        <pt x="162" y="398" on="0"/>
        <pt x="129" y="432" on="0"/>
        <pt x="129" y="455" on="1"/>
        <pt x="129" y="492" on="0"/>
        <pt x="174" y="532" on="0"/>
        <pt x="203" y="532" on="1"/>
        <pt x="232" y="532" on="0"/>
        <pt x="265" y="498" on="0"/>
        <pt x="265" y="475" on="1"/>
        <pt x="265" y="438" on="0"/>
        <pt x="220" y="398" on="0"/>
      </contour>
    </TTGlyph>
    <TTGlyph name="f" xMin="-133" yMin="-232" xMax="495" yMax="752">
      <contour>
        <pt x="243" y="501" on="1"/>
        <pt x="397" y="501" on="1"/>
        <pt x="383" y="423" on="1"/>
        <pt x="229" y="423" on="1"/>
        <pt x="141" y="-72" on="1"/>
        <pt x="133" y="-116" on="0"/>
        <pt x="103" y="-177" on="0"/>
        <pt x="61" y="-215" on="0"/>
        <pt x="7" y="-232" on="0"/>
        <pt x="-24" y="-232" on="1"/>
        <pt x="-57" y="-232" on="0"/>
        <pt x="-112" y="-214" on="0"/>
        <pt x="-133" y="-198" on="1"/>
        <pt x="-97" y="-124" on="1"/>
        <pt x="-83" y="-138" on="0"/>
        <pt x="-46" y="-154" on="0"/>
        <pt x="-23" y="-154" on="1"/>
        <pt x="4" y="-154" on="0"/>
        <pt x="43" y="-116" on="0"/>
        <pt x="51" y="-74" on="1"/>
        <pt x="139" y="423" on="1"/>
        <pt x="59" y="423" on="1"/>
        <pt x="73" y="501" on="1"/>
        <pt x="153" y="501" on="1"/>
        <pt x="168" y="581" on="1"/>
        <pt x="185" y="673" on="0"/>
        <pt x="281" y="752" on="0"/>
        <pt x="356" y="752" on="1"/>
        <pt x="397" y="752" on="0"/>
        <pt x="467" y="731" on="0"/>
        <pt x="495" y="716" on="1"/>
        <pt x="460" y="640" on="1"/>
        <pt x="437" y="652" on="0"/>
        <pt x="388" y="672" on="0"/>
        <pt x="355" y="672" on="1"/>
        <pt x="318" y="672" on="0"/>
        <pt x="266" y="629" on="0"/>
        <pt x="258" y="584" on="1"/>
      </contour>
    </TTGlyph>
    <TTGlyph name="five" xMin="41" yMin="-12" xMax="549" yMax="700">
      <contour>
        <pt x="95" y="122" on="1"/>
        <pt x="122" y="98" on="0"/>
        <pt x="195" y="70" on="0"/>
        <pt x="240" y="70" on="1"/>
        <pt x="276" y="70" on="0"/>
        <pt x="337" y="90" on="0"/>
        <pt x="382" y="128" on="0"/>
        <pt x="408" y="182" on="0"/>
        <pt x="408" y="216" on="1"/>
        <pt x="408" y="274" on="0"/>
        <pt x="323" y="348" on="0"/>
        <pt x="242" y="348" on="1"/>
        <pt x="143" y="348" on="1"/>
        <pt x="204" y="700" on="1"/>
        <pt x="549" y="700" on="1"/>
        <pt x="535" y="619" on="1"/>
        <pt x="275" y="619" on="1"/>
        <pt x="242" y="429" on="1"/>
        <pt x="261" y="429" on="1"/>
        <pt x="322" y="429" on="0"/>
        <pt x="414" y="397" on="0"/>
        <pt x="475" y="342" on="0"/>
        <pt x="505" y="269" on="0"/>
        <pt x="505" y="229" on="1"/>
        <pt x="505" y="175" on="0"/>
        <pt x="466" y="87" on="0"/>
        <pt x="395" y="23" on="0"/>
        <pt x="295" y="-12" on="0"/>
        <pt x="235" y="-12" on="1"/>
        <pt x="175" y="-12" on="0"/>
        <pt x="74" y="19" on="0"/>
        <pt x="41" y="45" on="1"/>
      </contour>
    </TTGlyph>
    <TTGlyph name="foundryicon" xMin="144" yMin="0" xMax="720" yMax="576">
      <contour>
        <pt x="144" y="0" on="1"/>
        <pt x="144" y="576" on="1"/>
        <pt x="432" y="576" on="1"/>
        <pt x="432" y="288" on="1"/>
        <pt x="720" y="288" on="1"/>
        <pt x="720" y="0" on="1"/>
      </contour>
      <contour>
        <pt x="576" y="432" on="1"/>
        <pt x="576" y="576" on="1"/>
        <pt x="720" y="576" on="1"/>
        <pt x="720" y="432" on="1"/>
      </contour>
    </TTGlyph>
    <TTGlyph name="four" xMin="47" yMin="0" xMax="533" yMax="707">
      <contour>
        <pt x="433" y="151" on="1"/>
        <pt x="407" y="0" on="1"/>
        <pt x="319" y="0" on="1"/>
        <pt x="345" y="151" on="1"/>
        <pt x="47" y="151" on="1"/>
        <pt x="59" y="221" on="1"/>
        <pt x="352" y="707" on="1"/>
        <pt x="429" y="674" on="1"/>
        <pt x="164" y="231" on="1"/>
        <pt x="359" y="231" on="1"/>
        <pt x="395" y="430" on="1"/>
        <pt x="483" y="430" on="1"/>
        <pt x="447" y="231" on="1"/>
        <pt x="533" y="231" on="1"/>
        <pt x="519" y="151" on="1"/>
      </contour>
    </TTGlyph>
    <TTGlyph name="g" xMin="32" yMin="-232" xMax="545" yMax="532">
      <contour>
        <pt x="367" y="532" on="1"/>
        <pt x="427" y="532" on="0"/>
        <pt x="516" y="508" on="0"/>
        <pt x="545" y="496" on="1"/>
        <pt x="458" y="-6" on="1"/>
        <pt x="446" y="-75" on="0"/>
        <pt x="396" y="-162" on="0"/>
        <pt x="332" y="-213" on="0"/>
        <pt x="260" y="-232" on="0"/>
        <pt x="225" y="-232" on="1"/>
        <pt x="157" y="-232" on="0"/>
        <pt x="62" y="-177" on="0"/>
        <pt x="32" y="-139" on="1"/>
        <pt x="102" y="-87" on="1"/>
        <pt x="151" y="-154" on="0"/>
        <pt x="231" y="-154" on="1"/>
        <pt x="281" y="-154" on="0"/>
        <pt x="357" y="-80" on="0"/>
        <pt x="373" y="9" on="1"/>
        <pt x="390" y="107" on="1"/>
        <pt x="361" y="62" on="0"/>
        <pt x="279" y="0" on="0"/>
        <pt x="227" y="0" on="1"/>
        <pt x="191" y="0" on="0"/>
        <pt x="123" y="27" on="0"/>
        <pt x="69" y="79" on="0"/>
        <pt x="37" y="157" on="0"/>
        <pt x="37" y="207" on="1"/>
        <pt x="37" y="279" on="0"/>
        <pt x="87" y="399" on="0"/>
        <pt x="175" y="485" on="0"/>
        <pt x="296" y="532" on="0"/>
      </contour>
      <contour>
        <pt x="129" y="217" on="1"/>
        <pt x="129" y="183" on="0"/>
        <pt x="150" y="132" on="0"/>
        <pt x="184" y="97" on="0"/>
        <pt x="228" y="80" on="0"/>
        <pt x="251" y="80" on="1"/>
        <pt x="279" y="80" on="0"/>
        <pt x="332" y="111" on="0"/>
        <pt x="377" y="168" on="0"/>
        <pt x="411" y="248" on="0"/>
        <pt x="420" y="298" on="1"/>
        <pt x="446" y="443" on="1"/>
        <pt x="427" y="449" on="0"/>
        <pt x="385" y="456" on="0"/>
        <pt x="357" y="456" on="1"/>
        <pt x="307" y="456" on="0"/>
        <pt x="223" y="419" on="0"/>
        <pt x="163" y="355" on="0"/>
        <pt x="129" y="268" on="0"/>
      </contour>
    </TTGlyph>
    <TTGlyph name="germandbls" xMin="27" yMin="-220" xMax="607" yMax="752">
      <contour>
        <pt x="168" y="470" on="1"/>
        <pt x="177" y="545" on="0"/>
        <pt x="219" y="652" on="0"/>
        <pt x="282" y="720" on="0"/>
        <pt x="366" y="752" on="0"/>
        <pt x="417" y="752" on="1"/>
        <pt x="458" y="752" on="0"/>
        <pt x="528" y="726" on="0"/>
        <pt x="579" y="681" on="0"/>
        <pt x="607" y="618" on="0"/>
        <pt x="607" y="581" on="1"/>
        <pt x="607" y="506" on="0"/>
        <pt x="525" y="411" on="0"/>
        <pt x="449" y="387" on="1"/>
        <pt x="508" y="359" on="0"/>
        <pt x="574" y="269" on="0"/>
        <pt x="574" y="204" on="1"/>
        <pt x="574" y="156" on="0"/>
        <pt x="540" y="76" on="0"/>
        <pt x="478" y="19" on="0"/>
        <pt x="391" y="-12" on="0"/>
        <pt x="338" y="-12" on="1"/>
        <pt x="301" y="-12" on="0"/>
        <pt x="236" y="7" on="0"/>
        <pt x="218" y="19" on="1"/>
        <pt x="252" y="96" on="1"/>
        <pt x="264" y="85" on="0"/>
        <pt x="314" y="68" on="0"/>
        <pt x="343" y="68" on="1"/>
        <pt x="403" y="68" on="0"/>
        <pt x="481" y="139" on="0"/>
        <pt x="481" y="202" on="1"/>
        <pt x="481" y="262" on="0"/>
        <pt x="397" y="344" on="0"/>
        <pt x="326" y="352" on="1"/>
        <pt x="339" y="425" on="1"/>
        <pt x="376" y="425" on="0"/>
        <pt x="441" y="444" on="0"/>
        <pt x="489" y="481" on="0"/>
        <pt x="517" y="534" on="0"/>
        <pt x="517" y="568" on="1"/>
        <pt x="517" y="589" on="0"/>
        <pt x="502" y="627" on="0"/>
        <pt x="474" y="655" on="0"/>
        <pt x="434" y="672" on="0"/>
        <pt x="409" y="672" on="1"/>
        <pt x="343" y="672" on="0"/>
        <pt x="256" y="564" on="0"/>
        <pt x="234" y="440" on="1"/>
        <pt x="117" y="-220" on="1"/>
        <pt x="27" y="-220" on="1"/>
        <pt x="126" y="346" on="1"/>
        <pt x="129" y="364" on="0"/>
        <pt x="129" y="376" on="1"/>
        <pt x="129" y="407" on="0"/>
        <pt x="90" y="439" on="0"/>
        <pt x="54" y="439" on="1"/>
        <pt x="85" y="520" on="1"/>
        <pt x="121" y="520" on="0"/>
        <pt x="158" y="496" on="0"/>
      </contour>
    </TTGlyph>
    <TTGlyph name="grave" xMin="40" yMin="575" xMax="269" yMax="760">
      <contour>
        <pt x="233" y="575" on="1"/>
        <pt x="40" y="684" on="1"/>
        <pt x="92" y="760" on="1"/>
        <pt x="269" y="630" on="1"/>
      </contour>
    </TTGlyph>
    <TTGlyph name="grave.cap" xMin="40" yMin="554" xMax="269" yMax="740">
      <contour>
        <pt x="233" y="554" on="1"/>
        <pt x="40" y="664" on="1"/>
        <pt x="92" y="740" on="1"/>
        <pt x="269" y="610" on="1"/>
      </contour>
    </TTGlyph>
    <TTGlyph name="greater" xMin="91" yMin="114" xMax="489" yMax="572">
      <contour>
        <pt x="91" y="184" on="1"/>
        <pt x="378" y="349" on="1"/>
        <pt x="147" y="508" on="1"/>
        <pt x="205" y="572" on="1"/>
        <pt x="489" y="372" on="1"/>
        <pt x="479" y="315" on="1"/>
        <pt x="127" y="114" on="1"/>
      </contour>
    </TTGlyph>
    <TTGlyph name="guillemotleft" xMin="70" yMin="129" xMax="519" yMax="559">
      <component glyphName="guilsinglleft" x="0" y="0" flags="0x4"/>
      <component glyphName="guilsinglleft" x="200" y="0" flags="0x4"/>
    </TTGlyph>
    <TTGlyph name="guillemotright" xMin="70" yMin="129" xMax="519" yMax="559">
      <component glyphName="guilsinglright" x="0" y="0" flags="0x4"/>
      <component glyphName="guilsinglright" x="200" y="0" flags="0x4"/>
    </TTGlyph>
    <TTGlyph name="guilsinglleft" xMin="70" yMin="129" xMax="319" yMax="559">
      <contour>
        <pt x="194" y="129" on="1"/>
        <pt x="70" y="323" on="1"/>
        <pt x="77" y="365" on="1"/>
        <pt x="264" y="559" on="1"/>
        <pt x="319" y="510" on="1"/>
        <pt x="145" y="339" on="1"/>
        <pt x="258" y="178" on="1"/>
      </contour>
    </TTGlyph>
    <TTGlyph name="guilsinglright" xMin="70" yMin="129" xMax="319" yMax="559">
      <contour>
        <pt x="195" y="559" on="1"/>
        <pt x="319" y="365" on="1"/>
        <pt x="312" y="323" on="1"/>
        <pt x="125" y="129" on="1"/>
        <pt x="70" y="178" on="1"/>
        <pt x="244" y="349" on="1"/>
        <pt x="131" y="510" on="1"/>
      </contour>
    </TTGlyph>
    <TTGlyph name="h" xMin="37" yMin="0" xMax="537" yMax="740">
      <contour>
        <pt x="446" y="368" on="1"/>
        <pt x="446" y="406" on="0"/>
        <pt x="401" y="453" on="0"/>
        <pt x="365" y="453" on="1"/>
        <pt x="338" y="453" on="0"/>
        <pt x="277" y="425" on="0"/>
        <pt x="220" y="366" on="0"/>
        <pt x="175" y="276" on="0"/>
        <pt x="164" y="213" on="1"/>
        <pt x="127" y="0" on="1"/>
        <pt x="37" y="0" on="1"/>
        <pt x="167" y="740" on="1"/>
        <pt x="257" y="740" on="1"/>
        <pt x="199" y="411" on="1"/>
        <pt x="230" y="466" on="0"/>
        <pt x="330" y="532" on="0"/>
        <pt x="387" y="532" on="1"/>
        <pt x="421" y="532" on="0"/>
        <pt x="477" y="510" on="0"/>
        <pt x="516" y="471" on="0"/>
        <pt x="537" y="419" on="0"/>
        <pt x="537" y="389" on="1"/>
        <pt x="537" y="363" on="0"/>
        <pt x="531" y="326" on="1"/>
        <pt x="474" y="0" on="1"/>
        <pt x="384" y="0" on="1"/>
        <pt x="439" y="311" on="1"/>
        <pt x="444" y="335" on="0"/>
        <pt x="446" y="357" on="0"/>
      </contour>
    </TTGlyph>
    <TTGlyph name="hbar" xMin="47" yMin="0" xMax="547" yMax="740">
      <contour>
        <pt x="456" y="368" on="1"/>
        <pt x="456" y="406" on="0"/>
        <pt x="411" y="453" on="0"/>
        <pt x="375" y="453" on="1"/>
        <pt x="348" y="453" on="0"/>
        <pt x="287" y="425" on="0"/>
        <pt x="230" y="366" on="0"/>
        <pt x="185" y="276" on="0"/>
        <pt x="174" y="213" on="1"/>
        <pt x="137" y="0" on="1"/>
        <pt x="47" y="0" on="1"/>
        <pt x="150" y="585" on="1"/>
        <pt x="71" y="585" on="1"/>
        <pt x="82" y="651" on="1"/>
        <pt x="161" y="651" on="1"/>
        <pt x="177" y="740" on="1"/>
        <pt x="267" y="740" on="1"/>
        <pt x="251" y="651" on="1"/>
        <pt x="373" y="651" on="1"/>
        <pt x="362" y="585" on="1"/>
        <pt x="240" y="585" on="1"/>
        <pt x="209" y="411" on="1"/>
        <pt x="240" y="466" on="0"/>
        <pt x="340" y="532" on="0"/>
        <pt x="397" y="532" on="1"/>
        <pt x="431" y="532" on="0"/>
        <pt x="487" y="510" on="0"/>
        <pt x="526" y="471" on="0"/>
        <pt x="547" y="419" on="0"/>
        <pt x="547" y="389" on="1"/>
        <pt x="547" y="363" on="0"/>
        <pt x="541" y="326" on="1"/>
        <pt x="484" y="0" on="1"/>
        <pt x="394" y="0" on="1"/>
        <pt x="449" y="311" on="1"/>
        <pt x="454" y="335" on="0"/>
        <pt x="456" y="357" on="0"/>
      </contour>
    </TTGlyph>
    <TTGlyph name="hyphen" xMin="127" yMin="302" xMax="482" yMax="384">
      <contour>
        <pt x="127" y="302" on="1"/>
        <pt x="142" y="384" on="1"/>
        <pt x="482" y="384" on="1"/>
        <pt x="467" y="302" on="1"/>
      </contour>
    </TTGlyph>
    <TTGlyph name="i" xMin="37" yMin="0" xMax="264" yMax="735">
      <contour>
        <pt x="127" y="0" on="1"/>
        <pt x="37" y="0" on="1"/>
        <pt x="128" y="520" on="1"/>
        <pt x="218" y="520" on="1"/>
      </contour>
      <contour>
        <pt x="194" y="609" on="1"/>
        <pt x="166" y="609" on="0"/>
        <pt x="137" y="642" on="0"/>
        <pt x="137" y="664" on="1"/>
        <pt x="137" y="696" on="0"/>
        <pt x="177" y="735" on="0"/>
        <pt x="207" y="735" on="1"/>
        <pt x="235" y="735" on="0"/>
        <pt x="264" y="702" on="0"/>
        <pt x="264" y="680" on="1"/>
        <pt x="264" y="648" on="0"/>
        <pt x="224" y="609" on="0"/>
      </contour>
    </TTGlyph>
    <TTGlyph name="iacute" xMin="37" yMin="0" xMax="313" yMax="760">
      <component glyphName="acute" x="44" y="0" flags="0x4"/>
      <component glyphName="dotlessi" x="0" y="0" flags="0x4"/>
    </TTGlyph>
    <TTGlyph name="icircumflex" xMin="19" yMin="0" xMax="377" yMax="740">
      <component glyphName="circumflex" x="-31" y="0" flags="0x4"/>
      <component glyphName="dotlessi" x="0" y="0" flags="0x4"/>
    </TTGlyph>
    <TTGlyph name="idieresis" xMin="37" yMin="0" xMax="349" yMax="727">
      <component glyphName="dieresis" x="9" y="0" flags="0x4"/>
      <component glyphName="dotlessi" x="0" y="0" flags="0x4"/>
    </TTGlyph>
    <TTGlyph name="igrave" xMin="37" yMin="0" xMax="312" yMax="760">
      <component glyphName="grave" x="43" y="0" flags="0x4"/>
      <component glyphName="dotlessi" x="0" y="0" flags="0x4"/>
    </TTGlyph>
    <TTGlyph name="ij" xMin="37" yMin="-232" xMax="528" yMax="735">
      <component glyphName="i" x="0" y="0" flags="0x4"/>
      <component glyphName="j" x="256" y="0" flags="0x4"/>
    </TTGlyph>
    <TTGlyph name="itilde" xMin="37" yMin="0" xMax="360" yMax="722">
      <component glyphName="tilde" x="-11" y="0" flags="0x4"/>
      <component glyphName="dotlessi" x="0" y="0" flags="0x4"/>
    </TTGlyph>
    <TTGlyph name="j" xMin="-153" yMin="-232" xMax="272" yMax="735">
      <contour>
        <pt x="136" y="520" on="1"/>
        <pt x="226" y="520" on="1"/>
        <pt x="122" y="-72" on="1"/>
        <pt x="114" y="-116" on="0"/>
        <pt x="84" y="-177" on="0"/>
        <pt x="41" y="-215" on="0"/>
        <pt x="-13" y="-232" on="0"/>
        <pt x="-44" y="-232" on="1"/>
        <pt x="-77" y="-232" on="0"/>
        <pt x="-132" y="-214" on="0"/>
        <pt x="-153" y="-198" on="1"/>
        <pt x="-117" y="-124" on="1"/>
        <pt x="-103" y="-138" on="0"/>
        <pt x="-66" y="-154" on="0"/>
        <pt x="-43" y="-154" on="1"/>
        <pt x="-16" y="-154" on="0"/>
        <pt x="23" y="-116" on="0"/>
        <pt x="31" y="-74" on="1"/>
      </contour>
      <contour>
        <pt x="202" y="609" on="1"/>
        <pt x="174" y="609" on="0"/>
        <pt x="145" y="642" on="0"/>
        <pt x="145" y="664" on="1"/>
        <pt x="145" y="696" on="0"/>
        <pt x="185" y="735" on="0"/>
        <pt x="215" y="735" on="1"/>
        <pt x="243" y="735" on="0"/>
        <pt x="272" y="702" on="0"/>
        <pt x="272" y="680" on="1"/>
        <pt x="272" y="648" on="0"/>
        <pt x="232" y="609" on="0"/>
      </contour>
    </TTGlyph>
    <TTGlyph name="jcircumflex" xMin="-153" yMin="-232" xMax="385" yMax="740">
      <component glyphName="circumflex" x="-23" y="0" flags="0x4"/>
      <component glyphName="dotlessj" x="0" y="0" flags="0x4"/>
    </TTGlyph>
    <TTGlyph name="k" xMin="37" yMin="-5" xMax="521" yMax="740">
      <contour>
        <pt x="167" y="740" on="1"/>
        <pt x="257" y="740" on="1"/>
        <pt x="203" y="433" on="1"/>
        <pt x="230" y="479" on="0"/>
        <pt x="318" y="532" on="0"/>
        <pt x="373" y="532" on="1"/>
        <pt x="405" y="532" on="0"/>
        <pt x="460" y="511" on="0"/>
        <pt x="499" y="475" on="0"/>
        <pt x="521" y="426" on="0"/>
        <pt x="521" y="398" on="1"/>
        <pt x="521" y="358" on="0"/>
        <pt x="493" y="300" on="0"/>
        <pt x="442" y="262" on="0"/>
        <pt x="373" y="244" on="0"/>
        <pt x="332" y="244" on="1"/>
        <pt x="322" y="244" on="1"/>
        <pt x="317" y="244" on="0"/>
        <pt x="310" y="245" on="1"/>
        <pt x="395" y="115" on="1"/>
        <pt x="412" y="89" on="0"/>
        <pt x="455" y="65" on="0"/>
        <pt x="492" y="65" on="1"/>
        <pt x="461" y="-5" on="1"/>
        <pt x="414" y="-5" on="0"/>
        <pt x="351" y="22" on="0"/>
        <pt x="326" y="65" on="1"/>
        <pt x="203" y="277" on="1"/>
        <pt x="212" y="306" on="1"/>
        <pt x="227" y="299" on="0"/>
        <pt x="273" y="290" on="0"/>
        <pt x="302" y="290" on="1"/>
        <pt x="368" y="290" on="0"/>
        <pt x="434" y="344" on="0"/>
        <pt x="434" y="388" on="1"/>
        <pt x="434" y="419" on="0"/>
        <pt x="389" y="462" on="0"/>
        <pt x="351" y="462" on="1"/>
        <pt x="330" y="462" on="0"/>
        <pt x="277" y="443" on="0"/>
        <pt x="225" y="397" on="0"/>
        <pt x="182" y="319" on="0"/>
        <pt x="172" y="259" on="1"/>
        <pt x="127" y="0" on="1"/>
        <pt x="37" y="0" on="1"/>
      </contour>
    </TTGlyph>
    <TTGlyph name="kcommaaccent" xMin="37" yMin="-224" xMax="521" yMax="740">
      <component glyphName="k" x="0" y="0" flags="0x204"/>
      <component glyphName="commaaccent" x="55" y="18" flags="0x4"/>
    </TTGlyph>
    <TTGlyph name="kgreenlandic" xMin="37" yMin="-8" xMax="479" yMax="522">
      <contour>
        <pt x="128" y="520" on="1"/>
        <pt x="218" y="520" on="1"/>
        <pt x="180" y="300" on="1"/>
        <pt x="427" y="522" on="1"/>
        <pt x="479" y="466" on="1"/>
        <pt x="248" y="271" on="1"/>
        <pt x="380" y="118" on="1"/>
        <pt x="408" y="86" on="0"/>
        <pt x="451" y="69" on="0"/>
        <pt x="471" y="69" on="1"/>
        <pt x="438" y="-8" on="1"/>
        <pt x="417" y="-8" on="0"/>
        <pt x="385" y="1" on="0"/>
        <pt x="356" y="20" on="0"/>
        <pt x="328" y="49" on="0"/>
        <pt x="312" y="69" on="1"/>
        <pt x="169" y="241" on="1"/>
        <pt x="127" y="0" on="1"/>
        <pt x="37" y="0" on="1"/>
      </contour>
    </TTGlyph>
    <TTGlyph name="l" xMin="52" yMin="-12" xMax="291" yMax="740">
      <contour>
        <pt x="146" y="180" on="1"/>
        <pt x="144" y="166" on="0"/>
        <pt x="142" y="146" on="0"/>
        <pt x="142" y="138" on="1"/>
        <pt x="142" y="103" on="0"/>
        <pt x="182" y="66" on="0"/>
        <pt x="217" y="66" on="1"/>
        <pt x="234" y="66" on="0"/>
        <pt x="268" y="74" on="0"/>
        <pt x="282" y="81" on="1"/>
        <pt x="291" y="8" on="1"/>
        <pt x="273" y="-1" on="0"/>
        <pt x="225" y="-12" on="0"/>
        <pt x="197" y="-12" on="1"/>
        <pt x="167" y="-12" on="0"/>
        <pt x="114" y="5" on="0"/>
        <pt x="75" y="39" on="0"/>
        <pt x="52" y="92" on="0"/>
        <pt x="52" y="127" on="1"/>
        <pt x="52" y="141" on="0"/>
        <pt x="54" y="164" on="0"/>
        <pt x="56" y="178" on="1"/>
        <pt x="154" y="740" on="1"/>
        <pt x="244" y="740" on="1"/>
      </contour>
    </TTGlyph>
    <TTGlyph name="ldot" xMin="52" yMin="-12" xMax="373" yMax="740">
      <component glyphName="l" x="0" y="0" flags="0x4"/>
      <component glyphName="period" x="180" y="300" flags="0x4"/>
    </TTGlyph>
    <TTGlyph name="less" xMin="111" yMin="114" xMax="509" yMax="572">
      <contour>
        <pt x="509" y="502" on="1"/>
        <pt x="222" y="337" on="1"/>
        <pt x="453" y="178" on="1"/>
        <pt x="395" y="114" on="1"/>
        <pt x="111" y="314" on="1"/>
        <pt x="121" y="371" on="1"/>
        <pt x="473" y="572" on="1"/>
      </contour>
    </TTGlyph>
    <TTGlyph name="logicalnot" xMin="60" yMin="120" xMax="545" yMax="383">
      <contour>
        <pt x="498" y="120" on="1"/>
        <pt x="407" y="120" on="1"/>
        <pt x="439" y="300" on="1"/>
        <pt x="60" y="300" on="1"/>
        <pt x="75" y="383" on="1"/>
        <pt x="545" y="383" on="1"/>
      </contour>
    </TTGlyph>
    <TTGlyph name="lslash" xMin="17" yMin="-12" xMax="366" yMax="740">
      <contour>
        <pt x="210" y="442" on="1"/>
        <pt x="347" y="500" on="1"/>
        <pt x="366" y="429" on="1"/>
        <pt x="195" y="356" on="1"/>
        <pt x="164" y="180" on="1"/>
        <pt x="162" y="166" on="0"/>
        <pt x="160" y="146" on="0"/>
        <pt x="160" y="138" on="1"/>
        <pt x="160" y="103" on="0"/>
        <pt x="200" y="66" on="0"/>
        <pt x="235" y="66" on="1"/>
        <pt x="252" y="66" on="0"/>
        <pt x="286" y="74" on="0"/>
        <pt x="300" y="81" on="1"/>
        <pt x="309" y="8" on="1"/>
        <pt x="291" y="-1" on="0"/>
        <pt x="243" y="-12" on="0"/>
        <pt x="215" y="-12" on="1"/>
        <pt x="185" y="-12" on="0"/>
        <pt x="132" y="5" on="0"/>
        <pt x="93" y="39" on="0"/>
        <pt x="70" y="92" on="0"/>
        <pt x="70" y="127" on="1"/>
        <pt x="70" y="141" on="0"/>
        <pt x="72" y="164" on="0"/>
        <pt x="74" y="178" on="1"/>
        <pt x="98" y="314" on="1"/>
        <pt x="36" y="288" on="1"/>
        <pt x="17" y="359" on="1"/>
        <pt x="113" y="402" on="1"/>
        <pt x="172" y="740" on="1"/>
        <pt x="262" y="740" on="1"/>
      </contour>
    </TTGlyph>
    <TTGlyph name="m" xMin="37" yMin="0" xMax="861" yMax="532">
      <contour>
        <pt x="690" y="453" on="1"/>
        <pt x="665" y="453" on="0"/>
        <pt x="607" y="425" on="0"/>
        <pt x="554" y="367" on="0"/>
        <pt x="511" y="277" on="0"/>
        <pt x="500" y="215" on="1"/>
        <pt x="462" y="0" on="1"/>
        <pt x="372" y="0" on="1"/>
        <pt x="429" y="311" on="1"/>
        <pt x="434" y="335" on="0"/>
        <pt x="436" y="357" on="0"/>
        <pt x="436" y="368" on="1"/>
        <pt x="436" y="407" on="0"/>
        <pt x="391" y="453" on="0"/>
        <pt x="355" y="453" on="1"/>
        <pt x="329" y="453" on="0"/>
        <pt x="271" y="424" on="0"/>
        <pt x="217" y="364" on="0"/>
        <pt x="174" y="271" on="0"/>
        <pt x="163" y="207" on="1"/>
        <pt x="127" y="0" on="1"/>
        <pt x="37" y="0" on="1"/>
        <pt x="128" y="520" on="1"/>
        <pt x="215" y="520" on="1"/>
        <pt x="193" y="400" on="1"/>
        <pt x="223" y="460" on="0"/>
        <pt x="325" y="532" on="0"/>
        <pt x="381" y="532" on="1"/>
        <pt x="412" y="532" on="0"/>
        <pt x="462" y="512" on="0"/>
        <pt x="499" y="477" on="0"/>
        <pt x="521" y="428" on="0"/>
        <pt x="524" y="400" on="1"/>
        <pt x="558" y="463" on="0"/>
        <pt x="657" y="532" on="0"/>
        <pt x="715" y="532" on="1"/>
        <pt x="748" y="532" on="0"/>
        <pt x="802" y="510" on="0"/>
        <pt x="840" y="471" on="0"/>
        <pt x="861" y="419" on="0"/>
        <pt x="861" y="389" on="1"/>
        <pt x="861" y="363" on="0"/>
        <pt x="855" y="326" on="1"/>
        <pt x="797" y="0" on="1"/>
        <pt x="707" y="0" on="1"/>
        <pt x="764" y="311" on="1"/>
        <pt x="769" y="335" on="0"/>
        <pt x="771" y="357" on="0"/>
        <pt x="771" y="368" on="1"/>
        <pt x="771" y="407" on="0"/>
        <pt x="726" y="453" on="0"/>
      </contour>
    </TTGlyph>
    <TTGlyph name="macron" xMin="50" yMin="627" xMax="353" yMax="700">
      <contour>
        <pt x="50" y="627" on="1"/>
        <pt x="63" y="700" on="1"/>
        <pt x="353" y="700" on="1"/>
        <pt x="340" y="627" on="1"/>
      </contour>
    </TTGlyph>
    <TTGlyph name="mu" xMin="10" yMin="-220" xMax="560" yMax="520">
      <contour>
        <pt x="141" y="520" on="1"/>
        <pt x="224" y="520" on="1"/>
        <pt x="166" y="191" on="1"/>
        <pt x="163" y="173" on="0"/>
        <pt x="163" y="156" on="1"/>
        <pt x="163" y="114" on="0"/>
        <pt x="214" y="68" on="0"/>
        <pt x="250" y="68" on="1"/>
        <pt x="278" y="68" on="0"/>
        <pt x="335" y="95" on="0"/>
        <pt x="383" y="147" on="0"/>
        <pt x="420" y="222" on="0"/>
        <pt x="429" y="269" on="1"/>
        <pt x="474" y="520" on="1"/>
        <pt x="560" y="520" on="1"/>
        <pt x="468" y="0" on="1"/>
        <pt x="385" y="0" on="1"/>
        <pt x="402" y="96" on="1"/>
        <pt x="372" y="50" on="0"/>
        <pt x="286" y="-12" on="0"/>
        <pt x="230" y="-12" on="1"/>
        <pt x="195" y="-12" on="0"/>
        <pt x="147" y="21" on="0"/>
        <pt x="136" y="45" on="1"/>
        <pt x="88" y="-220" on="1"/>
        <pt x="10" y="-220" on="1"/>
      </contour>
    </TTGlyph>
    <TTGlyph name="multiply" xMin="93" yMin="156" xMax="518" yMax="534">
      <contour>
        <pt x="140" y="481" on="1"/>
        <pt x="202" y="534" on="1"/>
        <pt x="312" y="398" on="1"/>
        <pt x="470" y="534" on="1"/>
        <pt x="518" y="475" on="1"/>
        <pt x="360" y="341" on="1"/>
        <pt x="473" y="208" on="1"/>
        <pt x="411" y="156" on="1"/>
        <pt x="300" y="291" on="1"/>
        <pt x="141" y="156" on="1"/>
        <pt x="93" y="215" on="1"/>
        <pt x="251" y="348" on="1"/>
      </contour>
    </TTGlyph>
    <TTGlyph name="n" xMin="37" yMin="0" xMax="537" yMax="532">
      <contour>
        <pt x="364" y="453" on="1"/>
        <pt x="338" y="453" on="0"/>
        <pt x="277" y="424" on="0"/>
        <pt x="220" y="364" on="0"/>
        <pt x="174" y="271" on="0"/>
        <pt x="163" y="207" on="1"/>
        <pt x="127" y="0" on="1"/>
        <pt x="37" y="0" on="1"/>
        <pt x="128" y="520" on="1"/>
        <pt x="215" y="520" on="1"/>
        <pt x="193" y="400" on="1"/>
        <pt x="224" y="460" on="0"/>
        <pt x="328" y="532" on="0"/>
        <pt x="387" y="532" on="1"/>
        <pt x="421" y="532" on="0"/>
        <pt x="477" y="510" on="0"/>
        <pt x="516" y="471" on="0"/>
        <pt x="537" y="419" on="0"/>
        <pt x="537" y="389" on="1"/>
        <pt x="537" y="363" on="0"/>
        <pt x="531" y="326" on="1"/>
        <pt x="474" y="0" on="1"/>
        <pt x="384" y="0" on="1"/>
        <pt x="439" y="311" on="1"/>
        <pt x="444" y="335" on="0"/>
        <pt x="446" y="357" on="0"/>
        <pt x="446" y="368" on="1"/>
        <pt x="446" y="407" on="0"/>
        <pt x="401" y="453" on="0"/>
      </contour>
    </TTGlyph>
    <TTGlyph name="nacute" xMin="37" yMin="0" xMax="537" yMax="760">
      <component glyphName="n" x="0" y="0" flags="0x204"/>
      <component glyphName="acute" x="221" y="0" flags="0x4"/>
    </TTGlyph>
    <TTGlyph name="nine" xMin="56" yMin="-12" xMax="545" yMax="712">
      <contour>
        <pt x="246" y="70" on="1"/>
        <pt x="276" y="70" on="0"/>
        <pt x="335" y="101" on="0"/>
        <pt x="386" y="166" on="0"/>
        <pt x="426" y="266" on="0"/>
        <pt x="437" y="335" on="1"/>
        <pt x="403" y="303" on="0"/>
        <pt x="325" y="270" on="0"/>
        <pt x="284" y="270" on="1"/>
        <pt x="245" y="270" on="0"/>
        <pt x="175" y="297" on="0"/>
        <pt x="122" y="347" on="0"/>
        <pt x="91" y="420" on="0"/>
        <pt x="91" y="466" on="1"/>
        <pt x="91" y="517" on="0"/>
        <pt x="128" y="607" on="0"/>
        <pt x="194" y="674" on="0"/>
        <pt x="284" y="712" on="0"/>
        <pt x="337" y="712" on="1"/>
        <pt x="434" y="712" on="0"/>
        <pt x="490" y="651" on="1"/>
        <pt x="517" y="622" on="0"/>
        <pt x="545" y="544" on="0"/>
        <pt x="545" y="490" on="1"/>
        <pt x="545" y="396" on="0"/>
        <pt x="510" y="216" on="0"/>
        <pt x="436" y="75" on="0"/>
        <pt x="320" y="-12" on="0"/>
        <pt x="239" y="-12" on="1"/>
        <pt x="181" y="-12" on="0"/>
        <pt x="88" y="31" on="0"/>
        <pt x="56" y="66" on="1"/>
        <pt x="125" y="130" on="1"/>
        <pt x="150" y="101" on="0"/>
        <pt x="208" y="70" on="0"/>
      </contour>
      <contour>
        <pt x="452" y="478" on="1"/>
        <pt x="452" y="553" on="0"/>
        <pt x="385" y="632" on="0"/>
        <pt x="329" y="632" on="1"/>
        <pt x="299" y="632" on="0"/>
        <pt x="246" y="608" on="0"/>
        <pt x="207" y="565" on="0"/>
        <pt x="184" y="506" on="0"/>
        <pt x="184" y="472" on="1"/>
        <pt x="184" y="414" on="0"/>
        <pt x="249" y="344" on="0"/>
        <pt x="303" y="344" on="1"/>
        <pt x="341" y="344" on="0"/>
        <pt x="418" y="380" on="0"/>
        <pt x="449" y="415" on="1"/>
        <pt x="451" y="433" on="0"/>
        <pt x="452" y="461" on="0"/>
      </contour>
    </TTGlyph>
    <TTGlyph name="ntilde" xMin="37" yMin="0" xMax="537" yMax="722">
      <component glyphName="n" x="0" y="0" flags="0x204"/>
      <component glyphName="tilde" x="165" y="0" flags="0x4"/>
    </TTGlyph>
    <TTGlyph name="numbersign" xMin="47" yMin="0" xMax="724" yMax="644">
      <contour>
        <pt x="94" y="0" on="1"/>
        <pt x="137" y="124" on="1"/>
        <pt x="47" y="124" on="1"/>
        <pt x="71" y="197" on="1"/>
        <pt x="163" y="197" on="1"/>
        <pt x="251" y="447" on="1"/>
        <pt x="160" y="447" on="1"/>
        <pt x="184" y="520" on="1"/>
        <pt x="276" y="520" on="1"/>
        <pt x="320" y="644" on="1"/>
        <pt x="400" y="644" on="1"/>
        <pt x="356" y="520" on="1"/>
        <pt x="552" y="520" on="1"/>
        <pt x="596" y="644" on="1"/>
        <pt x="676" y="644" on="1"/>
        <pt x="632" y="520" on="1"/>
        <pt x="724" y="520" on="1"/>
        <pt x="700" y="447" on="1"/>
        <pt x="607" y="447" on="1"/>
        <pt x="519" y="197" on="1"/>
        <pt x="610" y="197" on="1"/>
        <pt x="586" y="124" on="1"/>
        <pt x="493" y="124" on="1"/>
        <pt x="450" y="0" on="1"/>
        <pt x="370" y="0" on="1"/>
        <pt x="413" y="124" on="1"/>
        <pt x="217" y="124" on="1"/>
        <pt x="174" y="0" on="1"/>
      </contour>
      <contour>
        <pt x="243" y="197" on="1"/>
        <pt x="439" y="197" on="1"/>
        <pt x="527" y="447" on="1"/>
        <pt x="331" y="447" on="1"/>
      </contour>
    </TTGlyph>
    <TTGlyph name="o" xMin="37" yMin="-12" xMax="564" yMax="532">
      <contour>
        <pt x="281" y="68" on="1"/>
        <pt x="326" y="68" on="0"/>
        <pt x="396" y="102" on="0"/>
        <pt x="446" y="162" on="0"/>
        <pt x="472" y="242" on="0"/>
        <pt x="472" y="289" on="1"/>
        <pt x="472" y="323" on="0"/>
        <pt x="451" y="383" on="0"/>
        <pt x="412" y="427" on="0"/>
        <pt x="356" y="452" on="0"/>
        <pt x="320" y="452" on="1"/>
        <pt x="276" y="452" on="0"/>
        <pt x="205" y="418" on="0"/>
        <pt x="155" y="358" on="0"/>
        <pt x="129" y="277" on="0"/>
        <pt x="129" y="231" on="1"/>
        <pt x="129" y="197" on="0"/>
        <pt x="149" y="137" on="0"/>
        <pt x="188" y="93" on="0"/>
        <pt x="245" y="68" on="0"/>
      </contour>
      <contour>
        <pt x="278" y="-12" on="1"/>
        <pt x="222" y="-12" on="0"/>
        <pt x="133" y="23" on="0"/>
        <pt x="71" y="85" on="0"/>
        <pt x="37" y="172" on="0"/>
        <pt x="37" y="223" on="1"/>
        <pt x="37" y="288" on="0"/>
        <pt x="77" y="401" on="0"/>
        <pt x="152" y="484" on="0"/>
        <pt x="258" y="532" on="0"/>
        <pt x="323" y="532" on="1"/>
        <pt x="378" y="532" on="0"/>
        <pt x="468" y="497" on="0"/>
        <pt x="530" y="435" on="0"/>
        <pt x="564" y="348" on="0"/>
        <pt x="564" y="297" on="1"/>
        <pt x="564" y="232" on="0"/>
        <pt x="524" y="119" on="0"/>
        <pt x="449" y="36" on="0"/>
        <pt x="343" y="-12" on="0"/>
      </contour>
    </TTGlyph>
    <TTGlyph name="oacute" xMin="37" yMin="-12" xMax="564" yMax="760">
      <component glyphName="o" x="0" y="0" flags="0x204"/>
      <component glyphName="acute" x="201" y="0" flags="0x4"/>
    </TTGlyph>
    <TTGlyph name="ocircumflex" xMin="37" yMin="-12" xMax="564" yMax="740">
      <component glyphName="o" x="0" y="0" flags="0x204"/>
      <component glyphName="circumflex" x="122" y="0" flags="0x4"/>
    </TTGlyph>
    <TTGlyph name="odieresis" xMin="37" yMin="-12" xMax="564" yMax="727">
      <component glyphName="o" x="0" y="0" flags="0x204"/>
      <component glyphName="dieresis" x="162" y="0" flags="0x4"/>
    </TTGlyph>
    <TTGlyph name="oe" xMin="37" yMin="-12" xMax="934" yMax="532">
      <contour>
        <pt x="276" y="-12" on="1"/>
        <pt x="221" y="-12" on="0"/>
        <pt x="133" y="23" on="0"/>
        <pt x="71" y="85" on="0"/>
        <pt x="37" y="172" on="0"/>
        <pt x="37" y="223" on="1"/>
        <pt x="37" y="288" on="0"/>
        <pt x="77" y="401" on="0"/>
        <pt x="152" y="484" on="0"/>
        <pt x="258" y="532" on="0"/>
        <pt x="323" y="532" on="1"/>
        <pt x="398" y="532" on="0"/>
        <pt x="502" y="467" on="0"/>
        <pt x="531" y="412" on="1"/>
        <pt x="569" y="471" on="0"/>
        <pt x="678" y="532" on="0"/>
        <pt x="749" y="532" on="1"/>
        <pt x="793" y="532" on="0"/>
        <pt x="862" y="506" on="0"/>
        <pt x="909" y="463" on="0"/>
        <pt x="934" y="405" on="0"/>
        <pt x="934" y="373" on="1"/>
        <pt x="934" y="333" on="0"/>
        <pt x="902" y="270" on="0"/>
        <pt x="846" y="227" on="0"/>
        <pt x="770" y="204" on="0"/>
        <pt x="727" y="204" on="1"/>
        <pt x="673" y="204" on="0"/>
        <pt x="590" y="231" on="0"/>
        <pt x="561" y="256" on="1"/>
        <pt x="561" y="236" on="1"/>
        <pt x="561" y="154" on="0"/>
        <pt x="643" y="68" on="0"/>
        <pt x="713" y="68" on="1"/>
        <pt x="761" y="68" on="0"/>
        <pt x="837" y="94" on="0"/>
        <pt x="864" y="107" on="1"/>
        <pt x="872" y="27" on="1"/>
        <pt x="842" y="13" on="0"/>
        <pt x="751" y="-12" on="0"/>
        <pt x="694" y="-12" on="1"/>
        <pt x="628" y="-12" on="0"/>
        <pt x="529" y="52" on="0"/>
        <pt x="502" y="115" on="1"/>
        <pt x="464" y="55" on="0"/>
        <pt x="351" y="-12" on="0"/>
      </contour>
      <contour>
        <pt x="281" y="68" on="1"/>
        <pt x="326" y="68" on="0"/>
        <pt x="396" y="102" on="0"/>
        <pt x="446" y="162" on="0"/>
        <pt x="472" y="242" on="0"/>
        <pt x="472" y="289" on="1"/>
        <pt x="472" y="323" on="0"/>
        <pt x="451" y="383" on="0"/>
        <pt x="412" y="427" on="0"/>
        <pt x="356" y="452" on="0"/>
        <pt x="320" y="452" on="1"/>
        <pt x="276" y="452" on="0"/>
        <pt x="205" y="418" on="0"/>
        <pt x="155" y="358" on="0"/>
        <pt x="129" y="277" on="0"/>
        <pt x="129" y="231" on="1"/>
        <pt x="129" y="197" on="0"/>
        <pt x="149" y="137" on="0"/>
        <pt x="188" y="93" on="0"/>
        <pt x="245" y="68" on="0"/>
      </contour>
      <contour>
        <pt x="743" y="456" on="1"/>
        <pt x="686" y="456" on="0"/>
        <pt x="600" y="388" on="0"/>
        <pt x="578" y="333" on="1"/>
        <pt x="607" y="304" on="0"/>
        <pt x="685" y="273" on="0"/>
        <pt x="728" y="273" on="1"/>
        <pt x="780" y="273" on="0"/>
        <pt x="844" y="322" on="0"/>
        <pt x="844" y="369" on="1"/>
        <pt x="844" y="406" on="0"/>
        <pt x="788" y="456" on="0"/>
      </contour>
    </TTGlyph>
    <TTGlyph name="ograve" xMin="37" yMin="-12" xMax="564" yMax="760">
      <component glyphName="o" x="0" y="0" flags="0x204"/>
      <component glyphName="grave" x="222" y="0" flags="0x4"/>
    </TTGlyph>
    <TTGlyph name="one" xMin="97" yMin="0" xMax="463" yMax="700">
      <contour>
        <pt x="254" y="80" on="1"/>
        <pt x="343" y="583" on="1"/>
        <pt x="194" y="479" on="1"/>
        <pt x="153" y="551" on="1"/>
        <pt x="387" y="700" on="1"/>
        <pt x="453" y="700" on="1"/>
        <pt x="344" y="80" on="1"/>
        <pt x="463" y="80" on="1"/>
        <pt x="449" y="0" on="1"/>
        <pt x="97" y="0" on="1"/>
        <pt x="111" y="80" on="1"/>
      </contour>
    </TTGlyph>
    <TTGlyph name="onehalf" xMin="34" yMin="-39" xMax="866" yMax="740">
      <contour>
        <pt x="150" y="1" on="1"/>
        <pt x="713" y="740" on="1"/>
        <pt x="768" y="700" on="1"/>
        <pt x="205" y="-39" on="1"/>
      </contour>
      <contour>
        <pt x="143" y="341" on="1"/>
        <pt x="195" y="602" on="1"/>
        <pt x="109" y="548" on="1"/>
        <pt x="70" y="608" on="1"/>
        <pt x="238" y="700" on="1"/>
        <pt x="297" y="700" on="1"/>
        <pt x="223" y="341" on="1"/>
        <pt x="304" y="341" on="1"/>
        <pt x="290" y="276" on="1"/>
        <pt x="34" y="276" on="1"/>
        <pt x="46" y="341" on="1"/>
      </contour>
      <contour>
        <pt x="866" y="321" on="1"/>
        <pt x="866" y="286" on="0"/>
        <pt x="833" y="236" on="0"/>
        <pt x="783" y="198" on="0"/>
        <pt x="723" y="167" on="0"/>
        <pt x="668" y="134" on="0"/>
        <pt x="625" y="94" on="0"/>
        <pt x="617" y="67" on="1"/>
        <pt x="829" y="67" on="1"/>
        <pt x="816" y="0" on="1"/>
        <pt x="528" y="0" on="1"/>
        <pt x="525" y="15" on="0"/>
        <pt x="525" y="32" on="1"/>
        <pt x="525" y="77" on="0"/>
        <pt x="563" y="141" on="0"/>
        <pt x="620" y="189" on="0"/>
        <pt x="687" y="225" on="0"/>
        <pt x="744" y="258" on="0"/>
        <pt x="782" y="294" on="0"/>
        <pt x="782" y="318" on="1"/>
        <pt x="782" y="339" on="0"/>
        <pt x="747" y="366" on="0"/>
        <pt x="722" y="366" on="1"/>
        <pt x="672" y="366" on="0"/>
        <pt x="621" y="326" on="1"/>
        <pt x="584" y="382" on="1"/>
        <pt x="616" y="404" on="0"/>
        <pt x="685" y="431" on="0"/>
        <pt x="730" y="431" on="1"/>
        <pt x="791" y="431" on="0"/>
        <pt x="866" y="368" on="0"/>
      </contour>
    </TTGlyph>
    <TTGlyph name="onequarter" xMin="55" yMin="-39" xMax="845" yMax="740">
      <contour>
        <pt x="169" y="1" on="1"/>
        <pt x="732" y="740" on="1"/>
        <pt x="787" y="700" on="1"/>
        <pt x="224" y="-39" on="1"/>
      </contour>
      <contour>
        <pt x="699" y="87" on="1"/>
        <pt x="495" y="87" on="1"/>
        <pt x="504" y="139" on="1"/>
        <pt x="701" y="430" on="1"/>
        <pt x="769" y="404" on="1"/>
        <pt x="599" y="153" on="1"/>
        <pt x="711" y="153" on="1"/>
        <pt x="731" y="267" on="1"/>
        <pt x="808" y="267" on="1"/>
        <pt x="788" y="153" on="1"/>
        <pt x="845" y="153" on="1"/>
        <pt x="833" y="87" on="1"/>
        <pt x="776" y="87" on="1"/>
        <pt x="761" y="0" on="1"/>
        <pt x="684" y="0" on="1"/>
      </contour>
      <contour>
        <pt x="164" y="341" on="1"/>
        <pt x="216" y="602" on="1"/>
        <pt x="130" y="548" on="1"/>
        <pt x="91" y="608" on="1"/>
        <pt x="259" y="700" on="1"/>
        <pt x="318" y="700" on="1"/>
        <pt x="244" y="341" on="1"/>
        <pt x="325" y="341" on="1"/>
        <pt x="311" y="276" on="1"/>
        <pt x="55" y="276" on="1"/>
        <pt x="67" y="341" on="1"/>
      </contour>
    </TTGlyph>
    <TTGlyph name="onesuperior" xMin="110" yMin="276" xMax="380" yMax="700">
      <contour>
        <pt x="219" y="341" on="1"/>
        <pt x="271" y="602" on="1"/>
        <pt x="185" y="548" on="1"/>
        <pt x="146" y="608" on="1"/>
        <pt x="314" y="700" on="1"/>
        <pt x="373" y="700" on="1"/>
        <pt x="299" y="341" on="1"/>
        <pt x="380" y="341" on="1"/>
        <pt x="366" y="276" on="1"/>
        <pt x="110" y="276" on="1"/>
        <pt x="122" y="341" on="1"/>
      </contour>
    </TTGlyph>
    <TTGlyph name="ordfeminine" xMin="111" yMin="132" xMax="519" yMax="707">
      <contour>
        <pt x="111" y="132" on="1"/>
        <pt x="126" y="214" on="1"/>
        <pt x="466" y="214" on="1"/>
        <pt x="451" y="132" on="1"/>
      </contour>
      <contour>
        <pt x="123" y="472" on="1"/>
        <pt x="123" y="525" on="0"/>
        <pt x="160" y="612" on="0"/>
        <pt x="228" y="673" on="0"/>
        <pt x="321" y="707" on="0"/>
        <pt x="378" y="707" on="1"/>
        <pt x="423" y="707" on="0"/>
        <pt x="491" y="693" on="0"/>
        <pt x="519" y="683" on="1"/>
        <pt x="472" y="452" on="1"/>
        <pt x="469" y="438" on="0"/>
        <pt x="469" y="427" on="1"/>
        <pt x="469" y="390" on="0"/>
        <pt x="513" y="390" on="1"/>
        <pt x="484" y="326" on="1"/>
        <pt x="442" y="326" on="0"/>
        <pt x="393" y="367" on="0"/>
        <pt x="393" y="406" on="1"/>
        <pt x="370" y="368" on="0"/>
        <pt x="307" y="323" on="0"/>
        <pt x="262" y="323" on="1"/>
        <pt x="237" y="323" on="0"/>
        <pt x="187" y="343" on="0"/>
        <pt x="148" y="380" on="0"/>
        <pt x="123" y="436" on="0"/>
      </contour>
      <contour>
        <pt x="287" y="396" on="1"/>
        <pt x="303" y="396" on="0"/>
        <pt x="337" y="410" on="0"/>
        <pt x="368" y="443" on="0"/>
        <pt x="392" y="496" on="0"/>
        <pt x="400" y="535" on="1"/>
        <pt x="419" y="632" on="1"/>
        <pt x="409" y="634" on="0"/>
        <pt x="387" y="637" on="0"/>
        <pt x="371" y="637" on="1"/>
        <pt x="336" y="637" on="0"/>
        <pt x="277" y="614" on="0"/>
        <pt x="235" y="573" on="0"/>
        <pt x="211" y="516" on="0"/>
        <pt x="211" y="482" on="1"/>
        <pt x="211" y="440" on="0"/>
        <pt x="256" y="396" on="0"/>
      </contour>
    </TTGlyph>
    <TTGlyph name="ordmasculine" xMin="117" yMin="132" xMax="543" yMax="707">
      <contour>
        <pt x="356" y="707" on="1"/>
        <pt x="398" y="707" on="0"/>
        <pt x="467" y="682" on="0"/>
        <pt x="516" y="638" on="0"/>
        <pt x="543" y="577" on="0"/>
        <pt x="543" y="540" on="1"/>
        <pt x="543" y="494" on="0"/>
        <pt x="512" y="414" on="0"/>
        <pt x="454" y="356" on="0"/>
        <pt x="373" y="322" on="0"/>
        <pt x="322" y="322" on="1"/>
        <pt x="280" y="322" on="0"/>
        <pt x="211" y="347" on="0"/>
        <pt x="162" y="391" on="0"/>
        <pt x="135" y="452" on="0"/>
        <pt x="135" y="489" on="1"/>
        <pt x="135" y="535" on="0"/>
        <pt x="166" y="615" on="0"/>
        <pt x="224" y="673" on="0"/>
        <pt x="305" y="707" on="0"/>
      </contour>
      <contour>
        <pt x="117" y="132" on="1"/>
        <pt x="132" y="214" on="1"/>
        <pt x="472" y="214" on="1"/>
        <pt x="457" y="132" on="1"/>
      </contour>
      <contour>
        <pt x="352" y="634" on="1"/>
        <pt x="322" y="634" on="0"/>
        <pt x="273" y="612" on="0"/>
        <pt x="239" y="575" on="0"/>
        <pt x="221" y="524" on="0"/>
        <pt x="221" y="495" on="1"/>
        <pt x="221" y="453" on="0"/>
        <pt x="277" y="395" on="0"/>
        <pt x="326" y="395" on="1"/>
        <pt x="356" y="395" on="0"/>
        <pt x="405" y="416" on="0"/>
        <pt x="439" y="454" on="0"/>
        <pt x="457" y="505" on="0"/>
        <pt x="457" y="534" on="1"/>
        <pt x="457" y="576" on="0"/>
        <pt x="401" y="634" on="0"/>
      </contour>
    </TTGlyph>
    <TTGlyph name="oslash" xMin="37" yMin="-115" xMax="564" yMax="631">
      <contour>
        <pt x="278" y="-12" on="1"/>
        <pt x="222" y="-12" on="0"/>
        <pt x="177" y="6" on="1"/>
        <pt x="108" y="-115" on="1"/>
        <pt x="39" y="-74" on="1"/>
        <pt x="118" y="39" on="1"/>
        <pt x="79" y="71" on="0"/>
        <pt x="37" y="165" on="0"/>
        <pt x="37" y="223" on="1"/>
        <pt x="37" y="288" on="0"/>
        <pt x="77" y="401" on="0"/>
        <pt x="152" y="484" on="0"/>
        <pt x="258" y="532" on="0"/>
        <pt x="323" y="532" on="1"/>
        <pt x="376" y="532" on="0"/>
        <pt x="422" y="515" on="1"/>
        <pt x="490" y="631" on="1"/>
        <pt x="559" y="590" on="1"/>
        <pt x="482" y="481" on="1"/>
        <pt x="521" y="449" on="0"/>
        <pt x="564" y="355" on="0"/>
        <pt x="564" y="297" on="1"/>
        <pt x="564" y="232" on="0"/>
        <pt x="524" y="119" on="0"/>
        <pt x="449" y="36" on="0"/>
        <pt x="343" y="-12" on="0"/>
      </contour>
      <contour>
        <pt x="281" y="68" on="1"/>
        <pt x="326" y="68" on="0"/>
        <pt x="396" y="102" on="0"/>
        <pt x="446" y="162" on="0"/>
        <pt x="472" y="242" on="0"/>
        <pt x="472" y="289" on="1"/>
        <pt x="472" y="358" on="0"/>
        <pt x="432" y="404" on="1"/>
        <pt x="223" y="78" on="1"/>
        <pt x="244" y="68" on="0"/>
      </contour>
      <contour>
        <pt x="129" y="231" on="1"/>
        <pt x="129" y="161" on="0"/>
        <pt x="167" y="117" on="1"/>
        <pt x="376" y="442" on="1"/>
        <pt x="351" y="452" on="0"/>
        <pt x="320" y="452" on="1"/>
        <pt x="276" y="452" on="0"/>
        <pt x="205" y="418" on="0"/>
        <pt x="155" y="358" on="0"/>
        <pt x="129" y="277" on="0"/>
      </contour>
    </TTGlyph>
    <TTGlyph name="otilde" xMin="37" yMin="-12" xMax="564" yMax="722">
      <component glyphName="o" x="0" y="0" flags="0x204"/>
      <component glyphName="tilde" x="142" y="0" flags="0x4"/>
    </TTGlyph>
    <TTGlyph name="p" xMin="7" yMin="-220" xMax="560" yMax="532">
      <contour>
        <pt x="97" y="520" on="1"/>
        <pt x="201" y="520" on="0"/>
        <pt x="201" y="430" on="1"/>
        <pt x="201" y="409" on="1"/>
        <pt x="230" y="463" on="0"/>
        <pt x="321" y="532" on="0"/>
        <pt x="383" y="532" on="1"/>
        <pt x="423" y="532" on="0"/>
        <pt x="489" y="500" on="0"/>
        <pt x="535" y="443" on="0"/>
        <pt x="560" y="364" on="0"/>
        <pt x="560" y="316" on="1"/>
        <pt x="560" y="242" on="0"/>
        <pt x="516" y="121" on="0"/>
        <pt x="444" y="35" on="0"/>
        <pt x="351" y="-12" on="0"/>
        <pt x="302" y="-12" on="1"/>
        <pt x="254" y="-12" on="0"/>
        <pt x="171" y="36" on="0"/>
        <pt x="148" y="71" on="1"/>
        <pt x="97" y="-220" on="1"/>
        <pt x="7" y="-220" on="1"/>
        <pt x="111" y="375" on="1"/>
        <pt x="114" y="391" on="0"/>
        <pt x="114" y="403" on="1"/>
        <pt x="114" y="450" on="0"/>
        <pt x="65" y="450" on="1"/>
      </contour>
      <contour>
        <pt x="294" y="68" on="1"/>
        <pt x="329" y="68" on="0"/>
        <pt x="392" y="103" on="0"/>
        <pt x="440" y="166" on="0"/>
        <pt x="468" y="254" on="0"/>
        <pt x="468" y="307" on="1"/>
        <pt x="468" y="376" on="0"/>
        <pt x="406" y="454" on="0"/>
        <pt x="356" y="454" on="1"/>
        <pt x="326" y="454" on="0"/>
        <pt x="269" y="425" on="0"/>
        <pt x="223" y="373" on="0"/>
        <pt x="188" y="298" on="0"/>
        <pt x="180" y="253" on="1"/>
        <pt x="162" y="152" on="1"/>
        <pt x="184" y="111" on="0"/>
        <pt x="253" y="68" on="0"/>
      </contour>
    </TTGlyph>
    <TTGlyph name="paragraph" xMin="90" yMin="-64" xMax="659" yMax="779">
      <contour>
        <pt x="436" y="-64" on="1"/>
        <pt x="581" y="760" on="1"/>
        <pt x="659" y="760" on="1"/>
        <pt x="514" y="-64" on="1"/>
      </contour>
      <contour>
        <pt x="374" y="-64" on="1"/>
        <pt x="296" y="-64" on="1"/>
        <pt x="378" y="401" on="1"/>
        <pt x="362" y="399" on="0"/>
        <pt x="328" y="397" on="0"/>
        <pt x="311" y="397" on="1"/>
        <pt x="208" y="397" on="0"/>
        <pt x="90" y="489" on="0"/>
        <pt x="90" y="574" on="1"/>
        <pt x="90" y="618" on="0"/>
        <pt x="127" y="693" on="0"/>
        <pt x="195" y="748" on="0"/>
        <pt x="291" y="779" on="0"/>
        <pt x="351" y="779" on="1"/>
        <pt x="406" y="779" on="0"/>
        <pt x="482" y="770" on="0"/>
        <pt x="520" y="764" on="1"/>
      </contour>
      <contour>
        <pt x="429" y="695" on="1"/>
        <pt x="410" y="698" on="0"/>
        <pt x="369" y="702" on="0"/>
        <pt x="346" y="702" on="1"/>
        <pt x="267" y="702" on="0"/>
        <pt x="180" y="631" on="0"/>
        <pt x="180" y="577" on="1"/>
        <pt x="180" y="532" on="0"/>
        <pt x="250" y="474" on="0"/>
        <pt x="317" y="474" on="1"/>
        <pt x="341" y="474" on="0"/>
        <pt x="376" y="476" on="0"/>
        <pt x="392" y="480" on="1"/>
      </contour>
    </TTGlyph>
    <TTGlyph name="parenleft" xMin="60" yMin="-123" xMax="330" yMax="763">
      <contour>
        <pt x="330" y="729" on="1"/>
        <pt x="247" y="595" on="0"/>
        <pt x="152" y="322" on="0"/>
        <pt x="152" y="165" on="1"/>
        <pt x="152" y="93" on="0"/>
        <pt x="168" y="-39" on="0"/>
        <pt x="182" y="-99" on="1"/>
        <pt x="127" y="-123" on="1"/>
        <pt x="97" y="-46" on="0"/>
        <pt x="60" y="121" on="0"/>
        <pt x="60" y="199" on="1"/>
        <pt x="60" y="277" on="0"/>
        <pt x="92" y="424" on="0"/>
        <pt x="150" y="564" on="0"/>
        <pt x="230" y="698" on="0"/>
        <pt x="279" y="763" on="1"/>
      </contour>
    </TTGlyph>
    <TTGlyph name="parenright" xMin="-10" yMin="-123" xMax="260" yMax="763">
      <contour>
        <pt x="-10" y="-89" on="1"/>
        <pt x="31" y="-22" on="0"/>
        <pt x="97" y="112" on="0"/>
        <pt x="143" y="251" on="0"/>
        <pt x="168" y="396" on="0"/>
        <pt x="168" y="475" on="1"/>
        <pt x="168" y="547" on="0"/>
        <pt x="152" y="679" on="0"/>
        <pt x="138" y="739" on="1"/>
        <pt x="193" y="763" on="1"/>
        <pt x="223" y="686" on="0"/>
        <pt x="260" y="519" on="0"/>
        <pt x="260" y="441" on="1"/>
        <pt x="260" y="363" on="0"/>
        <pt x="228" y="216" on="0"/>
        <pt x="170" y="76" on="0"/>
        <pt x="90" y="-58" on="0"/>
        <pt x="41" y="-123" on="1"/>
      </contour>
    </TTGlyph>
    <TTGlyph name="percent" xMin="57" yMin="-39" xMax="873" yMax="740">
      <contour>
        <pt x="157" y="1" on="1"/>
        <pt x="720" y="740" on="1"/>
        <pt x="775" y="700" on="1"/>
        <pt x="212" y="-39" on="1"/>
      </contour>
      <contour>
        <pt x="415" y="547" on="1"/>
        <pt x="415" y="506" on="0"/>
        <pt x="394" y="410" on="0"/>
        <pt x="345" y="326" on="0"/>
        <pt x="264" y="270" on="0"/>
        <pt x="204" y="270" on="1"/>
        <pt x="133" y="270" on="0"/>
        <pt x="57" y="356" on="0"/>
        <pt x="57" y="431" on="1"/>
        <pt x="57" y="473" on="0"/>
        <pt x="78" y="569" on="0"/>
        <pt x="128" y="652" on="0"/>
        <pt x="210" y="707" on="0"/>
        <pt x="271" y="707" on="1"/>
        <pt x="341" y="707" on="0"/>
        <pt x="415" y="623" on="0"/>
      </contour>
      <contour>
        <pt x="210" y="337" on="1"/>
        <pt x="247" y="337" on="0"/>
        <pt x="294" y="384" on="0"/>
        <pt x="321" y="452" on="0"/>
        <pt x="331" y="525" on="0"/>
        <pt x="331" y="551" on="1"/>
        <pt x="331" y="595" on="0"/>
        <pt x="297" y="641" on="0"/>
        <pt x="262" y="641" on="1"/>
        <pt x="225" y="641" on="0"/>
        <pt x="178" y="594" on="0"/>
        <pt x="151" y="527" on="0"/>
        <pt x="141" y="453" on="0"/>
        <pt x="141" y="427" on="1"/>
        <pt x="141" y="337" on="0"/>
      </contour>
      <contour>
        <pt x="873" y="270" on="1"/>
        <pt x="873" y="229" on="0"/>
        <pt x="852" y="133" on="0"/>
        <pt x="803" y="49" on="0"/>
        <pt x="722" y="-7" on="0"/>
        <pt x="662" y="-7" on="1"/>
        <pt x="591" y="-7" on="0"/>
        <pt x="515" y="79" on="0"/>
        <pt x="515" y="154" on="1"/>
        <pt x="515" y="196" on="0"/>
        <pt x="536" y="292" on="0"/>
        <pt x="586" y="375" on="0"/>
        <pt x="668" y="430" on="0"/>
        <pt x="729" y="430" on="1"/>
        <pt x="799" y="430" on="0"/>
        <pt x="873" y="346" on="0"/>
      </contour>
      <contour>
        <pt x="668" y="60" on="1"/>
        <pt x="705" y="60" on="0"/>
        <pt x="752" y="107" on="0"/>
        <pt x="779" y="175" on="0"/>
        <pt x="789" y="248" on="0"/>
        <pt x="789" y="274" on="1"/>
        <pt x="789" y="318" on="0"/>
        <pt x="755" y="364" on="0"/>
        <pt x="720" y="364" on="1"/>
        <pt x="683" y="364" on="0"/>
        <pt x="636" y="317" on="0"/>
        <pt x="609" y="250" on="0"/>
        <pt x="599" y="176" on="0"/>
        <pt x="599" y="150" on="1"/>
        <pt x="599" y="60" on="0"/>
      </contour>
    </TTGlyph>
    <TTGlyph name="period" xMin="57" yMin="-12" xMax="193" yMax="122">
      <contour>
        <pt x="119" y="-12" on="1"/>
        <pt x="90" y="-12" on="0"/>
        <pt x="57" y="22" on="0"/>
        <pt x="57" y="45" on="1"/>
        <pt x="57" y="82" on="0"/>
        <pt x="102" y="122" on="0"/>
        <pt x="131" y="122" on="1"/>
        <pt x="160" y="122" on="0"/>
        <pt x="193" y="88" on="0"/>
        <pt x="193" y="65" on="1"/>
        <pt x="193" y="28" on="0"/>
        <pt x="148" y="-12" on="0"/>
      </contour>
    </TTGlyph>
    <TTGlyph name="periodcentered" xMin="92" yMin="288" xMax="228" yMax="422">
      <component glyphName="period" x="35" y="300" flags="0x204"/>
    </TTGlyph>
    <TTGlyph name="plus" xMin="104" yMin="142" xMax="507" yMax="545">
      <contour>
        <pt x="342" y="304" on="1"/>
        <pt x="313" y="142" on="1"/>
        <pt x="228" y="142" on="1"/>
        <pt x="257" y="304" on="1"/>
        <pt x="104" y="304" on="1"/>
        <pt x="117" y="382" on="1"/>
        <pt x="270" y="382" on="1"/>
        <pt x="299" y="545" on="1"/>
        <pt x="384" y="545" on="1"/>
        <pt x="355" y="382" on="1"/>
        <pt x="507" y="382" on="1"/>
        <pt x="494" y="304" on="1"/>
      </contour>
    </TTGlyph>
    <TTGlyph name="plusminus" xMin="96" yMin="81" xMax="505" yMax="608">
      <contour>
        <pt x="365" y="394" on="1"/>
        <pt x="341" y="259" on="1"/>
        <pt x="256" y="259" on="1"/>
        <pt x="280" y="394" on="1"/>
        <pt x="152" y="394" on="1"/>
        <pt x="165" y="472" on="1"/>
        <pt x="293" y="472" on="1"/>
        <pt x="317" y="608" on="1"/>
        <pt x="402" y="608" on="1"/>
        <pt x="378" y="472" on="1"/>
        <pt x="505" y="472" on="1"/>
        <pt x="492" y="394" on="1"/>
      </contour>
      <contour>
        <pt x="96" y="81" on="1"/>
        <pt x="111" y="163" on="1"/>
        <pt x="451" y="163" on="1"/>
        <pt x="436" y="81" on="1"/>
      </contour>
    </TTGlyph>
    <TTGlyph name="q" xMin="37" yMin="-220" xMax="545" yMax="532">
      <contour>
        <pt x="227" y="-12" on="1"/>
        <pt x="189" y="-12" on="0"/>
        <pt x="121" y="18" on="0"/>
        <pt x="68" y="74" on="0"/>
        <pt x="37" y="155" on="0"/>
        <pt x="37" y="205" on="1"/>
        <pt x="37" y="277" on="0"/>
        <pt x="87" y="398" on="0"/>
        <pt x="175" y="484" on="0"/>
        <pt x="296" y="532" on="0"/>
        <pt x="368" y="532" on="1"/>
        <pt x="428" y="532" on="0"/>
        <pt x="516" y="508" on="0"/>
        <pt x="545" y="496" on="1"/>
        <pt x="419" y="-220" on="1"/>
        <pt x="329" y="-220" on="1"/>
        <pt x="383" y="88" on="1"/>
        <pt x="355" y="45" on="0"/>
        <pt x="278" y="-12" on="0"/>
      </contour>
      <contour>
        <pt x="250" y="68" on="1"/>
        <pt x="278" y="68" on="0"/>
        <pt x="330" y="97" on="0"/>
        <pt x="374" y="149" on="0"/>
        <pt x="406" y="222" on="0"/>
        <pt x="414" y="267" on="1"/>
        <pt x="445" y="443" on="1"/>
        <pt x="427" y="449" on="0"/>
        <pt x="386" y="456" on="0"/>
        <pt x="358" y="456" on="1"/>
        <pt x="306" y="456" on="0"/>
        <pt x="221" y="420" on="0"/>
        <pt x="161" y="356" on="0"/>
        <pt x="129" y="268" on="0"/>
        <pt x="129" y="216" on="1"/>
        <pt x="129" y="180" on="0"/>
        <pt x="149" y="125" on="0"/>
        <pt x="183" y="87" on="0"/>
        <pt x="227" y="68" on="0"/>
      </contour>
    </TTGlyph>
    <TTGlyph name="question" xMin="87" yMin="-12" xMax="496" yMax="752">
      <contour>
        <pt x="398" y="584" on="1"/>
        <pt x="398" y="621" on="0"/>
        <pt x="343" y="670" on="0"/>
        <pt x="298" y="670" on="1"/>
        <pt x="254" y="670" on="0"/>
        <pt x="179" y="622" on="0"/>
        <pt x="147" y="583" on="1"/>
        <pt x="87" y="643" on="1"/>
        <pt x="131" y="693" on="0"/>
        <pt x="237" y="752" on="0"/>
        <pt x="311" y="752" on="1"/>
        <pt x="351" y="752" on="0"/>
        <pt x="418" y="728" on="0"/>
        <pt x="468" y="685" on="0"/>
        <pt x="496" y="626" on="0"/>
        <pt x="496" y="592" on="1"/>
        <pt x="496" y="548" on="0"/>
        <pt x="461" y="486" on="0"/>
        <pt x="407" y="439" on="0"/>
        <pt x="343" y="400" on="0"/>
        <pt x="286" y="357" on="0"/>
        <pt x="243" y="305" on="0"/>
        <pt x="238" y="269" on="1"/>
        <pt x="229" y="207" on="1"/>
        <pt x="156" y="207" on="1"/>
        <pt x="154" y="219" on="0"/>
        <pt x="152" y="248" on="0"/>
        <pt x="152" y="262" on="1"/>
        <pt x="152" y="313" on="0"/>
        <pt x="188" y="383" on="0"/>
        <pt x="243" y="434" on="0"/>
        <pt x="307" y="472" on="0"/>
        <pt x="362" y="510" on="0"/>
        <pt x="398" y="553" on="0"/>
      </contour>
      <contour>
        <pt x="178" y="-12" on="1"/>
        <pt x="149" y="-12" on="0"/>
        <pt x="116" y="22" on="0"/>
        <pt x="116" y="45" on="1"/>
        <pt x="116" y="82" on="0"/>
        <pt x="161" y="122" on="0"/>
        <pt x="190" y="122" on="1"/>
        <pt x="219" y="122" on="0"/>
        <pt x="252" y="88" on="0"/>
        <pt x="252" y="65" on="1"/>
        <pt x="252" y="28" on="0"/>
        <pt x="207" y="-12" on="0"/>
      </contour>
    </TTGlyph>
    <TTGlyph name="questiondown" xMin="2" yMin="-232" xMax="411" yMax="532">
      <contour>
        <pt x="100" y="-64" on="1"/>
        <pt x="100" y="-101" on="0"/>
        <pt x="155" y="-150" on="0"/>
        <pt x="200" y="-150" on="1"/>
        <pt x="244" y="-150" on="0"/>
        <pt x="319" y="-102" on="0"/>
        <pt x="351" y="-63" on="1"/>
        <pt x="411" y="-123" on="1"/>
        <pt x="367" y="-173" on="0"/>
        <pt x="261" y="-232" on="0"/>
        <pt x="187" y="-232" on="1"/>
        <pt x="147" y="-232" on="0"/>
        <pt x="79" y="-208" on="0"/>
        <pt x="30" y="-165" on="0"/>
        <pt x="2" y="-106" on="0"/>
        <pt x="2" y="-72" on="1"/>
        <pt x="2" y="-28" on="0"/>
        <pt x="37" y="34" on="0"/>
        <pt x="91" y="81" on="0"/>
        <pt x="155" y="120" on="0"/>
        <pt x="212" y="163" on="0"/>
        <pt x="255" y="214" on="0"/>
        <pt x="260" y="251" on="1"/>
        <pt x="269" y="313" on="1"/>
        <pt x="342" y="313" on="1"/>
        <pt x="344" y="301" on="0"/>
        <pt x="346" y="272" on="0"/>
        <pt x="346" y="258" on="1"/>
        <pt x="346" y="207" on="0"/>
        <pt x="310" y="137" on="0"/>
        <pt x="255" y="86" on="0"/>
        <pt x="191" y="48" on="0"/>
        <pt x="136" y="10" on="0"/>
        <pt x="100" y="-33" on="0"/>
      </contour>
      <contour>
        <pt x="307" y="398" on="1"/>
        <pt x="278" y="398" on="0"/>
        <pt x="245" y="432" on="0"/>
        <pt x="245" y="455" on="1"/>
        <pt x="245" y="492" on="0"/>
        <pt x="290" y="532" on="0"/>
        <pt x="319" y="532" on="1"/>
        <pt x="348" y="532" on="0"/>
        <pt x="381" y="498" on="0"/>
        <pt x="381" y="475" on="1"/>
        <pt x="381" y="438" on="0"/>
        <pt x="336" y="398" on="0"/>
      </contour>
    </TTGlyph>
    <TTGlyph name="quotedbl" xMin="65" yMin="477" xMax="345" yMax="700">
      <contour>
        <pt x="183" y="700" on="1"/>
        <pt x="136" y="477" on="1"/>
        <pt x="65" y="477" on="1"/>
        <pt x="96" y="700" on="1"/>
      </contour>
      <contour>
        <pt x="345" y="700" on="1"/>
        <pt x="298" y="477" on="1"/>
        <pt x="227" y="477" on="1"/>
        <pt x="258" y="700" on="1"/>
      </contour>
    </TTGlyph>
    <TTGlyph name="quotedblbase" xMin="6" yMin="-127" xMax="337" yMax="123">
      <component glyphName="quotedblright" x="-94" y="-629" flags="0x204"/>
    </TTGlyph>
    <TTGlyph name="quotedblleft" xMin="100" yMin="532" xMax="431" yMax="782">
      <contour>
        <pt x="246" y="604" on="1"/>
        <pt x="246" y="573" on="0"/>
        <pt x="202" y="532" on="0"/>
        <pt x="169" y="532" on="1"/>
        <pt x="138" y="532" on="0"/>
        <pt x="100" y="570" on="0"/>
        <pt x="100" y="605" on="1"/>
        <pt x="100" y="633" on="0"/>
        <pt x="121" y="685" on="0"/>
        <pt x="157" y="731" on="0"/>
        <pt x="205" y="769" on="0"/>
        <pt x="232" y="782" on="1"/>
        <pt x="248" y="747" on="1"/>
        <pt x="222" y="731" on="0"/>
        <pt x="179" y="686" on="0"/>
        <pt x="168" y="657" on="1"/>
        <pt x="178" y="660" on="0"/>
        <pt x="189" y="660" on="1"/>
        <pt x="214" y="660" on="0"/>
        <pt x="246" y="628" on="0"/>
      </contour>
      <contour>
        <pt x="429" y="604" on="1"/>
        <pt x="429" y="573" on="0"/>
        <pt x="385" y="532" on="0"/>
        <pt x="352" y="532" on="1"/>
        <pt x="321" y="532" on="0"/>
        <pt x="283" y="570" on="0"/>
        <pt x="283" y="605" on="1"/>
        <pt x="283" y="633" on="0"/>
        <pt x="304" y="685" on="0"/>
        <pt x="340" y="731" on="0"/>
        <pt x="388" y="769" on="0"/>
        <pt x="415" y="782" on="1"/>
        <pt x="431" y="747" on="1"/>
        <pt x="405" y="731" on="0"/>
        <pt x="362" y="686" on="0"/>
        <pt x="351" y="657" on="1"/>
        <pt x="361" y="660" on="0"/>
        <pt x="372" y="660" on="1"/>
        <pt x="397" y="660" on="0"/>
        <pt x="429" y="628" on="0"/>
      </contour>
    </TTGlyph>
    <TTGlyph name="quotedblright" xMin="100" yMin="502" xMax="431" yMax="752">
      <contour>
        <pt x="102" y="680" on="1"/>
        <pt x="102" y="711" on="0"/>
        <pt x="146" y="752" on="0"/>
        <pt x="179" y="752" on="1"/>
        <pt x="210" y="752" on="0"/>
        <pt x="248" y="714" on="0"/>
        <pt x="248" y="679" on="1"/>
        <pt x="248" y="651" on="0"/>
        <pt x="227" y="599" on="0"/>
        <pt x="191" y="553" on="0"/>
        <pt x="143" y="515" on="0"/>
        <pt x="116" y="502" on="1"/>
        <pt x="100" y="537" on="1"/>
        <pt x="126" y="553" on="0"/>
        <pt x="169" y="598" on="0"/>
        <pt x="180" y="627" on="1"/>
        <pt x="169" y="624" on="0"/>
        <pt x="159" y="624" on="1"/>
        <pt x="134" y="624" on="0"/>
        <pt x="102" y="656" on="0"/>
      </contour>
      <contour>
        <pt x="285" y="680" on="1"/>
        <pt x="285" y="711" on="0"/>
        <pt x="329" y="752" on="0"/>
        <pt x="362" y="752" on="1"/>
        <pt x="393" y="752" on="0"/>
        <pt x="431" y="714" on="0"/>
        <pt x="431" y="679" on="1"/>
        <pt x="431" y="651" on="0"/>
        <pt x="410" y="599" on="0"/>
        <pt x="374" y="553" on="0"/>
        <pt x="326" y="515" on="0"/>
        <pt x="299" y="502" on="1"/>
        <pt x="283" y="537" on="1"/>
        <pt x="309" y="553" on="0"/>
        <pt x="352" y="598" on="0"/>
        <pt x="363" y="627" on="1"/>
        <pt x="352" y="624" on="0"/>
        <pt x="342" y="624" on="1"/>
        <pt x="317" y="624" on="0"/>
        <pt x="285" y="656" on="0"/>
      </contour>
    </TTGlyph>
    <TTGlyph name="quoteleft" xMin="100" yMin="532" xMax="248" yMax="782">
      <contour>
        <pt x="246" y="604" on="1"/>
        <pt x="246" y="573" on="0"/>
        <pt x="202" y="532" on="0"/>
        <pt x="169" y="532" on="1"/>
        <pt x="138" y="532" on="0"/>
        <pt x="100" y="570" on="0"/>
        <pt x="100" y="605" on="1"/>
        <pt x="100" y="633" on="0"/>
        <pt x="121" y="685" on="0"/>
        <pt x="157" y="731" on="0"/>
        <pt x="205" y="769" on="0"/>
        <pt x="232" y="782" on="1"/>
        <pt x="248" y="747" on="1"/>
        <pt x="222" y="731" on="0"/>
        <pt x="179" y="686" on="0"/>
        <pt x="168" y="657" on="1"/>
        <pt x="178" y="660" on="0"/>
        <pt x="189" y="660" on="1"/>
        <pt x="214" y="660" on="0"/>
        <pt x="246" y="628" on="0"/>
      </contour>
    </TTGlyph>
    <TTGlyph name="quoteright" xMin="100" yMin="502" xMax="248" yMax="752">
      <contour>
        <pt x="102" y="680" on="1"/>
        <pt x="102" y="711" on="0"/>
        <pt x="146" y="752" on="0"/>
        <pt x="179" y="752" on="1"/>
        <pt x="210" y="752" on="0"/>
        <pt x="248" y="714" on="0"/>
        <pt x="248" y="679" on="1"/>
        <pt x="248" y="651" on="0"/>
        <pt x="227" y="599" on="0"/>
        <pt x="191" y="553" on="0"/>
        <pt x="143" y="515" on="0"/>
        <pt x="116" y="502" on="1"/>
        <pt x="100" y="537" on="1"/>
        <pt x="126" y="553" on="0"/>
        <pt x="169" y="598" on="0"/>
        <pt x="180" y="627" on="1"/>
        <pt x="169" y="624" on="0"/>
        <pt x="159" y="624" on="1"/>
        <pt x="134" y="624" on="0"/>
        <pt x="102" y="656" on="0"/>
      </contour>
    </TTGlyph>
    <TTGlyph name="quotesinglbase" xMin="6" yMin="-127" xMax="154" yMax="123">
      <component glyphName="quoteright" x="-94" y="-629" flags="0x204"/>
    </TTGlyph>
    <TTGlyph name="quotesingle" xMin="72" yMin="478" xMax="190" yMax="700">
      <contour>
        <pt x="190" y="700" on="1"/>
        <pt x="143" y="478" on="1"/>
        <pt x="72" y="478" on="1"/>
        <pt x="103" y="700" on="1"/>
      </contour>
    </TTGlyph>
    <TTGlyph name="r" xMin="52" yMin="0" xMax="448" yMax="532">
      <contour>
        <pt x="118" y="374" on="1"/>
        <pt x="119" y="379" on="0"/>
        <pt x="120" y="392" on="0"/>
        <pt x="120" y="399" on="1"/>
        <pt x="120" y="427" on="0"/>
        <pt x="88" y="450" on="0"/>
        <pt x="62" y="450" on="1"/>
        <pt x="93" y="520" on="1"/>
        <pt x="147" y="520" on="0"/>
        <pt x="203" y="470" on="0"/>
        <pt x="203" y="419" on="1"/>
        <pt x="203" y="399" on="1"/>
        <pt x="232" y="471" on="0"/>
        <pt x="323" y="532" on="0"/>
        <pt x="381" y="532" on="1"/>
        <pt x="404" y="532" on="0"/>
        <pt x="437" y="525" on="0"/>
        <pt x="448" y="520" on="1"/>
        <pt x="408" y="432" on="1"/>
        <pt x="396" y="437" on="0"/>
        <pt x="370" y="441" on="0"/>
        <pt x="353" y="441" on="1"/>
        <pt x="326" y="441" on="0"/>
        <pt x="272" y="414" on="0"/>
        <pt x="224" y="350" on="0"/>
        <pt x="184" y="246" on="0"/>
        <pt x="171" y="169" on="1"/>
        <pt x="142" y="0" on="1"/>
        <pt x="52" y="0" on="1"/>
      </contour>
    </TTGlyph>
    <TTGlyph name="rcaron" xMin="52" yMin="0" xMax="448" yMax="756">
      <component glyphName="r" x="0" y="0" flags="0x204"/>
      <component glyphName="caron" x="41" y="0" flags="0x4"/>
    </TTGlyph>
    <TTGlyph name="rcommaaccent" xMin="-67" yMin="-261" xMax="448" yMax="532">
      <component glyphName="r" x="0" y="0" flags="0x204"/>
      <component glyphName="commaaccent" x="-107" y="-19" flags="0x4"/>
    </TTGlyph>
    <TTGlyph name="registered" xMin="32" yMin="-12" xMax="733" yMax="712">
      <contour>
        <pt x="349" y="-12" on="1"/>
        <pt x="274" y="-12" on="0"/>
        <pt x="156" y="34" on="0"/>
        <pt x="75" y="116" on="0"/>
        <pt x="32" y="231" on="0"/>
        <pt x="32" y="300" on="1"/>
        <pt x="32" y="384" on="0"/>
        <pt x="84" y="534" on="0"/>
        <pt x="182" y="647" on="0"/>
        <pt x="325" y="712" on="0"/>
        <pt x="416" y="712" on="1"/>
        <pt x="492" y="712" on="0"/>
        <pt x="610" y="666" on="0"/>
        <pt x="691" y="583" on="0"/>
        <pt x="733" y="469" on="0"/>
        <pt x="733" y="400" on="1"/>
        <pt x="733" y="316" on="0"/>
        <pt x="682" y="167" on="0"/>
        <pt x="584" y="54" on="0"/>
        <pt x="441" y="-12" on="0"/>
      </contour>
      <contour>
        <pt x="357" y="51" on="1"/>
        <pt x="426" y="51" on="0"/>
        <pt x="538" y="103" on="0"/>
        <pt x="617" y="196" on="0"/>
        <pt x="659" y="324" on="0"/>
        <pt x="659" y="399" on="1"/>
        <pt x="659" y="453" on="0"/>
        <pt x="625" y="545" on="0"/>
        <pt x="561" y="612" on="0"/>
        <pt x="470" y="649" on="0"/>
        <pt x="413" y="649" on="1"/>
        <pt x="342" y="649" on="0"/>
        <pt x="229" y="597" on="0"/>
        <pt x="149" y="504" on="0"/>
        <pt x="106" y="377" on="0"/>
        <pt x="106" y="301" on="1"/>
        <pt x="106" y="246" on="0"/>
        <pt x="140" y="154" on="0"/>
        <pt x="205" y="88" on="0"/>
        <pt x="298" y="51" on="0"/>
      </contour>
      <contour>
        <pt x="522" y="139" on="1"/>
        <pt x="489" y="139" on="0"/>
        <pt x="453" y="164" on="0"/>
        <pt x="431" y="203" on="0"/>
        <pt x="416" y="248" on="0"/>
        <pt x="393" y="288" on="0"/>
        <pt x="354" y="316" on="0"/>
        <pt x="320" y="318" on="1"/>
        <pt x="289" y="143" on="1"/>
        <pt x="209" y="143" on="1"/>
        <pt x="284" y="563" on="1"/>
        <pt x="313" y="568" on="0"/>
        <pt x="362" y="573" on="0"/>
        <pt x="395" y="573" on="1"/>
        <pt x="431" y="573" on="0"/>
        <pt x="485" y="555" on="0"/>
        <pt x="522" y="524" on="0"/>
        <pt x="541" y="482" on="0"/>
        <pt x="541" y="459" on="1"/>
        <pt x="541" y="408" on="0"/>
        <pt x="479" y="354" on="0"/>
        <pt x="426" y="346" on="1"/>
        <pt x="449" y="334" on="0"/>
        <pt x="473" y="306" on="0"/>
        <pt x="487" y="276" on="0"/>
        <pt x="496" y="247" on="0"/>
        <pt x="509" y="225" on="0"/>
        <pt x="532" y="211" on="0"/>
        <pt x="554" y="211" on="1"/>
      </contour>
      <contour>
        <pt x="393" y="502" on="1"/>
        <pt x="371" y="502" on="0"/>
        <pt x="352" y="499" on="1"/>
        <pt x="332" y="388" on="1"/>
        <pt x="366" y="388" on="1"/>
        <pt x="411" y="388" on="0"/>
        <pt x="463" y="423" on="0"/>
        <pt x="463" y="452" on="1"/>
        <pt x="463" y="474" on="0"/>
        <pt x="427" y="502" on="0"/>
      </contour>
    </TTGlyph>
    <TTGlyph name="ring" xMin="40" yMin="582" xMax="293" yMax="822">
      <contour>
        <pt x="160" y="644" on="1"/>
        <pt x="185" y="644" on="0"/>
        <pt x="215" y="682" on="0"/>
        <pt x="215" y="709" on="1"/>
        <pt x="215" y="732" on="0"/>
        <pt x="193" y="760" on="0"/>
        <pt x="173" y="760" on="1"/>
        <pt x="148" y="760" on="0"/>
        <pt x="118" y="722" on="0"/>
        <pt x="118" y="695" on="1"/>
        <pt x="118" y="672" on="0"/>
        <pt x="140" y="644" on="0"/>
      </contour>
      <contour>
        <pt x="154" y="582" on="1"/>
        <pt x="104" y="582" on="0"/>
        <pt x="40" y="638" on="0"/>
        <pt x="40" y="686" on="1"/>
        <pt x="40" y="715" on="0"/>
        <pt x="60" y="765" on="0"/>
        <pt x="96" y="801" on="0"/>
        <pt x="147" y="822" on="0"/>
        <pt x="179" y="822" on="1"/>
        <pt x="229" y="822" on="0"/>
        <pt x="293" y="766" on="0"/>
        <pt x="293" y="718" on="1"/>
        <pt x="293" y="689" on="0"/>
        <pt x="273" y="639" on="0"/>
        <pt x="237" y="603" on="0"/>
        <pt x="185" y="582" on="0"/>
      </contour>
    </TTGlyph>
    <TTGlyph name="ring.cap" xMin="40" yMin="512" xMax="293" yMax="752">
      <contour>
        <pt x="160" y="574" on="1"/>
        <pt x="185" y="574" on="0"/>
        <pt x="215" y="612" on="0"/>
        <pt x="215" y="639" on="1"/>
        <pt x="215" y="662" on="0"/>
        <pt x="193" y="690" on="0"/>
        <pt x="173" y="690" on="1"/>
        <pt x="148" y="690" on="0"/>
        <pt x="118" y="652" on="0"/>
        <pt x="118" y="625" on="1"/>
        <pt x="118" y="602" on="0"/>
        <pt x="140" y="574" on="0"/>
      </contour>
      <contour>
        <pt x="154" y="512" on="1"/>
        <pt x="104" y="512" on="0"/>
        <pt x="40" y="568" on="0"/>
        <pt x="40" y="616" on="1"/>
        <pt x="40" y="645" on="0"/>
        <pt x="60" y="695" on="0"/>
        <pt x="96" y="731" on="0"/>
        <pt x="147" y="752" on="0"/>
        <pt x="179" y="752" on="1"/>
        <pt x="229" y="752" on="0"/>
        <pt x="293" y="696" on="0"/>
        <pt x="293" y="648" on="1"/>
        <pt x="293" y="619" on="0"/>
        <pt x="273" y="569" on="0"/>
        <pt x="237" y="533" on="0"/>
        <pt x="185" y="512" on="0"/>
      </contour>
    </TTGlyph>
    <TTGlyph name="s" xMin="-3" yMin="-12" xMax="437" yMax="532">
      <contour>
        <pt x="401" y="407" on="1"/>
        <pt x="372" y="427" on="0"/>
        <pt x="301" y="457" on="0"/>
        <pt x="256" y="457" on="1"/>
        <pt x="208" y="457" on="0"/>
        <pt x="157" y="425" on="0"/>
        <pt x="157" y="399" on="1"/>
        <pt x="157" y="387" on="0"/>
        <pt x="166" y="367" on="0"/>
        <pt x="189" y="346" on="0"/>
        <pt x="229" y="322" on="0"/>
        <pt x="260" y="306" on="1"/>
        <pt x="329" y="271" on="0"/>
        <pt x="394" y="200" on="0"/>
        <pt x="394" y="146" on="1"/>
        <pt x="394" y="106" on="0"/>
        <pt x="362" y="47" on="0"/>
        <pt x="305" y="8" on="0"/>
        <pt x="229" y="-12" on="0"/>
        <pt x="185" y="-12" on="1"/>
        <pt x="124" y="-12" on="0"/>
        <pt x="31" y="19" on="0"/>
        <pt x="-3" y="44" on="1"/>
        <pt x="48" y="118" on="1"/>
        <pt x="75" y="96" on="0"/>
        <pt x="148" y="66" on="0"/>
        <pt x="193" y="66" on="1"/>
        <pt x="244" y="66" on="0"/>
        <pt x="301" y="104" on="0"/>
        <pt x="301" y="132" on="1"/>
        <pt x="301" y="145" on="0"/>
        <pt x="292" y="168" on="0"/>
        <pt x="268" y="192" on="0"/>
        <pt x="227" y="217" on="0"/>
        <pt x="196" y="233" on="1"/>
        <pt x="158" y="252" on="0"/>
        <pt x="109" y="287" on="0"/>
        <pt x="80" y="325" on="0"/>
        <pt x="68" y="368" on="0"/>
        <pt x="68" y="394" on="1"/>
        <pt x="68" y="424" on="0"/>
        <pt x="96" y="475" on="0"/>
        <pt x="146" y="511" on="0"/>
        <pt x="216" y="532" on="0"/>
        <pt x="258" y="532" on="1"/>
        <pt x="314" y="532" on="0"/>
        <pt x="403" y="503" on="0"/>
        <pt x="437" y="483" on="1"/>
      </contour>
    </TTGlyph>
    <TTGlyph name="section" xMin="72" yMin="-72" xMax="528" yMax="733">
      <contour>
        <pt x="291" y="227" on="1"/>
        <pt x="346" y="241" on="0"/>
        <pt x="417" y="300" on="0"/>
        <pt x="417" y="344" on="1"/>
        <pt x="417" y="373" on="0"/>
        <pt x="378" y="422" on="0"/>
        <pt x="333" y="440" on="1"/>
        <pt x="309" y="435" on="0"/>
        <pt x="262" y="414" on="0"/>
        <pt x="225" y="385" on="0"/>
        <pt x="203" y="347" on="0"/>
        <pt x="203" y="325" on="1"/>
        <pt x="203" y="296" on="0"/>
        <pt x="244" y="246" on="0"/>
      </contour>
      <contour>
        <pt x="109" y="39" on="1"/>
        <pt x="135" y="22" on="0"/>
        <pt x="196" y="0" on="0"/>
        <pt x="237" y="0" on="1"/>
        <pt x="288" y="0" on="0"/>
        <pt x="341" y="35" on="0"/>
        <pt x="341" y="65" on="1"/>
        <pt x="341" y="90" on="0"/>
        <pt x="301" y="134" on="0"/>
        <pt x="246" y="163" on="1"/>
        <pt x="212" y="181" on="0"/>
        <pt x="163" y="214" on="0"/>
        <pt x="132" y="250" on="0"/>
        <pt x="118" y="290" on="0"/>
        <pt x="118" y="315" on="1"/>
        <pt x="118" y="377" on="0"/>
        <pt x="202" y="454" on="0"/>
        <pt x="270" y="475" on="1"/>
        <pt x="228" y="501" on="0"/>
        <pt x="190" y="556" on="0"/>
        <pt x="190" y="595" on="1"/>
        <pt x="190" y="628" on="0"/>
        <pt x="221" y="679" on="0"/>
        <pt x="274" y="714" on="0"/>
        <pt x="345" y="733" on="0"/>
        <pt x="386" y="733" on="1"/>
        <pt x="431" y="733" on="0"/>
        <pt x="499" y="715" on="0"/>
        <pt x="528" y="701" on="1"/>
        <pt x="489" y="636" on="1"/>
        <pt x="466" y="649" on="0"/>
        <pt x="416" y="665" on="0"/>
        <pt x="381" y="665" on="1"/>
        <pt x="359" y="665" on="0"/>
        <pt x="320" y="656" on="0"/>
        <pt x="291" y="638" on="0"/>
        <pt x="274" y="613" on="0"/>
        <pt x="274" y="597" on="1"/>
        <pt x="274" y="585" on="0"/>
        <pt x="285" y="563" on="0"/>
        <pt x="311" y="540" on="0"/>
        <pt x="354" y="513" on="0"/>
        <pt x="386" y="497" on="1"/>
        <pt x="448" y="465" on="0"/>
        <pt x="502" y="398" on="0"/>
        <pt x="502" y="353" on="1"/>
        <pt x="502" y="287" on="0"/>
        <pt x="422" y="213" on="0"/>
        <pt x="349" y="190" on="1"/>
        <pt x="390" y="167" on="0"/>
        <pt x="429" y="110" on="0"/>
        <pt x="429" y="72" on="1"/>
        <pt x="429" y="34" on="0"/>
        <pt x="396" y="-20" on="0"/>
        <pt x="341" y="-55" on="0"/>
        <pt x="271" y="-72" on="0"/>
        <pt x="234" y="-72" on="1"/>
        <pt x="184" y="-72" on="0"/>
        <pt x="106" y="-52" on="0"/>
        <pt x="72" y="-31" on="1"/>
      </contour>
    </TTGlyph>
    <TTGlyph name="semicolon" xMin="-59" yMin="-160" xMax="258" yMax="532">
      <component glyphName="comma" x="-24" y="0" flags="0x204"/>
      <component glyphName="period" x="65" y="410" flags="0x4"/>
    </TTGlyph>
    <TTGlyph name="seven" xMin="128" yMin="0" xMax="592" yMax="700">
      <contour>
        <pt x="128" y="0" on="1"/>
        <pt x="142" y="84" on="0"/>
        <pt x="176" y="219" on="0"/>
        <pt x="219" y="330" on="0"/>
        <pt x="272" y="421" on="0"/>
        <pt x="338" y="503" on="0"/>
        <pt x="419" y="578" on="0"/>
        <pt x="468" y="618" on="1"/>
        <pt x="135" y="618" on="1"/>
        <pt x="149" y="700" on="1"/>
        <pt x="592" y="700" on="1"/>
        <pt x="580" y="628" on="1"/>
        <pt x="524" y="581" on="0"/>
        <pt x="437" y="495" on="0"/>
        <pt x="368" y="408" on="0"/>
        <pt x="316" y="315" on="0"/>
        <pt x="276" y="207" on="0"/>
        <pt x="244" y="78" on="0"/>
        <pt x="229" y="0" on="1"/>
      </contour>
    </TTGlyph>
    <TTGlyph name="six" xMin="65" yMin="-12" xMax="543" yMax="702">
      <contour>
        <pt x="492" y="620" on="1"/>
        <pt x="253" y="620" on="0"/>
        <pt x="182" y="373" on="1"/>
        <pt x="211" y="405" on="0"/>
        <pt x="292" y="443" on="0"/>
        <pt x="343" y="443" on="1"/>
        <pt x="383" y="443" on="0"/>
        <pt x="452" y="414" on="0"/>
        <pt x="502" y="363" on="0"/>
        <pt x="530" y="292" on="0"/>
        <pt x="530" y="250" on="1"/>
        <pt x="530" y="195" on="0"/>
        <pt x="494" y="99" on="0"/>
        <pt x="429" y="29" on="0"/>
        <pt x="337" y="-12" on="0"/>
        <pt x="281" y="-12" on="1"/>
        <pt x="233" y="-12" on="0"/>
        <pt x="154" y="20" on="0"/>
        <pt x="97" y="80" on="0"/>
        <pt x="65" y="169" on="0"/>
        <pt x="65" y="226" on="1"/>
        <pt x="65" y="285" on="0"/>
        <pt x="89" y="401" on="0"/>
        <pt x="136" y="507" on="0"/>
        <pt x="207" y="598" on="0"/>
        <pt x="303" y="664" on="0"/>
        <pt x="423" y="702" on="0"/>
        <pt x="495" y="702" on="1"/>
        <pt x="504" y="702" on="0"/>
        <pt x="533" y="701" on="0"/>
        <pt x="543" y="700" on="1"/>
        <pt x="529" y="618" on="1"/>
        <pt x="521" y="619" on="0"/>
        <pt x="500" y="620" on="0"/>
      </contour>
      <contour>
        <pt x="318" y="368" on="1"/>
        <pt x="272" y="368" on="0"/>
        <pt x="197" y="326" on="0"/>
        <pt x="161" y="281" on="1"/>
        <pt x="158" y="257" on="0"/>
        <pt x="158" y="228" on="1"/>
        <pt x="158" y="155" on="0"/>
        <pt x="229" y="68" on="0"/>
        <pt x="285" y="68" on="1"/>
        <pt x="317" y="68" on="0"/>
        <pt x="373" y="95" on="0"/>
        <pt x="414" y="142" on="0"/>
        <pt x="437" y="205" on="0"/>
        <pt x="437" y="241" on="1"/>
        <pt x="437" y="298" on="0"/>
        <pt x="369" y="368" on="0"/>
      </contour>
    </TTGlyph>
    <TTGlyph name="slash" xMin="0" yMin="-71" xMax="488" yMax="773">
      <contour>
        <pt x="0" y="-35" on="1"/>
        <pt x="418" y="773" on="1"/>
        <pt x="488" y="737" on="1"/>
        <pt x="70" y="-71" on="1"/>
      </contour>
    </TTGlyph>
    <TTGlyph name="sterling" xMin="51" yMin="0" xMax="569" yMax="712">
      <contour>
        <pt x="478" y="0" on="1"/>
        <pt x="51" y="0" on="1"/>
        <pt x="64" y="73" on="1"/>
        <pt x="89" y="101" on="0"/>
        <pt x="126" y="152" on="0"/>
        <pt x="153" y="208" on="0"/>
        <pt x="173" y="276" on="0"/>
        <pt x="182" y="321" on="1"/>
        <pt x="106" y="321" on="1"/>
        <pt x="120" y="397" on="1"/>
        <pt x="196" y="397" on="1"/>
        <pt x="220" y="534" on="1"/>
        <pt x="229" y="582" on="0"/>
        <pt x="266" y="650" on="0"/>
        <pt x="318" y="693" on="0"/>
        <pt x="384" y="712" on="0"/>
        <pt x="421" y="712" on="1"/>
        <pt x="470" y="712" on="0"/>
        <pt x="541" y="684" on="0"/>
        <pt x="569" y="668" on="1"/>
        <pt x="528" y="598" on="1"/>
        <pt x="505" y="612" on="0"/>
        <pt x="453" y="636" on="0"/>
        <pt x="422" y="636" on="1"/>
        <pt x="380" y="636" on="0"/>
        <pt x="317" y="586" on="0"/>
        <pt x="306" y="525" on="1"/>
        <pt x="282" y="397" on="1"/>
        <pt x="450" y="397" on="1"/>
        <pt x="436" y="321" on="1"/>
        <pt x="267" y="321" on="1"/>
        <pt x="258" y="276" on="0"/>
        <pt x="236" y="207" on="0"/>
        <pt x="210" y="150" on="0"/>
        <pt x="179" y="104" on="0"/>
        <pt x="160" y="83" on="1"/>
        <pt x="492" y="83" on="1"/>
      </contour>
    </TTGlyph>
    <TTGlyph name="t" xMin="42" yMin="-12" xMax="379" yMax="665">
      <contour>
        <pt x="55" y="501" on="1"/>
        <pt x="147" y="501" on="1"/>
        <pt x="195" y="665" on="1"/>
        <pt x="264" y="665" on="1"/>
        <pt x="235" y="501" on="1"/>
        <pt x="379" y="501" on="1"/>
        <pt x="366" y="423" on="1"/>
        <pt x="221" y="423" on="1"/>
        <pt x="179" y="180" on="1"/>
        <pt x="175" y="160" on="0"/>
        <pt x="175" y="142" on="1"/>
        <pt x="175" y="107" on="0"/>
        <pt x="216" y="68" on="0"/>
        <pt x="251" y="68" on="1"/>
        <pt x="280" y="68" on="0"/>
        <pt x="319" y="85" on="0"/>
        <pt x="336" y="94" on="1"/>
        <pt x="347" y="16" on="1"/>
        <pt x="328" y="5" on="0"/>
        <pt x="271" y="-12" on="0"/>
        <pt x="236" y="-12" on="1"/>
        <pt x="208" y="-12" on="0"/>
        <pt x="154" y="5" on="0"/>
        <pt x="112" y="40" on="0"/>
        <pt x="86" y="96" on="0"/>
        <pt x="86" y="135" on="1"/>
        <pt x="86" y="146" on="0"/>
        <pt x="88" y="169" on="0"/>
        <pt x="90" y="184" on="1"/>
        <pt x="131" y="423" on="1"/>
        <pt x="42" y="423" on="1"/>
      </contour>
    </TTGlyph>
    <TTGlyph name="thorn" xMin="7" yMin="-220" xMax="558" yMax="700">
      <contour>
        <pt x="7" y="-220" on="1"/>
        <pt x="169" y="700" on="1"/>
        <pt x="259" y="700" on="1"/>
        <pt x="210" y="425" on="1"/>
        <pt x="239" y="473" on="0"/>
        <pt x="326" y="532" on="0"/>
        <pt x="382" y="532" on="1"/>
        <pt x="422" y="532" on="0"/>
        <pt x="487" y="500" on="0"/>
        <pt x="533" y="443" on="0"/>
        <pt x="558" y="364" on="0"/>
        <pt x="558" y="316" on="1"/>
        <pt x="558" y="242" on="0"/>
        <pt x="514" y="121" on="0"/>
        <pt x="442" y="35" on="0"/>
        <pt x="350" y="-12" on="0"/>
        <pt x="302" y="-12" on="1"/>
        <pt x="254" y="-12" on="0"/>
        <pt x="172" y="36" on="0"/>
        <pt x="148" y="72" on="1"/>
        <pt x="97" y="-220" on="1"/>
      </contour>
      <contour>
        <pt x="295" y="68" on="1"/>
        <pt x="330" y="68" on="0"/>
        <pt x="393" y="103" on="0"/>
        <pt x="441" y="166" on="0"/>
        <pt x="469" y="254" on="0"/>
        <pt x="469" y="307" on="1"/>
        <pt x="469" y="376" on="0"/>
        <pt x="407" y="454" on="0"/>
        <pt x="357" y="454" on="1"/>
        <pt x="324" y="454" on="0"/>
        <pt x="266" y="420" on="0"/>
        <pt x="219" y="359" on="0"/>
        <pt x="184" y="274" on="0"/>
        <pt x="175" y="223" on="1"/>
        <pt x="162" y="152" on="1"/>
        <pt x="184" y="111" on="0"/>
        <pt x="254" y="68" on="0"/>
      </contour>
    </TTGlyph>
    <TTGlyph name="three" xMin="36" yMin="-12" xMax="514" yMax="712">
      <contour>
        <pt x="161" y="328" on="1"/>
        <pt x="173" y="401" on="1"/>
        <pt x="205" y="401" on="1"/>
        <pt x="254" y="401" on="0"/>
        <pt x="334" y="419" on="0"/>
        <pt x="390" y="453" on="0"/>
        <pt x="421" y="502" on="0"/>
        <pt x="421" y="533" on="1"/>
        <pt x="421" y="579" on="0"/>
        <pt x="358" y="634" on="0"/>
        <pt x="309" y="634" on="1"/>
        <pt x="263" y="634" on="0"/>
        <pt x="197" y="605" on="0"/>
        <pt x="171" y="586" on="1"/>
        <pt x="136" y="654" on="1"/>
        <pt x="171" y="679" on="0"/>
        <pt x="261" y="712" on="0"/>
        <pt x="320" y="712" on="1"/>
        <pt x="366" y="712" on="0"/>
        <pt x="438" y="685" on="0"/>
        <pt x="488" y="640" on="0"/>
        <pt x="514" y="580" on="0"/>
        <pt x="514" y="548" on="1"/>
        <pt x="514" y="477" on="0"/>
        <pt x="432" y="391" on="0"/>
        <pt x="353" y="367" on="1"/>
        <pt x="416" y="344" on="0"/>
        <pt x="484" y="259" on="0"/>
        <pt x="484" y="200" on="1"/>
        <pt x="484" y="152" on="0"/>
        <pt x="446" y="73" on="0"/>
        <pt x="378" y="18" on="0"/>
        <pt x="284" y="-12" on="0"/>
        <pt x="229" y="-12" on="1"/>
        <pt x="172" y="-12" on="0"/>
        <pt x="71" y="19" on="0"/>
        <pt x="36" y="46" on="1"/>
        <pt x="89" y="117" on="1"/>
        <pt x="114" y="96" on="0"/>
        <pt x="184" y="68" on="0"/>
        <pt x="229" y="68" on="1"/>
        <pt x="263" y="68" on="0"/>
        <pt x="321" y="85" on="0"/>
        <pt x="363" y="117" on="0"/>
        <pt x="387" y="165" on="0"/>
        <pt x="387" y="196" on="1"/>
        <pt x="387" y="223" on="0"/>
        <pt x="365" y="271" on="0"/>
        <pt x="322" y="307" on="0"/>
        <pt x="256" y="328" on="0"/>
        <pt x="212" y="328" on="1"/>
      </contour>
    </TTGlyph>
    <TTGlyph name="threequarters" xMin="47" yMin="-39" xMax="853" yMax="740">
      <contour>
        <pt x="185" y="1" on="1"/>
        <pt x="748" y="740" on="1"/>
        <pt x="803" y="700" on="1"/>
        <pt x="240" y="-39" on="1"/>
      </contour>
      <contour>
        <pt x="707" y="87" on="1"/>
        <pt x="503" y="87" on="1"/>
        <pt x="512" y="139" on="1"/>
        <pt x="709" y="430" on="1"/>
        <pt x="777" y="404" on="1"/>
        <pt x="607" y="153" on="1"/>
        <pt x="719" y="153" on="1"/>
        <pt x="739" y="267" on="1"/>
        <pt x="816" y="267" on="1"/>
        <pt x="796" y="153" on="1"/>
        <pt x="853" y="153" on="1"/>
        <pt x="841" y="87" on="1"/>
        <pt x="784" y="87" on="1"/>
        <pt x="769" y="0" on="1"/>
        <pt x="692" y="0" on="1"/>
      </contour>
      <contour>
        <pt x="191" y="270" on="1"/>
        <pt x="151" y="270" on="0"/>
        <pt x="76" y="291" on="0"/>
        <pt x="47" y="311" on="1"/>
        <pt x="95" y="367" on="1"/>
        <pt x="115" y="353" on="0"/>
        <pt x="165" y="336" on="0"/>
        <pt x="194" y="336" on="1"/>
        <pt x="237" y="336" on="0"/>
        <pt x="289" y="369" on="0"/>
        <pt x="289" y="403" on="1"/>
        <pt x="289" y="431" on="0"/>
        <pt x="231" y="467" on="0"/>
        <pt x="176" y="467" on="1"/>
        <pt x="134" y="467" on="1"/>
        <pt x="145" y="527" on="1"/>
        <pt x="176" y="527" on="1"/>
        <pt x="236" y="527" on="0"/>
        <pt x="312" y="562" on="0"/>
        <pt x="312" y="595" on="1"/>
        <pt x="312" y="616" on="0"/>
        <pt x="275" y="643" on="0"/>
        <pt x="244" y="643" on="1"/>
        <pt x="214" y="643" on="0"/>
        <pt x="169" y="625" on="0"/>
        <pt x="149" y="613" on="1"/>
        <pt x="115" y="667" on="1"/>
        <pt x="143" y="684" on="0"/>
        <pt x="212" y="707" on="0"/>
        <pt x="252" y="707" on="1"/>
        <pt x="285" y="707" on="0"/>
        <pt x="337" y="690" on="0"/>
        <pt x="373" y="661" on="0"/>
        <pt x="393" y="623" on="0"/>
        <pt x="393" y="603" on="1"/>
        <pt x="393" y="562" on="0"/>
        <pt x="346" y="513" on="0"/>
        <pt x="302" y="497" on="1"/>
        <pt x="336" y="481" on="0"/>
        <pt x="372" y="435" on="0"/>
        <pt x="372" y="403" on="1"/>
        <pt x="372" y="342" on="0"/>
        <pt x="278" y="270" on="0"/>
      </contour>
    </TTGlyph>
    <TTGlyph name="threesuperior" xMin="72" yMin="270" xMax="418" yMax="707">
      <contour>
        <pt x="216" y="270" on="1"/>
        <pt x="176" y="270" on="0"/>
        <pt x="101" y="291" on="0"/>
        <pt x="72" y="311" on="1"/>
        <pt x="120" y="367" on="1"/>
        <pt x="140" y="353" on="0"/>
        <pt x="190" y="336" on="0"/>
        <pt x="219" y="336" on="1"/>
        <pt x="262" y="336" on="0"/>
        <pt x="314" y="369" on="0"/>
        <pt x="314" y="403" on="1"/>
        <pt x="314" y="431" on="0"/>
        <pt x="256" y="467" on="0"/>
        <pt x="201" y="467" on="1"/>
        <pt x="159" y="467" on="1"/>
        <pt x="170" y="527" on="1"/>
        <pt x="201" y="527" on="1"/>
        <pt x="261" y="527" on="0"/>
        <pt x="337" y="562" on="0"/>
        <pt x="337" y="595" on="1"/>
        <pt x="337" y="616" on="0"/>
        <pt x="300" y="643" on="0"/>
        <pt x="269" y="643" on="1"/>
        <pt x="239" y="643" on="0"/>
        <pt x="194" y="625" on="0"/>
        <pt x="174" y="613" on="1"/>
        <pt x="140" y="667" on="1"/>
        <pt x="168" y="684" on="0"/>
        <pt x="237" y="707" on="0"/>
        <pt x="277" y="707" on="1"/>
        <pt x="310" y="707" on="0"/>
        <pt x="362" y="690" on="0"/>
        <pt x="398" y="661" on="0"/>
        <pt x="418" y="623" on="0"/>
        <pt x="418" y="603" on="1"/>
        <pt x="418" y="562" on="0"/>
        <pt x="371" y="513" on="0"/>
        <pt x="327" y="497" on="1"/>
        <pt x="361" y="481" on="0"/>
        <pt x="397" y="435" on="0"/>
        <pt x="397" y="403" on="1"/>
        <pt x="397" y="342" on="0"/>
        <pt x="303" y="270" on="0"/>
      </contour>
    </TTGlyph>
    <TTGlyph name="tilde" xMin="50" yMin="608" xMax="371" yMax="722">
      <contour>
        <pt x="371" y="656" on="1"/>
        <pt x="350" y="638" on="0"/>
        <pt x="303" y="609" on="0"/>
        <pt x="272" y="609" on="1"/>
        <pt x="252" y="609" on="0"/>
        <pt x="223" y="620" on="0"/>
        <pt x="197" y="633" on="0"/>
        <pt x="171" y="644" on="0"/>
        <pt x="154" y="644" on="1"/>
        <pt x="131" y="644" on="0"/>
        <pt x="92" y="623" on="0"/>
        <pt x="74" y="608" on="1"/>
        <pt x="50" y="670" on="1"/>
        <pt x="73" y="692" on="0"/>
        <pt x="132" y="722" on="0"/>
        <pt x="161" y="722" on="1"/>
        <pt x="180" y="722" on="0"/>
        <pt x="209" y="711" on="0"/>
        <pt x="234" y="699" on="0"/>
        <pt x="260" y="688" on="0"/>
        <pt x="278" y="688" on="1"/>
        <pt x="298" y="688" on="0"/>
        <pt x="332" y="707" on="0"/>
        <pt x="347" y="719" on="1"/>
      </contour>
    </TTGlyph>
    <TTGlyph name="tilde.cap" xMin="50" yMin="578" xMax="371" yMax="692">
      <contour>
        <pt x="371" y="626" on="1"/>
        <pt x="350" y="608" on="0"/>
        <pt x="303" y="579" on="0"/>
        <pt x="272" y="579" on="1"/>
        <pt x="252" y="579" on="0"/>
        <pt x="223" y="590" on="0"/>
        <pt x="197" y="603" on="0"/>
        <pt x="171" y="614" on="0"/>
        <pt x="154" y="614" on="1"/>
        <pt x="131" y="614" on="0"/>
        <pt x="92" y="593" on="0"/>
        <pt x="74" y="578" on="1"/>
        <pt x="50" y="640" on="1"/>
        <pt x="73" y="662" on="0"/>
        <pt x="132" y="692" on="0"/>
        <pt x="161" y="692" on="1"/>
        <pt x="180" y="692" on="0"/>
        <pt x="209" y="681" on="0"/>
        <pt x="234" y="669" on="0"/>
        <pt x="260" y="658" on="0"/>
        <pt x="278" y="658" on="1"/>
        <pt x="298" y="658" on="0"/>
        <pt x="332" y="677" on="0"/>
        <pt x="347" y="689" on="1"/>
      </contour>
    </TTGlyph>
</ttFont>
